M48
;GenerationSoftware,Autodesk,EAGLE,9.6.2*%
;CreationDate,2022-04-08T17:20:14Z*%
FMAT,2
ICI,OFF
METRIC,TZ,000.000
T8C0.350
T7C0.650
T6C0.890
T5C0.900
T4C1.000
T3C1.016
T2C1.143
T1C2.010
%
G90
M71
T1
X157290Y90106
X157290Y64706
X157290Y100266
X157290Y74867
X157290Y39370
X157290Y49530
X157290Y14073
X157290Y24233
T2
X98298Y61214
X97917Y75438
X97917Y72898
X92202Y35052
X143256Y100076
X92202Y37592
X92202Y48387
X92202Y45847
X92837Y61341
X98044Y35052
X97790Y48387
X97790Y45847
X91821Y6985
X91821Y9525
X98044Y20828
X98044Y18288
X98044Y9398
X98044Y6858
X92202Y20574
X92202Y18034
X145796Y100076
X142875Y74930
X145415Y74930
X142621Y47244
X145161Y47244
X142748Y24170
X145288Y24170
X98044Y37592
X92837Y63881
X92710Y75438
X92710Y72898
X98298Y63754
X93091Y90551
X93091Y93091
X92837Y105791
X92837Y103251
X98171Y92837
X98171Y90297
X98171Y105791
X98171Y103251
T3
X16764Y25019
X19304Y25019
X14224Y25019
T4
X10922Y71755
X8382Y71755
X54102Y94551
X51562Y94551
X54102Y92011
X51562Y92011
X54102Y89471
X51562Y89471
X54102Y86932
X51562Y86932
X54102Y84392
X51562Y84392
X22479Y32766
X51562Y81852
X54102Y79312
X51562Y79312
X54102Y76772
X51562Y76772
X54102Y74232
X51562Y74232
X54102Y71692
X51562Y71692
X4636Y36830
X41974Y3937
X10351Y11303
X3873Y80010
X3937Y23749
X3937Y31686
X5842Y26670
X10922Y84455
X14732Y65532
X23876Y27241
X23876Y22479
X38989Y65468
X4699Y41910
X32893Y32830
X10922Y94615
X8382Y94615
X10922Y92075
X8382Y92075
X10922Y89535
X8382Y89535
X10922Y86995
X54102Y81852
X27876Y33274
X8382Y86995
X8382Y84455
X10922Y81915
X8382Y81915
X10922Y79375
X8382Y79375
X10922Y76835
X8382Y76835
X10922Y74295
X8382Y74295
T5
X12763Y46990
T6
X144209Y16931
X152210Y72327
X152210Y69787
X144209Y14391
X144018Y42228
X152210Y44450
X144018Y39688
X144018Y37148
X144336Y95758
X152210Y21694
X152210Y19154
X144336Y93218
X144336Y90678
X144145Y70041
X144145Y67501
X144145Y64960
X152210Y97726
X152210Y95186
X144209Y19471
X152210Y46990
T7
X57086Y75565
X38418Y76772
X40069Y81852
X57086Y85154
X57086Y95313
X55372Y68009
X46228Y71374
X46228Y66866
T8
X48260Y34925
X49911Y42545
X49784Y51054
X49530Y58928
X48514Y59944
X44577Y65151
X56324Y64325
X56388Y65278
X31623Y47942
X31559Y45021
X38164Y46418
X31369Y34417
X38926Y32194
X40196Y63944
X38735Y54356
X38799Y38100
X39497Y62484
X37338Y65532
X38862Y63944
X31369Y35814
X31369Y32702
X32957Y34417
X32957Y35814
X34290Y35751
X35433Y41275
X35560Y33655
X35306Y57531
X35306Y49911
X32194Y41148
X35052Y60071
X32385Y57467
X32321Y49911
X68517Y71501
X66739Y33655
X66294Y9398
X53594Y43053
X68072Y92519
X61976Y71565
X67564Y70803
X66040Y32639
X65405Y8382
X58547Y52324
X67755Y90614
X63373Y71628
X69342Y72517
X67437Y34671
X67183Y10414
X69406Y94932
X62975Y57104
X54537Y57933
X69723Y17272
X69914Y41339
X72644Y78740
X59245Y42799
X55118Y50927
X71755Y102235
X67501Y104267
X68072Y15367
X68453Y39751
X70866Y77089
X48641Y37465
X71247Y98933
X66802Y55372
X67818Y94805
X60325Y71628
X57150Y39370
X68707Y16510
X69215Y40640
X71882Y78105
X71120Y99949
X70739Y104330
X63246Y18161
X65024Y41021
X66167Y79502
X67310Y101727
X62865Y58928
X61849Y56769
X62865Y63373
X64262Y63373
X65468Y108839
X65596Y110744
X75502Y109601
X66231Y109855
X64897Y51244
X62420Y45974
X51562Y45593
X49403Y40005
X36640Y64325
X32385Y51244
X32385Y58801
X29527Y31877
X29527Y34608
X29527Y35751
X28130Y35751
X29527Y33147
X32258Y42482
X35560Y34925
X69342Y47688
X64833Y48323
X74549Y88265
X70422Y5651
X71120Y29019
X73978Y66675
X71565Y92710
X68707Y96393
X46672Y32004
X48196Y30543
X52578Y34544
X48260Y33592
X44831Y41275
X52641Y40386
X49784Y41339
X52006Y43053
X47498Y44831
X45275Y44831
X46291Y46863
X52006Y49403
X47625Y49847
X51117Y53784
X48006Y63182
X50927Y62039
X44640Y57594
X49530Y57658
X49784Y49720
X54292Y34925
X54483Y46101
X54610Y49593
X54546Y55181
X55308Y62611
X56324Y63373
X51816Y64960
X48958Y64960
X46291Y65087
X44323Y60769
X143129Y102362
X142748Y77216
X142494Y49403
X142748Y26329
X84836Y91440
X84709Y68326
X82233Y6921
X83058Y98552
X82677Y75946
X80264Y37084
X80645Y13716
X80137Y8763
X84455Y10668
X80772Y32639
X84709Y34798
X82931Y70739
X87376Y73025
X83058Y94234
X86106Y94869
X76581Y101727
X76835Y93472
X78740Y86614
X76518Y78486
X76327Y70612
X78232Y64897
X74168Y41148
X74295Y32893
X76200Y28321
X73533Y16764
X73660Y8382
X74740Y2032
X71501Y93853
X70739Y70676
X69850Y33147
X68961Y7874
X73025Y69342
X68199Y12954
X68453Y37338
X70739Y74930
X63246Y14986
X63246Y11684
X65024Y38862
X65024Y36703
X66167Y77216
X66294Y74295
X67310Y97409
X67310Y99314
X70231Y73406
X68453Y35878
X120777Y94107
X116903Y94107
X118618Y96012
X116713Y100457
X118681Y102235
X120650Y100457
X127381Y100838
X129667Y102552
X131699Y100838
X131509Y107569
X129667Y109283
X127317Y107569
X120967Y106870
X116586Y106870
X118618Y108712
X57023Y1714
X60325Y1651
X63309Y1651
X66358Y1651
X69215Y1651
X76581Y1714
X80201Y1714
X84011Y1714
X88392Y1714
X92202Y1651
X96139Y1651
X100647Y1651
X105283Y1714
X108966Y1714
X112585Y1714
X116332Y1714
X119888Y1714
X123698Y1714
X127508Y1714
X132144Y1714
X137541Y1714
X143637Y1651
X148908Y1651
X153607Y1651
X157544Y1714
X163005Y1778
X163132Y6540
X163195Y10732
X163195Y13779
X163195Y16701
X163322Y21209
X163322Y25654
X163322Y30670
X163386Y34925
X163322Y40450
X163322Y45910
X163322Y51308
X163322Y56832
X163386Y62611
X163322Y68771
X163386Y76010
X163322Y80836
X163386Y84646
X163322Y91186
X163322Y97345
X163259Y103441
X163259Y109474
X163259Y112458
X159385Y112458
X153861Y112331
X149670Y112395
X145542Y112458
X140716Y112458
X133922Y112458
X128841Y112522
X124142Y112458
X118046Y112458
X113601Y112458
X109347Y112458
X103251Y112522
X98107Y112458
X91630Y112458
X86297Y112395
X81852Y112458
X77597Y112458
X72708Y112522
X69406Y112522
X65532Y112458
X59690Y101092
X59499Y93980
X59499Y86487
X60261Y64897
X61341Y68009
X60198Y50673
X60007Y44386
X59817Y34735
X59944Y38418
X59880Y29972
X55181Y28003
X56832Y18606
X56832Y16192
X56769Y12255
X56705Y8636
X56769Y5398
X31369Y24892
X31305Y19876
X33211Y22161
X34417Y22161
X33147Y23431
X33147Y24574
X33211Y25527
X34417Y25463
X48323Y21400
X49403Y21400
X50482Y21400
X49403Y20574
X50482Y20574
X50419Y23431
X48323Y20574
X49593Y28003
X43498Y28003
X37275Y28067
X33401Y28003
X39370Y20384
X40323Y20193
X36259Y20447
X43307Y20193
X44386Y20257
X47053Y20320
X59626Y105473
X59626Y110807
X59563Y80772
X59626Y72898
X53213Y20701
X65659Y52070
X72898Y100711
X69787Y39497
X69152Y15049
X107950Y105537
X108077Y99314
X107950Y92329
X108077Y85344
X107823Y76073
X107950Y69723
X107823Y63627
X107950Y57785
X107442Y48895
X107823Y42164
X107823Y36322
X108077Y29845
X107696Y22987
X107696Y17145
X107696Y10668
X107950Y4191
X78994Y6286
X78232Y28702
X80391Y66548
X80899Y89916
X36767Y22733
X36767Y24447
X39180Y24384
X40005Y24384
X127317Y94551
X39243Y22796
X39624Y26225
X102870Y105537
X102997Y99187
X102870Y92329
X102997Y85217
X102743Y76073
X102870Y69850
X102616Y63754
X102870Y57658
X102362Y48895
X102743Y42164
X102743Y36449
X102997Y29845
X102489Y22987
X102616Y17272
X102616Y10668
X102870Y4064
X44196Y26098
X44196Y24257
X44196Y22542
X46799Y22288
X70612Y12890
X72581Y12890
X70612Y10922
X72644Y10922
X73914Y97726
X75756Y97790
X75692Y95758
X73978Y95758
X71184Y35243
X73152Y35243
X71247Y37338
X73152Y37338
X75184Y74994
X73152Y72898
X73216Y74803
X75248Y72898
X46164Y26289
X131445Y94615
X131890Y87630
X130111Y89535
X127889Y87630
X121221Y87439
X119126Y89281
X117348Y87439
X63909Y55072
X132207Y65278
X130048Y66929
X128079Y65278
X120840Y77724
X118681Y79566
X116776Y77724
X129794Y80201
X131953Y78359
X127952Y78359
X132017Y72136
X129857Y74041
X127825Y72136
X121094Y71501
X118808Y73216
X116903Y71438
X120904Y65341
X119189Y66993
X116967Y65341
X119126Y61214
X121221Y59309
X117284Y59309
X130492Y61404
X132398Y59309
X128460Y59245
X119253Y52578
X117411Y50863
X121094Y50863
X130111Y52959
X127889Y50927
X132207Y50927
X129730Y46228
X129603Y96520
X131890Y44450
X128016Y44450
X121094Y44069
X119062Y45720
X117094Y44069
X119316Y39624
X117475Y37846
X121221Y37846
X128079Y38227
X130238Y40323
X132080Y38227
X132334Y32131
X130492Y34036
X128333Y31940
X121475Y32004
X119443Y33719
X117665Y31877
X119062Y27114
X121158Y25146
X117284Y25082
X132271Y25273
X130238Y27241
X128079Y25209
X129984Y21019
X132271Y19177
X128270Y19177
X121031Y18796
X119316Y20447
X117475Y18860
X119316Y14605
X121412Y12700
X117475Y12700
X132779Y12954
X130810Y14859
X128905Y12954
X132906Y6604
X130683Y8446
X128524Y6477
X121475Y6286
X119570Y8191
X117665Y6223
X66802Y106045
X69914Y60134
X69088Y59436
X84265Y96202
X81979Y93154
X84836Y92583
X84836Y90297
X81852Y69723
X83312Y73470
X84709Y69469
X84709Y67183
X81217Y34417
X79439Y31623
X78994Y8001
X81090Y10605
X82169Y5842
X81979Y7937
X82614Y28956
X82550Y31623
X82550Y30353
X70295Y4318
X70422Y26860
X73089Y64071
X73406Y86741
X43180Y21336
X35243Y20638
X71247Y97790
X64389Y65405
X61595Y63246
X67310Y95631
X60579Y56769
X59753Y60642
X70803Y59753
X61468Y48704
X69088Y50419
X69723Y49911
X68009Y11493
X40069Y22796
M30