G04 EAGLE Gerber RS-274X export*
G75*
%MOMM*%
%FSLAX34Y34*%
%LPD*%
%INCopper Layer 2*%
%IPPOS*%
%AMOC8*
5,1,8,0,0,1.08239X$1,22.5*%
G01*
%ADD10C,1.270000*%
%ADD11R,0.635000X1.270000*%
%ADD12C,1.508000*%
%ADD13C,1.524000*%
%ADD14C,1.714500*%
%ADD15C,1.398000*%
%ADD16C,3.015000*%
%ADD17C,1.350000*%
%ADD18C,1.500000*%
%ADD19C,0.756400*%
%ADD20C,0.254000*%
%ADD21C,1.056400*%

G36*
X1637656Y12208D02*
X1637656Y12208D01*
X1637775Y12215D01*
X1637813Y12228D01*
X1637854Y12233D01*
X1637964Y12276D01*
X1638077Y12313D01*
X1638112Y12335D01*
X1638149Y12350D01*
X1638245Y12419D01*
X1638346Y12483D01*
X1638374Y12513D01*
X1638407Y12536D01*
X1638483Y12628D01*
X1638564Y12715D01*
X1638584Y12750D01*
X1638609Y12781D01*
X1638660Y12889D01*
X1638718Y12993D01*
X1638728Y13033D01*
X1638745Y13069D01*
X1638767Y13186D01*
X1638797Y13301D01*
X1638801Y13361D01*
X1638805Y13381D01*
X1638803Y13402D01*
X1638807Y13462D01*
X1638807Y1129538D01*
X1638792Y1129656D01*
X1638785Y1129775D01*
X1638773Y1129813D01*
X1638767Y1129854D01*
X1638724Y1129964D01*
X1638687Y1130077D01*
X1638665Y1130112D01*
X1638650Y1130149D01*
X1638581Y1130245D01*
X1638517Y1130346D01*
X1638487Y1130374D01*
X1638464Y1130407D01*
X1638372Y1130483D01*
X1638285Y1130564D01*
X1638250Y1130584D01*
X1638219Y1130609D01*
X1638111Y1130660D01*
X1638007Y1130718D01*
X1637967Y1130728D01*
X1637931Y1130745D01*
X1637814Y1130767D01*
X1637699Y1130797D01*
X1637639Y1130801D01*
X1637619Y1130805D01*
X1637598Y1130803D01*
X1637538Y1130807D01*
X588645Y1130807D01*
X588527Y1130792D01*
X588408Y1130785D01*
X588370Y1130772D01*
X588329Y1130767D01*
X588219Y1130724D01*
X588106Y1130687D01*
X588071Y1130665D01*
X588034Y1130650D01*
X587938Y1130581D01*
X587837Y1130517D01*
X587809Y1130487D01*
X587776Y1130464D01*
X587701Y1130372D01*
X587619Y1130285D01*
X587599Y1130250D01*
X587574Y1130219D01*
X587523Y1130111D01*
X587465Y1130007D01*
X587455Y1129967D01*
X587438Y1129931D01*
X587416Y1129814D01*
X587386Y1129699D01*
X587382Y1129639D01*
X587378Y1129619D01*
X587380Y1129598D01*
X587376Y1129538D01*
X587376Y583339D01*
X587391Y583221D01*
X587398Y583102D01*
X587411Y583064D01*
X587416Y583023D01*
X587459Y582913D01*
X587496Y582799D01*
X587518Y582765D01*
X587533Y582728D01*
X587603Y582631D01*
X587666Y582531D01*
X587696Y582503D01*
X587719Y582470D01*
X587811Y582394D01*
X587898Y582313D01*
X587933Y582293D01*
X587964Y582267D01*
X588072Y582217D01*
X588176Y582159D01*
X588216Y582149D01*
X588252Y582132D01*
X588369Y582110D01*
X588484Y582080D01*
X588545Y582076D01*
X588565Y582072D01*
X588585Y582073D01*
X588645Y582070D01*
X625809Y582070D01*
X625879Y582078D01*
X625948Y582077D01*
X626036Y582098D01*
X626125Y582109D01*
X626190Y582135D01*
X626258Y582151D01*
X626337Y582193D01*
X626421Y582226D01*
X626477Y582267D01*
X626539Y582300D01*
X626605Y582361D01*
X626678Y582413D01*
X626722Y582467D01*
X626774Y582514D01*
X626823Y582589D01*
X626881Y582658D01*
X626910Y582721D01*
X626949Y582780D01*
X626978Y582865D01*
X627016Y582946D01*
X627029Y583014D01*
X627052Y583081D01*
X627059Y583170D01*
X627076Y583258D01*
X627072Y583328D01*
X627077Y583398D01*
X627062Y583486D01*
X627056Y583576D01*
X627035Y583642D01*
X627023Y583711D01*
X626986Y583793D01*
X626958Y583878D01*
X626921Y583937D01*
X626892Y584001D01*
X626836Y584071D01*
X626788Y584147D01*
X626737Y584195D01*
X626694Y584249D01*
X626622Y584303D01*
X626556Y584365D01*
X626495Y584399D01*
X626440Y584441D01*
X626295Y584512D01*
X625644Y584781D01*
X624151Y586274D01*
X623343Y588224D01*
X623343Y590336D01*
X624151Y592286D01*
X625644Y593779D01*
X627594Y594587D01*
X629706Y594587D01*
X631656Y593779D01*
X633149Y592286D01*
X633957Y590336D01*
X633957Y588224D01*
X633149Y586274D01*
X631656Y584781D01*
X630967Y584496D01*
X630924Y584471D01*
X630877Y584455D01*
X630787Y584393D01*
X630691Y584338D01*
X630655Y584304D01*
X630614Y584276D01*
X630542Y584194D01*
X630463Y584117D01*
X630437Y584075D01*
X630404Y584037D01*
X630354Y583940D01*
X630296Y583846D01*
X630282Y583798D01*
X630259Y583754D01*
X630235Y583647D01*
X630203Y583542D01*
X630200Y583492D01*
X630190Y583444D01*
X630193Y583334D01*
X630188Y583224D01*
X630198Y583176D01*
X630199Y583126D01*
X630230Y583021D01*
X630252Y582913D01*
X630274Y582868D01*
X630288Y582821D01*
X630343Y582726D01*
X630392Y582627D01*
X630424Y582590D01*
X630449Y582547D01*
X630556Y582426D01*
X632549Y580432D01*
X632549Y576275D01*
X632561Y576177D01*
X632564Y576078D01*
X632581Y576020D01*
X632589Y575960D01*
X632625Y575868D01*
X632653Y575773D01*
X632684Y575721D01*
X632706Y575664D01*
X632764Y575584D01*
X632814Y575499D01*
X632881Y575423D01*
X632893Y575407D01*
X632902Y575399D01*
X632921Y575378D01*
X634253Y574046D01*
X635061Y572095D01*
X635061Y569984D01*
X634253Y568034D01*
X632760Y566541D01*
X630810Y565733D01*
X628699Y565733D01*
X626748Y566541D01*
X625963Y567325D01*
X625854Y567410D01*
X625747Y567499D01*
X625728Y567508D01*
X625712Y567520D01*
X625585Y567576D01*
X625459Y567635D01*
X625439Y567639D01*
X625420Y567647D01*
X625282Y567669D01*
X625146Y567695D01*
X625126Y567693D01*
X625106Y567697D01*
X624967Y567683D01*
X624829Y567675D01*
X624810Y567669D01*
X624790Y567667D01*
X624658Y567620D01*
X624527Y567577D01*
X624509Y567566D01*
X624490Y567559D01*
X624375Y567481D01*
X624258Y567407D01*
X624244Y567392D01*
X624227Y567381D01*
X624135Y567277D01*
X624040Y567175D01*
X624030Y567157D01*
X624017Y567142D01*
X623954Y567018D01*
X623886Y566897D01*
X623881Y566877D01*
X623872Y566859D01*
X623851Y566766D01*
X622989Y564684D01*
X621496Y563191D01*
X619546Y562383D01*
X617434Y562383D01*
X615484Y563191D01*
X613991Y564684D01*
X613183Y566634D01*
X613183Y568746D01*
X613991Y570696D01*
X615484Y572189D01*
X617434Y572997D01*
X619546Y572997D01*
X621496Y572189D01*
X622281Y571404D01*
X622390Y571319D01*
X622498Y571230D01*
X622516Y571222D01*
X622532Y571209D01*
X622660Y571154D01*
X622785Y571095D01*
X622805Y571091D01*
X622824Y571083D01*
X622962Y571061D01*
X623098Y571035D01*
X623118Y571036D01*
X623138Y571033D01*
X623277Y571046D01*
X623415Y571055D01*
X623434Y571061D01*
X623455Y571063D01*
X623586Y571110D01*
X623718Y571153D01*
X623735Y571164D01*
X623754Y571170D01*
X623869Y571249D01*
X623986Y571323D01*
X624000Y571338D01*
X624017Y571349D01*
X624109Y571453D01*
X624204Y571555D01*
X624214Y571572D01*
X624227Y571587D01*
X624291Y571711D01*
X624358Y571833D01*
X624363Y571853D01*
X624372Y571871D01*
X624393Y571963D01*
X625255Y574046D01*
X625523Y574313D01*
X625608Y574423D01*
X625697Y574530D01*
X625706Y574549D01*
X625718Y574565D01*
X625773Y574692D01*
X625833Y574818D01*
X625836Y574838D01*
X625844Y574856D01*
X625866Y574994D01*
X625892Y575130D01*
X625891Y575150D01*
X625894Y575171D01*
X625881Y575310D01*
X625873Y575448D01*
X625866Y575467D01*
X625864Y575487D01*
X625817Y575619D01*
X625775Y575750D01*
X625764Y575767D01*
X625757Y575786D01*
X625679Y575901D01*
X625604Y576019D01*
X625590Y576033D01*
X625578Y576050D01*
X625474Y576141D01*
X625373Y576237D01*
X625355Y576247D01*
X625340Y576260D01*
X625216Y576323D01*
X625094Y576390D01*
X625075Y576395D01*
X625057Y576405D01*
X624921Y576435D01*
X624786Y576470D01*
X624758Y576472D01*
X624746Y576474D01*
X624726Y576474D01*
X624626Y576480D01*
X588645Y576480D01*
X588527Y576465D01*
X588408Y576458D01*
X588370Y576445D01*
X588329Y576440D01*
X588219Y576396D01*
X588106Y576360D01*
X588071Y576338D01*
X588034Y576323D01*
X587938Y576253D01*
X587837Y576190D01*
X587809Y576160D01*
X587776Y576136D01*
X587701Y576045D01*
X587619Y575958D01*
X587599Y575923D01*
X587574Y575891D01*
X587523Y575784D01*
X587465Y575680D01*
X587455Y575640D01*
X587438Y575604D01*
X587416Y575487D01*
X587386Y575372D01*
X587382Y575311D01*
X587378Y575291D01*
X587380Y575271D01*
X587376Y575211D01*
X587376Y529043D01*
X587379Y529013D01*
X587377Y528984D01*
X587399Y528856D01*
X587416Y528727D01*
X587426Y528700D01*
X587432Y528671D01*
X587485Y528552D01*
X587533Y528431D01*
X587550Y528408D01*
X587562Y528381D01*
X587643Y528279D01*
X587719Y528174D01*
X587742Y528155D01*
X587761Y528132D01*
X587864Y528054D01*
X587964Y527971D01*
X587991Y527959D01*
X588015Y527941D01*
X588159Y527870D01*
X588476Y527739D01*
X589969Y526246D01*
X590777Y524296D01*
X590777Y522184D01*
X589969Y520234D01*
X588476Y518741D01*
X588159Y518610D01*
X588134Y518595D01*
X588106Y518586D01*
X587996Y518517D01*
X587883Y518452D01*
X587862Y518432D01*
X587837Y518416D01*
X587748Y518321D01*
X587655Y518231D01*
X587639Y518206D01*
X587619Y518184D01*
X587556Y518071D01*
X587488Y517960D01*
X587480Y517932D01*
X587465Y517906D01*
X587433Y517780D01*
X587395Y517656D01*
X587393Y517627D01*
X587386Y517598D01*
X587376Y517437D01*
X587376Y433480D01*
X587393Y433342D01*
X587406Y433203D01*
X587413Y433184D01*
X587416Y433164D01*
X587467Y433035D01*
X587514Y432904D01*
X587525Y432887D01*
X587533Y432869D01*
X587614Y432756D01*
X587693Y432641D01*
X587708Y432628D01*
X587719Y432611D01*
X587827Y432522D01*
X587931Y432430D01*
X587949Y432421D01*
X587964Y432408D01*
X588090Y432349D01*
X588214Y432286D01*
X588234Y432281D01*
X588252Y432273D01*
X588388Y432247D01*
X588525Y432216D01*
X588545Y432217D01*
X588565Y432213D01*
X588703Y432222D01*
X588842Y432226D01*
X588862Y432232D01*
X588882Y432233D01*
X589014Y432276D01*
X589148Y432315D01*
X589165Y432325D01*
X589184Y432331D01*
X589302Y432405D01*
X589422Y432476D01*
X589425Y432479D01*
X591399Y433297D01*
X593511Y433297D01*
X595461Y432489D01*
X596954Y430996D01*
X597762Y429046D01*
X597762Y426978D01*
X597779Y426841D01*
X597792Y426702D01*
X597799Y426683D01*
X597802Y426663D01*
X597853Y426534D01*
X597900Y426403D01*
X597911Y426386D01*
X597919Y426367D01*
X598000Y426255D01*
X598078Y426140D01*
X598094Y426126D01*
X598105Y426110D01*
X598213Y426021D01*
X598317Y425929D01*
X598335Y425920D01*
X598350Y425907D01*
X598476Y425848D01*
X598600Y425784D01*
X598620Y425780D01*
X598638Y425771D01*
X598774Y425745D01*
X598910Y425715D01*
X598931Y425715D01*
X598950Y425712D01*
X599089Y425720D01*
X599228Y425724D01*
X599248Y425730D01*
X599268Y425731D01*
X599400Y425774D01*
X599534Y425813D01*
X599551Y425823D01*
X599570Y425829D01*
X599688Y425904D01*
X599808Y425974D01*
X599829Y425993D01*
X599839Y426000D01*
X599853Y426014D01*
X599928Y426081D01*
X626114Y452267D01*
X626199Y452376D01*
X626288Y452483D01*
X626297Y452502D01*
X626309Y452518D01*
X626365Y452646D01*
X626424Y452771D01*
X626427Y452791D01*
X626435Y452810D01*
X626457Y452948D01*
X626483Y453084D01*
X626482Y453104D01*
X626485Y453124D01*
X626472Y453263D01*
X626464Y453401D01*
X626457Y453420D01*
X626456Y453440D01*
X626408Y453572D01*
X626366Y453703D01*
X626355Y453721D01*
X626348Y453740D01*
X626270Y453855D01*
X626195Y453972D01*
X626181Y453986D01*
X626169Y454003D01*
X626065Y454095D01*
X625964Y454190D01*
X625946Y454200D01*
X625931Y454213D01*
X625807Y454276D01*
X625685Y454344D01*
X625666Y454349D01*
X625648Y454358D01*
X625512Y454388D01*
X625377Y454423D01*
X625349Y454425D01*
X625337Y454428D01*
X625317Y454427D01*
X625217Y454433D01*
X623149Y454433D01*
X621199Y455241D01*
X619706Y456734D01*
X618898Y458684D01*
X618898Y460796D01*
X619706Y462746D01*
X621199Y464239D01*
X623149Y465047D01*
X625261Y465047D01*
X627211Y464239D01*
X628704Y462746D01*
X629512Y460796D01*
X629512Y458728D01*
X629529Y458591D01*
X629542Y458452D01*
X629549Y458433D01*
X629552Y458413D01*
X629603Y458284D01*
X629650Y458153D01*
X629661Y458136D01*
X629669Y458117D01*
X629750Y458005D01*
X629828Y457890D01*
X629844Y457876D01*
X629855Y457860D01*
X629963Y457771D01*
X630067Y457679D01*
X630085Y457670D01*
X630100Y457657D01*
X630226Y457598D01*
X630350Y457534D01*
X630370Y457530D01*
X630388Y457521D01*
X630524Y457495D01*
X630660Y457465D01*
X630681Y457465D01*
X630700Y457462D01*
X630839Y457470D01*
X630978Y457474D01*
X630998Y457480D01*
X631018Y457481D01*
X631150Y457524D01*
X631284Y457563D01*
X631301Y457573D01*
X631320Y457579D01*
X631438Y457654D01*
X631558Y457724D01*
X631579Y457743D01*
X631589Y457750D01*
X631603Y457764D01*
X631678Y457831D01*
X649609Y475762D01*
X649694Y475871D01*
X649783Y475978D01*
X649792Y475997D01*
X649804Y476013D01*
X649860Y476141D01*
X649919Y476266D01*
X649922Y476286D01*
X649930Y476305D01*
X649952Y476443D01*
X649978Y476579D01*
X649977Y476599D01*
X649980Y476619D01*
X649967Y476758D01*
X649959Y476896D01*
X649952Y476915D01*
X649951Y476935D01*
X649903Y477067D01*
X649861Y477198D01*
X649850Y477216D01*
X649843Y477235D01*
X649765Y477350D01*
X649690Y477467D01*
X649676Y477481D01*
X649664Y477498D01*
X649560Y477590D01*
X649459Y477685D01*
X649441Y477695D01*
X649426Y477708D01*
X649302Y477771D01*
X649180Y477839D01*
X649161Y477844D01*
X649143Y477853D01*
X649007Y477883D01*
X648872Y477918D01*
X648844Y477920D01*
X648832Y477923D01*
X648812Y477922D01*
X648712Y477928D01*
X647279Y477928D01*
X645329Y478736D01*
X643836Y480229D01*
X643028Y482179D01*
X643028Y484291D01*
X643836Y486241D01*
X645329Y487734D01*
X647279Y488542D01*
X649391Y488542D01*
X651341Y487734D01*
X652834Y486241D01*
X653642Y484291D01*
X653642Y482858D01*
X653659Y482721D01*
X653672Y482582D01*
X653679Y482563D01*
X653682Y482543D01*
X653733Y482414D01*
X653780Y482283D01*
X653791Y482266D01*
X653799Y482247D01*
X653880Y482135D01*
X653958Y482020D01*
X653974Y482006D01*
X653985Y481990D01*
X654093Y481901D01*
X654197Y481809D01*
X654215Y481800D01*
X654230Y481787D01*
X654356Y481728D01*
X654480Y481664D01*
X654500Y481660D01*
X654518Y481651D01*
X654654Y481625D01*
X654790Y481595D01*
X654811Y481595D01*
X654830Y481592D01*
X654969Y481600D01*
X655108Y481604D01*
X655128Y481610D01*
X655148Y481611D01*
X655280Y481654D01*
X655414Y481693D01*
X655431Y481703D01*
X655450Y481709D01*
X655568Y481784D01*
X655688Y481854D01*
X655709Y481873D01*
X655719Y481880D01*
X655733Y481895D01*
X655808Y481961D01*
X664854Y491006D01*
X664914Y491084D01*
X664982Y491156D01*
X665011Y491209D01*
X665048Y491257D01*
X665088Y491348D01*
X665136Y491435D01*
X665151Y491493D01*
X665175Y491549D01*
X665190Y491647D01*
X665215Y491743D01*
X665221Y491843D01*
X665225Y491863D01*
X665223Y491875D01*
X665225Y491903D01*
X665225Y548484D01*
X665213Y548582D01*
X665210Y548681D01*
X665193Y548740D01*
X665185Y548800D01*
X665149Y548892D01*
X665121Y548987D01*
X665091Y549039D01*
X665068Y549095D01*
X665010Y549175D01*
X664960Y549261D01*
X664894Y549336D01*
X664882Y549353D01*
X664872Y549360D01*
X664854Y549382D01*
X663521Y550714D01*
X662713Y552664D01*
X662713Y554776D01*
X663521Y556726D01*
X665014Y558219D01*
X666964Y559027D01*
X669076Y559027D01*
X671026Y558219D01*
X672519Y556726D01*
X673327Y554776D01*
X673327Y552664D01*
X672519Y550714D01*
X671186Y549382D01*
X671126Y549303D01*
X671058Y549231D01*
X671029Y549178D01*
X670992Y549130D01*
X670952Y549039D01*
X670904Y548953D01*
X670889Y548894D01*
X670865Y548838D01*
X670850Y548741D01*
X670825Y548645D01*
X670819Y548545D01*
X670815Y548524D01*
X670817Y548512D01*
X670815Y548484D01*
X670815Y489062D01*
X587748Y405995D01*
X587687Y405917D01*
X587619Y405845D01*
X587590Y405792D01*
X587553Y405744D01*
X587513Y405653D01*
X587465Y405566D01*
X587450Y405508D01*
X587426Y405452D01*
X587411Y405354D01*
X587386Y405258D01*
X587380Y405158D01*
X587376Y405138D01*
X587378Y405126D01*
X587376Y405098D01*
X587376Y285749D01*
X306705Y285749D01*
X306587Y285734D01*
X306468Y285727D01*
X306430Y285714D01*
X306389Y285709D01*
X306279Y285666D01*
X306166Y285629D01*
X306131Y285607D01*
X306094Y285592D01*
X305998Y285523D01*
X305897Y285459D01*
X305869Y285429D01*
X305836Y285406D01*
X305761Y285314D01*
X305679Y285227D01*
X305659Y285192D01*
X305634Y285161D01*
X305583Y285053D01*
X305525Y284949D01*
X305515Y284909D01*
X305498Y284873D01*
X305476Y284756D01*
X305446Y284641D01*
X305442Y284581D01*
X305438Y284561D01*
X305440Y284540D01*
X305436Y284480D01*
X305436Y192405D01*
X305451Y192287D01*
X305458Y192168D01*
X305471Y192130D01*
X305476Y192089D01*
X305519Y191979D01*
X305556Y191866D01*
X305578Y191831D01*
X305593Y191794D01*
X305663Y191698D01*
X305726Y191597D01*
X305756Y191569D01*
X305779Y191536D01*
X305871Y191461D01*
X305958Y191379D01*
X305993Y191359D01*
X306024Y191334D01*
X306132Y191283D01*
X306236Y191225D01*
X306276Y191215D01*
X306312Y191198D01*
X306429Y191176D01*
X306544Y191146D01*
X306605Y191142D01*
X306625Y191138D01*
X306645Y191140D01*
X306705Y191136D01*
X559436Y191136D01*
X559436Y13462D01*
X559451Y13344D01*
X559458Y13225D01*
X559471Y13187D01*
X559476Y13146D01*
X559519Y13036D01*
X559556Y12923D01*
X559578Y12888D01*
X559593Y12851D01*
X559663Y12755D01*
X559726Y12654D01*
X559756Y12626D01*
X559779Y12593D01*
X559871Y12517D01*
X559958Y12436D01*
X559993Y12416D01*
X560024Y12391D01*
X560132Y12340D01*
X560236Y12282D01*
X560276Y12272D01*
X560312Y12255D01*
X560429Y12233D01*
X560544Y12203D01*
X560605Y12199D01*
X560625Y12195D01*
X560645Y12197D01*
X560705Y12193D01*
X1637538Y12193D01*
X1637656Y12208D01*
G37*
G36*
X552548Y294018D02*
X552548Y294018D01*
X552647Y294021D01*
X552705Y294038D01*
X552766Y294046D01*
X552858Y294082D01*
X552953Y294110D01*
X553005Y294140D01*
X553061Y294163D01*
X553141Y294221D01*
X553227Y294271D01*
X553302Y294337D01*
X553319Y294349D01*
X553326Y294359D01*
X553348Y294378D01*
X553983Y295013D01*
X554043Y295091D01*
X554111Y295163D01*
X554140Y295216D01*
X554177Y295264D01*
X554217Y295355D01*
X554265Y295441D01*
X554280Y295500D01*
X554304Y295556D01*
X554319Y295654D01*
X554344Y295749D01*
X554350Y295849D01*
X554354Y295870D01*
X554352Y295882D01*
X554354Y295910D01*
X554354Y502941D01*
X554348Y502991D01*
X554350Y503040D01*
X554328Y503148D01*
X554314Y503257D01*
X554296Y503303D01*
X554286Y503352D01*
X554238Y503450D01*
X554197Y503553D01*
X554168Y503593D01*
X554146Y503637D01*
X554075Y503721D01*
X554011Y503810D01*
X553972Y503842D01*
X553940Y503879D01*
X553850Y503943D01*
X553766Y504013D01*
X553721Y504034D01*
X553680Y504062D01*
X553577Y504101D01*
X553478Y504148D01*
X553429Y504158D01*
X553383Y504175D01*
X553273Y504187D01*
X553166Y504208D01*
X553116Y504205D01*
X553067Y504210D01*
X552958Y504195D01*
X552848Y504188D01*
X552801Y504173D01*
X552752Y504166D01*
X552599Y504114D01*
X552236Y503963D01*
X550124Y503963D01*
X548174Y504771D01*
X546681Y506264D01*
X545873Y508214D01*
X545873Y510326D01*
X546681Y512276D01*
X548174Y513769D01*
X550124Y514577D01*
X552236Y514577D01*
X552599Y514426D01*
X552647Y514413D01*
X552692Y514392D01*
X552800Y514371D01*
X552906Y514342D01*
X552956Y514341D01*
X553005Y514332D01*
X553114Y514339D01*
X553224Y514337D01*
X553272Y514349D01*
X553322Y514352D01*
X553426Y514386D01*
X553533Y514411D01*
X553577Y514434D01*
X553624Y514450D01*
X553717Y514509D01*
X553814Y514560D01*
X553851Y514593D01*
X553893Y514620D01*
X553968Y514700D01*
X554050Y514774D01*
X554077Y514815D01*
X554111Y514852D01*
X554164Y514948D01*
X554224Y515040D01*
X554241Y515087D01*
X554265Y515130D01*
X554292Y515236D01*
X554328Y515340D01*
X554332Y515390D01*
X554344Y515438D01*
X554354Y515599D01*
X554354Y575211D01*
X554339Y575329D01*
X554332Y575448D01*
X554319Y575486D01*
X554314Y575526D01*
X554271Y575637D01*
X554234Y575750D01*
X554212Y575785D01*
X554197Y575822D01*
X554128Y575918D01*
X554064Y576019D01*
X554034Y576047D01*
X554011Y576079D01*
X553919Y576155D01*
X553832Y576237D01*
X553797Y576256D01*
X553766Y576282D01*
X553658Y576333D01*
X553554Y576390D01*
X553514Y576401D01*
X553478Y576418D01*
X553361Y576440D01*
X553246Y576470D01*
X553186Y576474D01*
X553166Y576478D01*
X553145Y576476D01*
X553085Y576480D01*
X550556Y576480D01*
X550458Y576468D01*
X550359Y576465D01*
X550301Y576448D01*
X550240Y576440D01*
X550148Y576404D01*
X550053Y576376D01*
X550001Y576346D01*
X549945Y576323D01*
X549865Y576265D01*
X549779Y576215D01*
X549704Y576148D01*
X549687Y576136D01*
X549680Y576127D01*
X549659Y576108D01*
X548380Y574829D01*
X546429Y574022D01*
X544318Y574022D01*
X542368Y574829D01*
X540875Y576322D01*
X540067Y578273D01*
X540067Y580384D01*
X540875Y582334D01*
X542368Y583827D01*
X544318Y584635D01*
X546429Y584635D01*
X548380Y583827D01*
X549765Y582441D01*
X549844Y582381D01*
X549916Y582313D01*
X549969Y582284D01*
X550017Y582246D01*
X550108Y582207D01*
X550194Y582159D01*
X550253Y582144D01*
X550308Y582120D01*
X550406Y582105D01*
X550502Y582080D01*
X550602Y582073D01*
X550623Y582070D01*
X550635Y582071D01*
X550663Y582070D01*
X553085Y582070D01*
X553203Y582085D01*
X553322Y582092D01*
X553360Y582104D01*
X553401Y582109D01*
X553511Y582153D01*
X553624Y582190D01*
X553659Y582212D01*
X553696Y582226D01*
X553792Y582296D01*
X553893Y582360D01*
X553921Y582390D01*
X553954Y582413D01*
X554030Y582505D01*
X554111Y582592D01*
X554131Y582627D01*
X554156Y582658D01*
X554207Y582766D01*
X554265Y582870D01*
X554275Y582909D01*
X554292Y582946D01*
X554314Y583063D01*
X554344Y583178D01*
X554348Y583238D01*
X554352Y583258D01*
X554350Y583279D01*
X554354Y583339D01*
X554354Y617856D01*
X581025Y617856D01*
X581143Y617871D01*
X581262Y617878D01*
X581300Y617891D01*
X581341Y617896D01*
X581451Y617939D01*
X581564Y617976D01*
X581599Y617998D01*
X581636Y618013D01*
X581732Y618083D01*
X581833Y618146D01*
X581861Y618176D01*
X581894Y618199D01*
X581970Y618291D01*
X582051Y618378D01*
X582071Y618413D01*
X582096Y618444D01*
X582147Y618552D01*
X582205Y618656D01*
X582215Y618696D01*
X582232Y618732D01*
X582254Y618849D01*
X582284Y618964D01*
X582288Y619025D01*
X582292Y619045D01*
X582290Y619065D01*
X582294Y619125D01*
X582294Y661035D01*
X582279Y661153D01*
X582272Y661272D01*
X582259Y661310D01*
X582254Y661351D01*
X582211Y661461D01*
X582174Y661574D01*
X582152Y661609D01*
X582137Y661646D01*
X582068Y661742D01*
X582004Y661843D01*
X581974Y661871D01*
X581951Y661904D01*
X581859Y661980D01*
X581772Y662061D01*
X581737Y662081D01*
X581706Y662106D01*
X581598Y662157D01*
X581494Y662215D01*
X581454Y662225D01*
X581418Y662242D01*
X581301Y662264D01*
X581186Y662294D01*
X581126Y662298D01*
X581106Y662302D01*
X581085Y662300D01*
X581025Y662304D01*
X464987Y662304D01*
X464978Y662303D01*
X464969Y662304D01*
X464820Y662283D01*
X464672Y662264D01*
X464663Y662261D01*
X464654Y662260D01*
X464501Y662208D01*
X463634Y661848D01*
X460926Y661848D01*
X460059Y662208D01*
X460050Y662210D01*
X460041Y662215D01*
X459897Y662252D01*
X459752Y662292D01*
X459742Y662292D01*
X459733Y662294D01*
X459573Y662304D01*
X426085Y662304D01*
X425967Y662289D01*
X425848Y662282D01*
X425810Y662269D01*
X425769Y662264D01*
X425659Y662221D01*
X425546Y662184D01*
X425511Y662162D01*
X425474Y662147D01*
X425378Y662078D01*
X425277Y662014D01*
X425249Y661984D01*
X425216Y661961D01*
X425141Y661869D01*
X425059Y661782D01*
X425039Y661747D01*
X425014Y661716D01*
X424963Y661608D01*
X424905Y661504D01*
X424895Y661464D01*
X424878Y661428D01*
X424856Y661311D01*
X424826Y661196D01*
X424822Y661136D01*
X424818Y661116D01*
X424820Y661095D01*
X424816Y661035D01*
X424816Y295275D01*
X424831Y295157D01*
X424838Y295038D01*
X424851Y295000D01*
X424856Y294959D01*
X424899Y294849D01*
X424936Y294736D01*
X424958Y294701D01*
X424973Y294664D01*
X425043Y294568D01*
X425106Y294467D01*
X425136Y294439D01*
X425159Y294406D01*
X425251Y294331D01*
X425338Y294249D01*
X425373Y294229D01*
X425404Y294204D01*
X425512Y294153D01*
X425616Y294095D01*
X425656Y294085D01*
X425692Y294068D01*
X425809Y294046D01*
X425924Y294016D01*
X425985Y294012D01*
X426005Y294008D01*
X426025Y294010D01*
X426085Y294006D01*
X552450Y294006D01*
X552548Y294018D01*
G37*
G36*
X407788Y313706D02*
X407788Y313706D01*
X407907Y313713D01*
X407945Y313726D01*
X407986Y313731D01*
X408096Y313774D01*
X408209Y313811D01*
X408244Y313833D01*
X408281Y313848D01*
X408377Y313918D01*
X408478Y313981D01*
X408506Y314011D01*
X408539Y314034D01*
X408615Y314126D01*
X408696Y314213D01*
X408716Y314248D01*
X408741Y314279D01*
X408792Y314387D01*
X408850Y314491D01*
X408860Y314531D01*
X408877Y314567D01*
X408899Y314684D01*
X408929Y314799D01*
X408933Y314860D01*
X408937Y314880D01*
X408935Y314900D01*
X408939Y314960D01*
X408939Y651510D01*
X408927Y651608D01*
X408924Y651707D01*
X408907Y651765D01*
X408899Y651826D01*
X408863Y651918D01*
X408835Y652013D01*
X408805Y652065D01*
X408782Y652121D01*
X408724Y652201D01*
X408674Y652287D01*
X408608Y652362D01*
X408596Y652379D01*
X408586Y652386D01*
X408568Y652408D01*
X383803Y677173D01*
X383708Y677246D01*
X383619Y677324D01*
X383583Y677343D01*
X383551Y677367D01*
X383442Y677415D01*
X383336Y677469D01*
X383297Y677478D01*
X383259Y677494D01*
X383142Y677512D01*
X383026Y677539D01*
X382985Y677537D01*
X382945Y677544D01*
X382827Y677532D01*
X382708Y677529D01*
X382669Y677518D01*
X382629Y677514D01*
X382516Y677474D01*
X382402Y677440D01*
X382368Y677420D01*
X382329Y677406D01*
X382231Y677339D01*
X382128Y677279D01*
X382083Y677239D01*
X382066Y677228D01*
X382053Y677212D01*
X382008Y677173D01*
X301998Y597163D01*
X301937Y597084D01*
X301869Y597012D01*
X301840Y596959D01*
X301803Y596911D01*
X301763Y596820D01*
X301715Y596734D01*
X301700Y596675D01*
X301676Y596619D01*
X301661Y596521D01*
X301636Y596426D01*
X301630Y596326D01*
X301626Y596305D01*
X301628Y596293D01*
X301626Y596265D01*
X301626Y314960D01*
X301641Y314842D01*
X301648Y314723D01*
X301661Y314685D01*
X301666Y314644D01*
X301709Y314534D01*
X301746Y314421D01*
X301768Y314386D01*
X301783Y314349D01*
X301853Y314253D01*
X301916Y314152D01*
X301946Y314124D01*
X301969Y314091D01*
X302061Y314016D01*
X302148Y313934D01*
X302183Y313914D01*
X302214Y313889D01*
X302322Y313838D01*
X302426Y313780D01*
X302466Y313770D01*
X302502Y313753D01*
X302619Y313731D01*
X302734Y313701D01*
X302795Y313697D01*
X302815Y313693D01*
X302835Y313695D01*
X302895Y313691D01*
X407670Y313691D01*
X407788Y313706D01*
G37*
%LPC*%
G36*
X1569593Y884465D02*
X1569593Y884465D01*
X1563492Y886992D01*
X1558822Y891662D01*
X1556295Y897763D01*
X1556295Y904367D01*
X1558822Y910468D01*
X1563492Y915138D01*
X1569593Y917665D01*
X1576197Y917665D01*
X1582298Y915138D01*
X1586968Y910468D01*
X1589495Y904367D01*
X1589495Y897763D01*
X1586968Y891662D01*
X1582298Y886992D01*
X1576197Y884465D01*
X1569593Y884465D01*
G37*
%LPD*%
%LPC*%
G36*
X1569593Y986065D02*
X1569593Y986065D01*
X1563492Y988592D01*
X1558822Y993262D01*
X1556295Y999363D01*
X1556295Y1005967D01*
X1558822Y1012068D01*
X1563492Y1016738D01*
X1569593Y1019265D01*
X1576197Y1019265D01*
X1582298Y1016738D01*
X1586968Y1012068D01*
X1589495Y1005967D01*
X1589495Y999363D01*
X1586968Y993262D01*
X1582298Y988592D01*
X1576197Y986065D01*
X1569593Y986065D01*
G37*
%LPD*%
%LPC*%
G36*
X1569593Y478700D02*
X1569593Y478700D01*
X1563492Y481227D01*
X1558822Y485897D01*
X1556295Y491998D01*
X1556295Y498602D01*
X1558822Y504703D01*
X1563492Y509373D01*
X1569593Y511900D01*
X1576197Y511900D01*
X1582298Y509373D01*
X1586968Y504703D01*
X1589495Y498602D01*
X1589495Y491998D01*
X1586968Y485897D01*
X1582298Y481227D01*
X1576197Y478700D01*
X1569593Y478700D01*
G37*
%LPD*%
%LPC*%
G36*
X1569593Y630465D02*
X1569593Y630465D01*
X1563492Y632992D01*
X1558822Y637662D01*
X1556295Y643763D01*
X1556295Y650367D01*
X1558822Y656468D01*
X1563492Y661138D01*
X1569593Y663665D01*
X1576197Y663665D01*
X1582298Y661138D01*
X1586968Y656468D01*
X1589495Y650367D01*
X1589495Y643763D01*
X1586968Y637662D01*
X1582298Y632992D01*
X1576197Y630465D01*
X1569593Y630465D01*
G37*
%LPD*%
%LPC*%
G36*
X1569593Y124135D02*
X1569593Y124135D01*
X1563492Y126662D01*
X1558822Y131332D01*
X1556295Y137433D01*
X1556295Y144037D01*
X1558822Y150138D01*
X1563492Y154808D01*
X1569593Y157335D01*
X1576197Y157335D01*
X1582298Y154808D01*
X1586968Y150138D01*
X1589495Y144037D01*
X1589495Y137433D01*
X1586968Y131332D01*
X1582298Y126662D01*
X1576197Y124135D01*
X1569593Y124135D01*
G37*
%LPD*%
%LPC*%
G36*
X1569593Y225735D02*
X1569593Y225735D01*
X1563492Y228262D01*
X1558822Y232932D01*
X1556295Y239033D01*
X1556295Y245637D01*
X1558822Y251738D01*
X1563492Y256408D01*
X1569593Y258935D01*
X1576197Y258935D01*
X1582298Y256408D01*
X1586968Y251738D01*
X1589495Y245637D01*
X1589495Y239033D01*
X1586968Y232932D01*
X1582298Y228262D01*
X1576197Y225735D01*
X1569593Y225735D01*
G37*
%LPD*%
%LPC*%
G36*
X1569593Y732065D02*
X1569593Y732065D01*
X1563492Y734592D01*
X1558822Y739262D01*
X1556295Y745363D01*
X1556295Y751967D01*
X1558822Y758068D01*
X1563492Y762738D01*
X1569593Y765265D01*
X1576197Y765265D01*
X1582298Y762738D01*
X1586968Y758068D01*
X1589495Y751967D01*
X1589495Y745363D01*
X1586968Y739262D01*
X1582298Y734592D01*
X1576197Y732065D01*
X1569593Y732065D01*
G37*
%LPD*%
%LPC*%
G36*
X1569593Y377100D02*
X1569593Y377100D01*
X1563492Y379627D01*
X1558822Y384297D01*
X1556295Y390398D01*
X1556295Y397002D01*
X1558822Y403103D01*
X1563492Y407773D01*
X1569593Y410300D01*
X1576197Y410300D01*
X1582298Y407773D01*
X1586968Y403103D01*
X1589495Y397002D01*
X1589495Y390398D01*
X1586968Y384297D01*
X1582298Y379627D01*
X1576197Y377100D01*
X1569593Y377100D01*
G37*
%LPD*%
%LPC*%
G36*
X920011Y365823D02*
X920011Y365823D01*
X916300Y367360D01*
X913460Y370200D01*
X911923Y373911D01*
X911923Y377929D01*
X913460Y381640D01*
X916300Y384480D01*
X920011Y386017D01*
X924029Y386017D01*
X927740Y384480D01*
X930580Y381640D01*
X932117Y377929D01*
X932117Y373911D01*
X930580Y370200D01*
X927740Y367360D01*
X924029Y365823D01*
X920011Y365823D01*
G37*
%LPD*%
%LPC*%
G36*
X926361Y1047813D02*
X926361Y1047813D01*
X922650Y1049350D01*
X919810Y1052190D01*
X918273Y1055901D01*
X918273Y1059919D01*
X919810Y1063630D01*
X922650Y1066470D01*
X926361Y1068007D01*
X930379Y1068007D01*
X934090Y1066470D01*
X936930Y1063630D01*
X938467Y1059919D01*
X938467Y1055901D01*
X936930Y1052190D01*
X934090Y1049350D01*
X930379Y1047813D01*
X926361Y1047813D01*
G37*
%LPD*%
%LPC*%
G36*
X978431Y340423D02*
X978431Y340423D01*
X974720Y341960D01*
X971880Y344800D01*
X970343Y348511D01*
X970343Y352529D01*
X971880Y356240D01*
X974720Y359080D01*
X978431Y360617D01*
X982449Y360617D01*
X986160Y359080D01*
X989000Y356240D01*
X990537Y352529D01*
X990537Y348511D01*
X989000Y344800D01*
X986160Y341960D01*
X982449Y340423D01*
X978431Y340423D01*
G37*
%LPD*%
%LPC*%
G36*
X920011Y340423D02*
X920011Y340423D01*
X916300Y341960D01*
X913460Y344800D01*
X911923Y348511D01*
X911923Y352529D01*
X913460Y356240D01*
X916300Y359080D01*
X920011Y360617D01*
X924029Y360617D01*
X927740Y359080D01*
X930580Y356240D01*
X932117Y352529D01*
X932117Y348511D01*
X930580Y344800D01*
X927740Y341960D01*
X924029Y340423D01*
X920011Y340423D01*
G37*
%LPD*%
%LPC*%
G36*
X978431Y172783D02*
X978431Y172783D01*
X974720Y174320D01*
X971880Y177160D01*
X970343Y180871D01*
X970343Y184889D01*
X971880Y188600D01*
X974720Y191440D01*
X978431Y192977D01*
X982449Y192977D01*
X986160Y191440D01*
X989000Y188600D01*
X990537Y184889D01*
X990537Y180871D01*
X989000Y177160D01*
X986160Y174320D01*
X982449Y172783D01*
X978431Y172783D01*
G37*
%LPD*%
%LPC*%
G36*
X1450871Y231603D02*
X1450871Y231603D01*
X1447160Y233140D01*
X1444320Y235980D01*
X1442783Y239691D01*
X1442783Y243709D01*
X1444320Y247420D01*
X1447160Y250260D01*
X1450871Y251797D01*
X1454889Y251797D01*
X1458600Y250260D01*
X1461440Y247420D01*
X1462977Y243709D01*
X1462977Y239691D01*
X1461440Y235980D01*
X1458600Y233140D01*
X1454889Y231603D01*
X1450871Y231603D01*
G37*
%LPD*%
%LPC*%
G36*
X979701Y1022413D02*
X979701Y1022413D01*
X975990Y1023950D01*
X973150Y1026790D01*
X971613Y1030501D01*
X971613Y1034519D01*
X973150Y1038230D01*
X975990Y1041070D01*
X979701Y1042607D01*
X983719Y1042607D01*
X987430Y1041070D01*
X990270Y1038230D01*
X991807Y1034519D01*
X991807Y1030501D01*
X990270Y1026790D01*
X987430Y1023950D01*
X983719Y1022413D01*
X979701Y1022413D01*
G37*
%LPD*%
%LPC*%
G36*
X920011Y195643D02*
X920011Y195643D01*
X916300Y197180D01*
X913460Y200020D01*
X911923Y203731D01*
X911923Y207749D01*
X913460Y211460D01*
X916300Y214300D01*
X920011Y215837D01*
X924029Y215837D01*
X927740Y214300D01*
X930580Y211460D01*
X932117Y207749D01*
X932117Y203731D01*
X930580Y200020D01*
X927740Y197180D01*
X924029Y195643D01*
X920011Y195643D01*
G37*
%LPD*%
%LPC*%
G36*
X926361Y603313D02*
X926361Y603313D01*
X922650Y604850D01*
X919810Y607690D01*
X918273Y611401D01*
X918273Y615419D01*
X919810Y619130D01*
X922650Y621970D01*
X926361Y623507D01*
X930379Y623507D01*
X934090Y621970D01*
X936930Y619130D01*
X938467Y615419D01*
X938467Y611401D01*
X936930Y607690D01*
X934090Y604850D01*
X930379Y603313D01*
X926361Y603313D01*
G37*
%LPD*%
%LPC*%
G36*
X1455951Y990663D02*
X1455951Y990663D01*
X1452240Y992200D01*
X1449400Y995040D01*
X1447863Y998751D01*
X1447863Y1002769D01*
X1449400Y1006480D01*
X1452240Y1009320D01*
X1455951Y1010857D01*
X1459969Y1010857D01*
X1463680Y1009320D01*
X1466520Y1006480D01*
X1468057Y1002769D01*
X1468057Y998751D01*
X1466520Y995040D01*
X1463680Y992200D01*
X1459969Y990663D01*
X1455951Y990663D01*
G37*
%LPD*%
%LPC*%
G36*
X920011Y170243D02*
X920011Y170243D01*
X916300Y171780D01*
X913460Y174620D01*
X911923Y178331D01*
X911923Y182349D01*
X913460Y186060D01*
X916300Y188900D01*
X920011Y190437D01*
X924029Y190437D01*
X927740Y188900D01*
X930580Y186060D01*
X932117Y182349D01*
X932117Y178331D01*
X930580Y174620D01*
X927740Y171780D01*
X924029Y170243D01*
X920011Y170243D01*
G37*
%LPD*%
%LPC*%
G36*
X926361Y628713D02*
X926361Y628713D01*
X922650Y630250D01*
X919810Y633090D01*
X918273Y636801D01*
X918273Y640819D01*
X919810Y644530D01*
X922650Y647370D01*
X926361Y648907D01*
X930379Y648907D01*
X934090Y647370D01*
X936930Y644530D01*
X938467Y640819D01*
X938467Y636801D01*
X936930Y633090D01*
X934090Y630250D01*
X930379Y628713D01*
X926361Y628713D01*
G37*
%LPD*%
%LPC*%
G36*
X916201Y85153D02*
X916201Y85153D01*
X912490Y86690D01*
X909650Y89530D01*
X908113Y93241D01*
X908113Y97259D01*
X909650Y100970D01*
X912490Y103810D01*
X916201Y105347D01*
X920219Y105347D01*
X923930Y103810D01*
X926770Y100970D01*
X928307Y97259D01*
X928307Y93241D01*
X926770Y89530D01*
X923930Y86690D01*
X920219Y85153D01*
X916201Y85153D01*
G37*
%LPD*%
%LPC*%
G36*
X978431Y83883D02*
X978431Y83883D01*
X974720Y85420D01*
X971880Y88260D01*
X970343Y91971D01*
X970343Y95989D01*
X971880Y99700D01*
X974720Y102540D01*
X978431Y104077D01*
X982449Y104077D01*
X986160Y102540D01*
X989000Y99700D01*
X990537Y95989D01*
X990537Y91971D01*
X989000Y88260D01*
X986160Y85420D01*
X982449Y83883D01*
X978431Y83883D01*
G37*
%LPD*%
%LPC*%
G36*
X926361Y1022413D02*
X926361Y1022413D01*
X922650Y1023950D01*
X919810Y1026790D01*
X918273Y1030501D01*
X918273Y1034519D01*
X919810Y1038230D01*
X922650Y1041070D01*
X926361Y1042607D01*
X930379Y1042607D01*
X934090Y1041070D01*
X936930Y1038230D01*
X938467Y1034519D01*
X938467Y1030501D01*
X936930Y1026790D01*
X934090Y1023950D01*
X930379Y1022413D01*
X926361Y1022413D01*
G37*
%LPD*%
%LPC*%
G36*
X925091Y744283D02*
X925091Y744283D01*
X921380Y745820D01*
X918540Y748660D01*
X917003Y752371D01*
X917003Y756389D01*
X918540Y760100D01*
X921380Y762940D01*
X925091Y764477D01*
X929109Y764477D01*
X932820Y762940D01*
X935660Y760100D01*
X937197Y756389D01*
X937197Y752371D01*
X935660Y748660D01*
X932820Y745820D01*
X929109Y744283D01*
X925091Y744283D01*
G37*
%LPD*%
%LPC*%
G36*
X1452141Y739203D02*
X1452141Y739203D01*
X1448430Y740740D01*
X1445590Y743580D01*
X1444053Y747291D01*
X1444053Y751309D01*
X1445590Y755020D01*
X1448430Y757860D01*
X1452141Y759397D01*
X1456159Y759397D01*
X1459870Y757860D01*
X1462710Y755020D01*
X1464247Y751309D01*
X1464247Y747291D01*
X1462710Y743580D01*
X1459870Y740740D01*
X1456159Y739203D01*
X1452141Y739203D01*
G37*
%LPD*%
%LPC*%
G36*
X916201Y59753D02*
X916201Y59753D01*
X912490Y61290D01*
X909650Y64130D01*
X908113Y67841D01*
X908113Y71859D01*
X909650Y75570D01*
X912490Y78410D01*
X916201Y79947D01*
X920219Y79947D01*
X923930Y78410D01*
X926770Y75570D01*
X928307Y71859D01*
X928307Y67841D01*
X926770Y64130D01*
X923930Y61290D01*
X920219Y59753D01*
X916201Y59753D01*
G37*
%LPD*%
%LPC*%
G36*
X980971Y602043D02*
X980971Y602043D01*
X977260Y603580D01*
X974420Y606420D01*
X972883Y610131D01*
X972883Y614149D01*
X974420Y617860D01*
X977260Y620700D01*
X980971Y622237D01*
X984989Y622237D01*
X988700Y620700D01*
X991540Y617860D01*
X993077Y614149D01*
X993077Y610131D01*
X991540Y606420D01*
X988700Y603580D01*
X984989Y602043D01*
X980971Y602043D01*
G37*
%LPD*%
%LPC*%
G36*
X977161Y718883D02*
X977161Y718883D01*
X973450Y720420D01*
X970610Y723260D01*
X969073Y726971D01*
X969073Y730989D01*
X970610Y734700D01*
X973450Y737540D01*
X977161Y739077D01*
X981179Y739077D01*
X984890Y737540D01*
X987730Y734700D01*
X989267Y730989D01*
X989267Y726971D01*
X987730Y723260D01*
X984890Y720420D01*
X981179Y718883D01*
X977161Y718883D01*
G37*
%LPD*%
%LPC*%
G36*
X928901Y920813D02*
X928901Y920813D01*
X925190Y922350D01*
X922350Y925190D01*
X920813Y928901D01*
X920813Y932919D01*
X922350Y936630D01*
X925190Y939470D01*
X928901Y941007D01*
X932919Y941007D01*
X936630Y939470D01*
X939470Y936630D01*
X941007Y932919D01*
X941007Y928901D01*
X939470Y925190D01*
X936630Y922350D01*
X932919Y920813D01*
X928901Y920813D01*
G37*
%LPD*%
%LPC*%
G36*
X979701Y892873D02*
X979701Y892873D01*
X975990Y894410D01*
X973150Y897250D01*
X971613Y900961D01*
X971613Y904979D01*
X973150Y908690D01*
X975990Y911530D01*
X979701Y913067D01*
X983719Y913067D01*
X987430Y911530D01*
X990270Y908690D01*
X991807Y904979D01*
X991807Y900961D01*
X990270Y897250D01*
X987430Y894410D01*
X983719Y892873D01*
X979701Y892873D01*
G37*
%LPD*%
%LPC*%
G36*
X979701Y918273D02*
X979701Y918273D01*
X975990Y919810D01*
X973150Y922650D01*
X971613Y926361D01*
X971613Y930379D01*
X973150Y934090D01*
X975990Y936930D01*
X979701Y938467D01*
X983719Y938467D01*
X987430Y936930D01*
X990270Y934090D01*
X991807Y930379D01*
X991807Y926361D01*
X990270Y922650D01*
X987430Y919810D01*
X983719Y918273D01*
X979701Y918273D01*
G37*
%LPD*%
%LPC*%
G36*
X925091Y718883D02*
X925091Y718883D01*
X921380Y720420D01*
X918540Y723260D01*
X917003Y726971D01*
X917003Y730989D01*
X918540Y734700D01*
X921380Y737540D01*
X925091Y739077D01*
X929109Y739077D01*
X932820Y737540D01*
X935660Y734700D01*
X937197Y730989D01*
X937197Y726971D01*
X935660Y723260D01*
X932820Y720420D01*
X929109Y718883D01*
X925091Y718883D01*
G37*
%LPD*%
%LPC*%
G36*
X980971Y627443D02*
X980971Y627443D01*
X977260Y628980D01*
X974420Y631820D01*
X972883Y635531D01*
X972883Y639549D01*
X974420Y643260D01*
X977260Y646100D01*
X980971Y647637D01*
X984989Y647637D01*
X988700Y646100D01*
X991540Y643260D01*
X993077Y639549D01*
X993077Y635531D01*
X991540Y631820D01*
X988700Y628980D01*
X984989Y627443D01*
X980971Y627443D01*
G37*
%LPD*%
%LPC*%
G36*
X928901Y895413D02*
X928901Y895413D01*
X925190Y896950D01*
X922350Y899790D01*
X920813Y903501D01*
X920813Y907519D01*
X922350Y911230D01*
X925190Y914070D01*
X928901Y915607D01*
X932919Y915607D01*
X936630Y914070D01*
X939470Y911230D01*
X941007Y907519D01*
X941007Y903501D01*
X939470Y899790D01*
X936630Y896950D01*
X932919Y895413D01*
X928901Y895413D01*
G37*
%LPD*%
%LPC*%
G36*
X978431Y58483D02*
X978431Y58483D01*
X974720Y60020D01*
X971880Y62860D01*
X970343Y66571D01*
X970343Y70589D01*
X971880Y74300D01*
X974720Y77140D01*
X978431Y78677D01*
X982449Y78677D01*
X986160Y77140D01*
X989000Y74300D01*
X990537Y70589D01*
X990537Y66571D01*
X989000Y62860D01*
X986160Y60020D01*
X982449Y58483D01*
X978431Y58483D01*
G37*
%LPD*%
%LPC*%
G36*
X920011Y473773D02*
X920011Y473773D01*
X916300Y475310D01*
X913460Y478150D01*
X911923Y481861D01*
X911923Y485879D01*
X913460Y489590D01*
X916300Y492430D01*
X920011Y493967D01*
X924029Y493967D01*
X927740Y492430D01*
X930580Y489590D01*
X932117Y485879D01*
X932117Y481861D01*
X930580Y478150D01*
X927740Y475310D01*
X924029Y473773D01*
X920011Y473773D01*
G37*
%LPD*%
%LPC*%
G36*
X1449601Y462343D02*
X1449601Y462343D01*
X1445890Y463880D01*
X1443050Y466720D01*
X1441513Y470431D01*
X1441513Y474449D01*
X1443050Y478160D01*
X1445890Y481000D01*
X1449601Y482537D01*
X1453619Y482537D01*
X1457330Y481000D01*
X1460170Y478160D01*
X1461707Y474449D01*
X1461707Y470431D01*
X1460170Y466720D01*
X1457330Y463880D01*
X1453619Y462343D01*
X1449601Y462343D01*
G37*
%LPD*%
%LPC*%
G36*
X975891Y448373D02*
X975891Y448373D01*
X972180Y449910D01*
X969340Y452750D01*
X967803Y456461D01*
X967803Y460479D01*
X969340Y464190D01*
X972180Y467030D01*
X975891Y468567D01*
X979909Y468567D01*
X983620Y467030D01*
X986460Y464190D01*
X987997Y460479D01*
X987997Y456461D01*
X986460Y452750D01*
X983620Y449910D01*
X979909Y448373D01*
X975891Y448373D01*
G37*
%LPD*%
%LPC*%
G36*
X920011Y448373D02*
X920011Y448373D01*
X916300Y449910D01*
X913460Y452750D01*
X911923Y456461D01*
X911923Y460479D01*
X913460Y464190D01*
X916300Y467030D01*
X920011Y468567D01*
X924029Y468567D01*
X927740Y467030D01*
X930580Y464190D01*
X932117Y460479D01*
X932117Y456461D01*
X930580Y452750D01*
X927740Y449910D01*
X924029Y448373D01*
X920011Y448373D01*
G37*
%LPD*%
%LPC*%
G36*
X978431Y365823D02*
X978431Y365823D01*
X974720Y367360D01*
X971880Y370200D01*
X970343Y373911D01*
X970343Y377929D01*
X971880Y381640D01*
X974720Y384480D01*
X978431Y386017D01*
X982449Y386017D01*
X986160Y384480D01*
X989000Y381640D01*
X990537Y377929D01*
X990537Y373911D01*
X989000Y370200D01*
X986160Y367360D01*
X982449Y365823D01*
X978431Y365823D01*
G37*
%LPD*%
%LPC*%
G36*
X659344Y321083D02*
X659344Y321083D01*
X657394Y321891D01*
X655901Y323384D01*
X655093Y325334D01*
X655093Y327446D01*
X655901Y329396D01*
X657394Y330889D01*
X659344Y331697D01*
X661533Y331697D01*
X661542Y331694D01*
X661562Y331693D01*
X661582Y331688D01*
X661721Y331685D01*
X661860Y331679D01*
X661879Y331683D01*
X661900Y331682D01*
X662035Y331715D01*
X662171Y331743D01*
X662189Y331752D01*
X662209Y331757D01*
X662332Y331821D01*
X662457Y331883D01*
X662472Y331896D01*
X662490Y331905D01*
X662593Y331999D01*
X662699Y332089D01*
X662711Y332106D01*
X662725Y332119D01*
X662802Y332235D01*
X662882Y332349D01*
X662889Y332368D01*
X662900Y332385D01*
X662945Y332516D01*
X662995Y332647D01*
X662997Y332667D01*
X663003Y332686D01*
X663014Y332824D01*
X663030Y332963D01*
X663027Y332983D01*
X663029Y333003D01*
X663005Y333140D01*
X662986Y333277D01*
X662976Y333304D01*
X662974Y333316D01*
X662966Y333334D01*
X662933Y333430D01*
X662078Y335494D01*
X662078Y337606D01*
X662886Y339556D01*
X664379Y341049D01*
X666329Y341857D01*
X668518Y341857D01*
X668527Y341854D01*
X668547Y341853D01*
X668566Y341848D01*
X668706Y341845D01*
X668845Y341839D01*
X668864Y341843D01*
X668884Y341842D01*
X669019Y341875D01*
X669156Y341903D01*
X669174Y341912D01*
X669194Y341916D01*
X669316Y341981D01*
X669442Y342043D01*
X669457Y342056D01*
X669475Y342065D01*
X669578Y342158D01*
X669684Y342249D01*
X669695Y342265D01*
X669710Y342279D01*
X669787Y342395D01*
X669867Y342509D01*
X669874Y342528D01*
X669885Y342545D01*
X669930Y342676D01*
X669980Y342806D01*
X669982Y342826D01*
X669988Y342845D01*
X669999Y342984D01*
X670015Y343123D01*
X670012Y343142D01*
X670014Y343162D01*
X669990Y343299D01*
X669970Y343437D01*
X669962Y343464D01*
X669959Y343476D01*
X669951Y343494D01*
X669918Y343590D01*
X669063Y345654D01*
X669063Y347766D01*
X669871Y349716D01*
X671364Y351209D01*
X673314Y352017D01*
X675426Y352017D01*
X677376Y351209D01*
X678869Y349716D01*
X679677Y347766D01*
X679677Y345654D01*
X678869Y343704D01*
X677376Y342211D01*
X675426Y341403D01*
X673237Y341403D01*
X673228Y341406D01*
X673208Y341407D01*
X673189Y341412D01*
X673049Y341415D01*
X672910Y341421D01*
X672891Y341417D01*
X672871Y341418D01*
X672736Y341385D01*
X672599Y341357D01*
X672581Y341348D01*
X672561Y341344D01*
X672439Y341279D01*
X672313Y341217D01*
X672298Y341204D01*
X672280Y341195D01*
X672177Y341102D01*
X672071Y341011D01*
X672060Y340995D01*
X672045Y340981D01*
X671968Y340865D01*
X671888Y340751D01*
X671881Y340732D01*
X671870Y340715D01*
X671825Y340584D01*
X671775Y340454D01*
X671773Y340434D01*
X671767Y340415D01*
X671756Y340276D01*
X671740Y340137D01*
X671743Y340118D01*
X671741Y340098D01*
X671765Y339961D01*
X671785Y339823D01*
X671793Y339796D01*
X671796Y339784D01*
X671804Y339766D01*
X671837Y339670D01*
X672692Y337606D01*
X672692Y335494D01*
X671884Y333544D01*
X670391Y332051D01*
X668441Y331243D01*
X666252Y331243D01*
X666243Y331246D01*
X666223Y331247D01*
X666204Y331252D01*
X666064Y331255D01*
X665925Y331261D01*
X665906Y331257D01*
X665886Y331258D01*
X665751Y331225D01*
X665614Y331197D01*
X665596Y331188D01*
X665576Y331184D01*
X665454Y331119D01*
X665328Y331057D01*
X665313Y331044D01*
X665295Y331035D01*
X665192Y330942D01*
X665086Y330851D01*
X665075Y330835D01*
X665060Y330821D01*
X664983Y330705D01*
X664903Y330591D01*
X664896Y330572D01*
X664885Y330555D01*
X664840Y330424D01*
X664790Y330294D01*
X664788Y330274D01*
X664782Y330255D01*
X664771Y330116D01*
X664755Y329977D01*
X664758Y329958D01*
X664756Y329938D01*
X664780Y329801D01*
X664800Y329663D01*
X664808Y329636D01*
X664811Y329624D01*
X664819Y329606D01*
X664852Y329510D01*
X665707Y327446D01*
X665707Y325334D01*
X664899Y323384D01*
X663406Y321891D01*
X661456Y321083D01*
X659344Y321083D01*
G37*
%LPD*%
%LPC*%
G36*
X653629Y1083083D02*
X653629Y1083083D01*
X651679Y1083891D01*
X650186Y1085384D01*
X649378Y1087334D01*
X649378Y1089446D01*
X650186Y1091396D01*
X651679Y1092889D01*
X653629Y1093697D01*
X655741Y1093697D01*
X656525Y1093372D01*
X656592Y1093353D01*
X656656Y1093326D01*
X656745Y1093312D01*
X656832Y1093288D01*
X656901Y1093287D01*
X656970Y1093276D01*
X657060Y1093284D01*
X657150Y1093283D01*
X657218Y1093299D01*
X657287Y1093306D01*
X657372Y1093336D01*
X657459Y1093357D01*
X657521Y1093390D01*
X657586Y1093413D01*
X657661Y1093464D01*
X657740Y1093506D01*
X657792Y1093553D01*
X657849Y1093592D01*
X657909Y1093659D01*
X657975Y1093720D01*
X658014Y1093778D01*
X658060Y1093830D01*
X658101Y1093910D01*
X658150Y1093985D01*
X658173Y1094051D01*
X658205Y1094113D01*
X658224Y1094201D01*
X658253Y1094286D01*
X658259Y1094356D01*
X658274Y1094424D01*
X658271Y1094513D01*
X658279Y1094603D01*
X658267Y1094672D01*
X658265Y1094742D01*
X658240Y1094828D01*
X658224Y1094916D01*
X658196Y1094980D01*
X658176Y1095047D01*
X658131Y1095124D01*
X658094Y1095206D01*
X658050Y1095261D01*
X658015Y1095321D01*
X657908Y1095442D01*
X657806Y1095544D01*
X656998Y1097494D01*
X656998Y1099606D01*
X657318Y1100378D01*
X657332Y1100426D01*
X657353Y1100471D01*
X657373Y1100579D01*
X657402Y1100685D01*
X657403Y1100735D01*
X657412Y1100784D01*
X657406Y1100893D01*
X657407Y1101003D01*
X657396Y1101051D01*
X657393Y1101101D01*
X657359Y1101205D01*
X657333Y1101312D01*
X657310Y1101356D01*
X657295Y1101403D01*
X657236Y1101496D01*
X657185Y1101593D01*
X657151Y1101630D01*
X657124Y1101672D01*
X657044Y1101747D01*
X656971Y1101829D01*
X656929Y1101856D01*
X656893Y1101890D01*
X656797Y1101943D01*
X656705Y1102003D01*
X656658Y1102020D01*
X656614Y1102044D01*
X656508Y1102071D01*
X656404Y1102107D01*
X656354Y1102111D01*
X656306Y1102123D01*
X656146Y1102133D01*
X654899Y1102133D01*
X652949Y1102941D01*
X651456Y1104434D01*
X650648Y1106384D01*
X650648Y1108496D01*
X651456Y1110446D01*
X652949Y1111939D01*
X654899Y1112747D01*
X657011Y1112747D01*
X658961Y1111939D01*
X660454Y1110446D01*
X661262Y1108496D01*
X661262Y1106384D01*
X660942Y1105612D01*
X660928Y1105564D01*
X660907Y1105519D01*
X660887Y1105411D01*
X660858Y1105305D01*
X660857Y1105255D01*
X660848Y1105206D01*
X660854Y1105097D01*
X660853Y1104987D01*
X660864Y1104939D01*
X660867Y1104889D01*
X660901Y1104785D01*
X660927Y1104678D01*
X660950Y1104634D01*
X660965Y1104587D01*
X661024Y1104494D01*
X661075Y1104397D01*
X661109Y1104360D01*
X661136Y1104318D01*
X661216Y1104243D01*
X661289Y1104161D01*
X661331Y1104134D01*
X661367Y1104100D01*
X661463Y1104047D01*
X661555Y1103987D01*
X661602Y1103970D01*
X661646Y1103946D01*
X661752Y1103919D01*
X661856Y1103883D01*
X661906Y1103879D01*
X661954Y1103867D01*
X662114Y1103857D01*
X663361Y1103857D01*
X665311Y1103049D01*
X666804Y1101556D01*
X667612Y1099606D01*
X667612Y1097494D01*
X666804Y1095544D01*
X665311Y1094051D01*
X663361Y1093243D01*
X661249Y1093243D01*
X660465Y1093568D01*
X660398Y1093587D01*
X660334Y1093614D01*
X660245Y1093628D01*
X660158Y1093652D01*
X660089Y1093653D01*
X660020Y1093664D01*
X659930Y1093656D01*
X659840Y1093657D01*
X659772Y1093641D01*
X659703Y1093634D01*
X659618Y1093604D01*
X659531Y1093583D01*
X659469Y1093550D01*
X659404Y1093527D01*
X659329Y1093476D01*
X659250Y1093434D01*
X659198Y1093387D01*
X659141Y1093348D01*
X659081Y1093281D01*
X659015Y1093220D01*
X658976Y1093162D01*
X658930Y1093110D01*
X658889Y1093030D01*
X658840Y1092955D01*
X658817Y1092889D01*
X658785Y1092827D01*
X658766Y1092739D01*
X658737Y1092654D01*
X658731Y1092584D01*
X658716Y1092516D01*
X658719Y1092427D01*
X658711Y1092337D01*
X658723Y1092268D01*
X658725Y1092198D01*
X658750Y1092112D01*
X658766Y1092024D01*
X658794Y1091960D01*
X658814Y1091893D01*
X658859Y1091816D01*
X658896Y1091734D01*
X658940Y1091679D01*
X658975Y1091619D01*
X659082Y1091498D01*
X659184Y1091396D01*
X659992Y1089446D01*
X659992Y1087334D01*
X659184Y1085384D01*
X657691Y1083891D01*
X655741Y1083083D01*
X653629Y1083083D01*
G37*
%LPD*%
%LPC*%
G36*
X683474Y392203D02*
X683474Y392203D01*
X681524Y393011D01*
X680031Y394504D01*
X679223Y396454D01*
X679223Y398566D01*
X680031Y400516D01*
X681524Y402009D01*
X683474Y402817D01*
X685611Y402817D01*
X685671Y402800D01*
X685804Y402759D01*
X685824Y402758D01*
X685843Y402753D01*
X685983Y402751D01*
X686121Y402744D01*
X686141Y402748D01*
X686161Y402748D01*
X686296Y402780D01*
X686433Y402809D01*
X686451Y402817D01*
X686471Y402822D01*
X686593Y402887D01*
X686718Y402948D01*
X686734Y402961D01*
X686752Y402971D01*
X686855Y403064D01*
X686960Y403155D01*
X686972Y403171D01*
X686987Y403185D01*
X687063Y403301D01*
X687143Y403415D01*
X687151Y403434D01*
X687162Y403450D01*
X687207Y403582D01*
X687256Y403712D01*
X687258Y403732D01*
X687265Y403751D01*
X687276Y403890D01*
X687291Y404028D01*
X687289Y404048D01*
X687290Y404068D01*
X687266Y404206D01*
X687247Y404343D01*
X687238Y404369D01*
X687236Y404382D01*
X687227Y404400D01*
X687195Y404495D01*
X686843Y405344D01*
X686843Y407456D01*
X687651Y409406D01*
X689144Y410899D01*
X691094Y411707D01*
X692559Y411707D01*
X692677Y411722D01*
X692796Y411729D01*
X692834Y411742D01*
X692875Y411747D01*
X692985Y411790D01*
X693098Y411827D01*
X693133Y411849D01*
X693170Y411864D01*
X693266Y411933D01*
X693367Y411997D01*
X693395Y412027D01*
X693428Y412050D01*
X693504Y412142D01*
X693585Y412229D01*
X693605Y412264D01*
X693630Y412295D01*
X693681Y412403D01*
X693739Y412507D01*
X693749Y412547D01*
X693766Y412583D01*
X693788Y412700D01*
X693818Y412815D01*
X693822Y412875D01*
X693826Y412895D01*
X693824Y412916D01*
X693828Y412976D01*
X693828Y414441D01*
X694636Y416391D01*
X696129Y417884D01*
X698079Y418692D01*
X700191Y418692D01*
X702141Y417884D01*
X703634Y416391D01*
X704442Y414441D01*
X704442Y412329D01*
X703634Y410379D01*
X702141Y408886D01*
X700191Y408078D01*
X698726Y408078D01*
X698608Y408063D01*
X698489Y408056D01*
X698451Y408043D01*
X698410Y408038D01*
X698300Y407995D01*
X698187Y407958D01*
X698152Y407936D01*
X698115Y407921D01*
X698019Y407852D01*
X697918Y407788D01*
X697890Y407758D01*
X697857Y407735D01*
X697781Y407643D01*
X697700Y407556D01*
X697680Y407521D01*
X697655Y407490D01*
X697604Y407382D01*
X697546Y407278D01*
X697536Y407238D01*
X697519Y407202D01*
X697497Y407085D01*
X697467Y406970D01*
X697463Y406910D01*
X697459Y406890D01*
X697461Y406869D01*
X697457Y406809D01*
X697457Y405344D01*
X696649Y403394D01*
X695156Y401901D01*
X693206Y401093D01*
X691069Y401093D01*
X691009Y401110D01*
X690876Y401151D01*
X690856Y401152D01*
X690837Y401157D01*
X690697Y401159D01*
X690559Y401166D01*
X690539Y401162D01*
X690519Y401162D01*
X690384Y401130D01*
X690247Y401101D01*
X690229Y401093D01*
X690209Y401088D01*
X690087Y401023D01*
X689962Y400962D01*
X689946Y400949D01*
X689928Y400939D01*
X689825Y400846D01*
X689720Y400755D01*
X689708Y400739D01*
X689693Y400725D01*
X689617Y400609D01*
X689537Y400495D01*
X689529Y400476D01*
X689518Y400460D01*
X689473Y400328D01*
X689424Y400198D01*
X689422Y400178D01*
X689415Y400159D01*
X689404Y400020D01*
X689389Y399882D01*
X689391Y399862D01*
X689390Y399842D01*
X689414Y399704D01*
X689433Y399567D01*
X689442Y399541D01*
X689444Y399528D01*
X689453Y399510D01*
X689485Y399415D01*
X689837Y398566D01*
X689837Y396454D01*
X689029Y394504D01*
X687536Y393011D01*
X685586Y392203D01*
X683474Y392203D01*
G37*
%LPD*%
%LPC*%
G36*
X1439756Y641090D02*
X1439756Y641090D01*
X1436627Y642387D01*
X1434232Y644782D01*
X1432935Y647911D01*
X1432935Y651299D01*
X1434232Y654428D01*
X1436627Y656823D01*
X1439756Y658120D01*
X1443144Y658120D01*
X1446273Y656823D01*
X1448668Y654428D01*
X1449965Y651299D01*
X1449965Y647911D01*
X1448668Y644782D01*
X1446273Y642387D01*
X1443144Y641090D01*
X1439756Y641090D01*
G37*
%LPD*%
%LPC*%
G36*
X1439756Y691890D02*
X1439756Y691890D01*
X1436627Y693187D01*
X1434232Y695582D01*
X1432935Y698711D01*
X1432935Y702099D01*
X1434232Y705228D01*
X1436627Y707623D01*
X1439756Y708920D01*
X1443144Y708920D01*
X1446273Y707623D01*
X1448668Y705228D01*
X1449965Y702099D01*
X1449965Y698711D01*
X1448668Y695582D01*
X1446273Y693187D01*
X1443144Y691890D01*
X1439756Y691890D01*
G37*
%LPD*%
%LPC*%
G36*
X1520401Y689350D02*
X1520401Y689350D01*
X1517272Y690647D01*
X1514877Y693042D01*
X1513580Y696171D01*
X1513580Y699559D01*
X1514877Y702688D01*
X1517272Y705083D01*
X1520401Y706380D01*
X1523789Y706380D01*
X1526918Y705083D01*
X1529313Y702688D01*
X1530610Y699559D01*
X1530610Y696171D01*
X1529313Y693042D01*
X1526918Y690647D01*
X1523789Y689350D01*
X1520401Y689350D01*
G37*
%LPD*%
%LPC*%
G36*
X1439756Y666490D02*
X1439756Y666490D01*
X1436627Y667787D01*
X1434232Y670182D01*
X1432935Y673311D01*
X1432935Y676699D01*
X1434232Y679828D01*
X1436627Y682223D01*
X1439756Y683520D01*
X1443144Y683520D01*
X1446273Y682223D01*
X1448668Y679828D01*
X1449965Y676699D01*
X1449965Y673311D01*
X1448668Y670182D01*
X1446273Y667787D01*
X1443144Y666490D01*
X1439756Y666490D01*
G37*
%LPD*%
%LPC*%
G36*
X1520401Y968750D02*
X1520401Y968750D01*
X1517272Y970047D01*
X1514877Y972442D01*
X1513580Y975571D01*
X1513580Y978959D01*
X1514877Y982088D01*
X1517272Y984483D01*
X1520401Y985780D01*
X1523789Y985780D01*
X1526918Y984483D01*
X1529313Y982088D01*
X1530610Y978959D01*
X1530610Y975571D01*
X1529313Y972442D01*
X1526918Y970047D01*
X1523789Y968750D01*
X1520401Y968750D01*
G37*
%LPD*%
%LPC*%
G36*
X1441661Y949065D02*
X1441661Y949065D01*
X1438532Y950362D01*
X1436137Y952757D01*
X1434840Y955886D01*
X1434840Y959274D01*
X1436137Y962403D01*
X1438532Y964798D01*
X1441661Y966095D01*
X1445049Y966095D01*
X1448178Y964798D01*
X1450573Y962403D01*
X1451870Y959274D01*
X1451870Y955886D01*
X1450573Y952757D01*
X1448178Y950362D01*
X1445049Y949065D01*
X1441661Y949065D01*
G37*
%LPD*%
%LPC*%
G36*
X1441661Y898265D02*
X1441661Y898265D01*
X1438532Y899562D01*
X1436137Y901957D01*
X1434840Y905086D01*
X1434840Y908474D01*
X1436137Y911603D01*
X1438532Y913998D01*
X1441661Y915295D01*
X1445049Y915295D01*
X1448178Y913998D01*
X1450573Y911603D01*
X1451870Y908474D01*
X1451870Y905086D01*
X1450573Y901957D01*
X1448178Y899562D01*
X1445049Y898265D01*
X1441661Y898265D01*
G37*
%LPD*%
%LPC*%
G36*
X1520401Y435985D02*
X1520401Y435985D01*
X1517272Y437282D01*
X1514877Y439677D01*
X1513580Y442806D01*
X1513580Y446194D01*
X1514877Y449323D01*
X1517272Y451718D01*
X1520401Y453015D01*
X1523789Y453015D01*
X1526918Y451718D01*
X1529313Y449323D01*
X1530610Y446194D01*
X1530610Y442806D01*
X1529313Y439677D01*
X1526918Y437282D01*
X1523789Y435985D01*
X1520401Y435985D01*
G37*
%LPD*%
%LPC*%
G36*
X1438486Y413760D02*
X1438486Y413760D01*
X1435357Y415057D01*
X1432962Y417452D01*
X1431665Y420581D01*
X1431665Y423969D01*
X1432962Y427098D01*
X1435357Y429493D01*
X1438486Y430790D01*
X1441874Y430790D01*
X1445003Y429493D01*
X1447398Y427098D01*
X1448695Y423969D01*
X1448695Y420581D01*
X1447398Y417452D01*
X1445003Y415057D01*
X1441874Y413760D01*
X1438486Y413760D01*
G37*
%LPD*%
%LPC*%
G36*
X1520401Y943350D02*
X1520401Y943350D01*
X1517272Y944647D01*
X1514877Y947042D01*
X1513580Y950171D01*
X1513580Y953559D01*
X1514877Y956688D01*
X1517272Y959083D01*
X1520401Y960380D01*
X1523789Y960380D01*
X1526918Y959083D01*
X1529313Y956688D01*
X1530610Y953559D01*
X1530610Y950171D01*
X1529313Y947042D01*
X1526918Y944647D01*
X1523789Y943350D01*
X1520401Y943350D01*
G37*
%LPD*%
%LPC*%
G36*
X1520401Y208420D02*
X1520401Y208420D01*
X1517272Y209717D01*
X1514877Y212112D01*
X1513580Y215241D01*
X1513580Y218629D01*
X1514877Y221758D01*
X1517272Y224153D01*
X1520401Y225450D01*
X1523789Y225450D01*
X1526918Y224153D01*
X1529313Y221758D01*
X1530610Y218629D01*
X1530610Y215241D01*
X1529313Y212112D01*
X1526918Y209717D01*
X1523789Y208420D01*
X1520401Y208420D01*
G37*
%LPD*%
%LPC*%
G36*
X1520401Y714750D02*
X1520401Y714750D01*
X1517272Y716047D01*
X1514877Y718442D01*
X1513580Y721571D01*
X1513580Y724959D01*
X1514877Y728088D01*
X1517272Y730483D01*
X1520401Y731780D01*
X1523789Y731780D01*
X1526918Y730483D01*
X1529313Y728088D01*
X1530610Y724959D01*
X1530610Y721571D01*
X1529313Y718442D01*
X1526918Y716047D01*
X1523789Y714750D01*
X1520401Y714750D01*
G37*
%LPD*%
%LPC*%
G36*
X1440391Y186195D02*
X1440391Y186195D01*
X1437262Y187492D01*
X1434867Y189887D01*
X1433570Y193016D01*
X1433570Y196404D01*
X1434867Y199533D01*
X1437262Y201928D01*
X1440391Y203225D01*
X1443779Y203225D01*
X1446908Y201928D01*
X1449303Y199533D01*
X1450600Y196404D01*
X1450600Y193016D01*
X1449303Y189887D01*
X1446908Y187492D01*
X1443779Y186195D01*
X1440391Y186195D01*
G37*
%LPD*%
%LPC*%
G36*
X1520401Y183020D02*
X1520401Y183020D01*
X1517272Y184317D01*
X1514877Y186712D01*
X1513580Y189841D01*
X1513580Y193229D01*
X1514877Y196358D01*
X1517272Y198753D01*
X1520401Y200050D01*
X1523789Y200050D01*
X1526918Y198753D01*
X1529313Y196358D01*
X1530610Y193229D01*
X1530610Y189841D01*
X1529313Y186712D01*
X1526918Y184317D01*
X1523789Y183020D01*
X1520401Y183020D01*
G37*
%LPD*%
%LPC*%
G36*
X1441661Y923665D02*
X1441661Y923665D01*
X1438532Y924962D01*
X1436137Y927357D01*
X1434840Y930486D01*
X1434840Y933874D01*
X1436137Y937003D01*
X1438532Y939398D01*
X1441661Y940695D01*
X1445049Y940695D01*
X1448178Y939398D01*
X1450573Y937003D01*
X1451870Y933874D01*
X1451870Y930486D01*
X1450573Y927357D01*
X1448178Y924962D01*
X1445049Y923665D01*
X1441661Y923665D01*
G37*
%LPD*%
%LPC*%
G36*
X1438486Y388360D02*
X1438486Y388360D01*
X1435357Y389657D01*
X1432962Y392052D01*
X1431665Y395181D01*
X1431665Y398569D01*
X1432962Y401698D01*
X1435357Y404093D01*
X1438486Y405390D01*
X1441874Y405390D01*
X1445003Y404093D01*
X1447398Y401698D01*
X1448695Y398569D01*
X1448695Y395181D01*
X1447398Y392052D01*
X1445003Y389657D01*
X1441874Y388360D01*
X1438486Y388360D01*
G37*
%LPD*%
%LPC*%
G36*
X1440391Y160795D02*
X1440391Y160795D01*
X1437262Y162092D01*
X1434867Y164487D01*
X1433570Y167616D01*
X1433570Y171004D01*
X1434867Y174133D01*
X1437262Y176528D01*
X1440391Y177825D01*
X1443779Y177825D01*
X1446908Y176528D01*
X1449303Y174133D01*
X1450600Y171004D01*
X1450600Y167616D01*
X1449303Y164487D01*
X1446908Y162092D01*
X1443779Y160795D01*
X1440391Y160795D01*
G37*
%LPD*%
%LPC*%
G36*
X1440391Y135395D02*
X1440391Y135395D01*
X1437262Y136692D01*
X1434867Y139087D01*
X1433570Y142216D01*
X1433570Y145604D01*
X1434867Y148733D01*
X1437262Y151128D01*
X1440391Y152425D01*
X1443779Y152425D01*
X1446908Y151128D01*
X1449303Y148733D01*
X1450600Y145604D01*
X1450600Y142216D01*
X1449303Y139087D01*
X1446908Y136692D01*
X1443779Y135395D01*
X1440391Y135395D01*
G37*
%LPD*%
%LPC*%
G36*
X1520401Y461385D02*
X1520401Y461385D01*
X1517272Y462682D01*
X1514877Y465077D01*
X1513580Y468206D01*
X1513580Y471594D01*
X1514877Y474723D01*
X1517272Y477118D01*
X1520401Y478415D01*
X1523789Y478415D01*
X1526918Y477118D01*
X1529313Y474723D01*
X1530610Y471594D01*
X1530610Y468206D01*
X1529313Y465077D01*
X1526918Y462682D01*
X1523789Y461385D01*
X1520401Y461385D01*
G37*
%LPD*%
%LPC*%
G36*
X1438486Y362960D02*
X1438486Y362960D01*
X1435357Y364257D01*
X1432962Y366652D01*
X1431665Y369781D01*
X1431665Y373169D01*
X1432962Y376298D01*
X1435357Y378693D01*
X1438486Y379990D01*
X1441874Y379990D01*
X1445003Y378693D01*
X1447398Y376298D01*
X1448695Y373169D01*
X1448695Y369781D01*
X1447398Y366652D01*
X1445003Y364257D01*
X1441874Y362960D01*
X1438486Y362960D01*
G37*
%LPD*%
%LPC*%
G36*
X674584Y702718D02*
X674584Y702718D01*
X672634Y703526D01*
X671141Y705019D01*
X670333Y706969D01*
X670333Y709081D01*
X671141Y711031D01*
X672634Y712524D01*
X674584Y713332D01*
X676696Y713332D01*
X678103Y712749D01*
X678151Y712736D01*
X678196Y712714D01*
X678304Y712694D01*
X678410Y712665D01*
X678460Y712664D01*
X678509Y712655D01*
X678618Y712661D01*
X678728Y712660D01*
X678776Y712671D01*
X678826Y712674D01*
X678930Y712708D01*
X679037Y712734D01*
X679081Y712757D01*
X679128Y712772D01*
X679221Y712831D01*
X679318Y712883D01*
X679355Y712916D01*
X679397Y712943D01*
X679472Y713023D01*
X679554Y713096D01*
X679581Y713138D01*
X679615Y713174D01*
X679668Y713270D01*
X679728Y713362D01*
X679745Y713409D01*
X679769Y713453D01*
X679796Y713559D01*
X679832Y713663D01*
X679836Y713713D01*
X679848Y713761D01*
X679858Y713921D01*
X679858Y716066D01*
X680666Y718016D01*
X682159Y719509D01*
X684109Y720317D01*
X686221Y720317D01*
X688089Y719543D01*
X688156Y719524D01*
X688220Y719497D01*
X688309Y719483D01*
X688396Y719459D01*
X688465Y719458D01*
X688534Y719447D01*
X688624Y719455D01*
X688714Y719454D01*
X688747Y719462D01*
X688742Y719406D01*
X688754Y719337D01*
X688756Y719267D01*
X688781Y719181D01*
X688797Y719092D01*
X688825Y719029D01*
X688845Y718962D01*
X688891Y718884D01*
X688927Y718803D01*
X688971Y718748D01*
X689006Y718688D01*
X689113Y718567D01*
X689664Y718016D01*
X690472Y716066D01*
X690472Y713954D01*
X689664Y712004D01*
X688171Y710511D01*
X686221Y709703D01*
X684109Y709703D01*
X682702Y710286D01*
X682654Y710299D01*
X682609Y710321D01*
X682501Y710341D01*
X682395Y710370D01*
X682345Y710371D01*
X682296Y710380D01*
X682187Y710374D01*
X682077Y710375D01*
X682029Y710364D01*
X681979Y710361D01*
X681875Y710327D01*
X681768Y710301D01*
X681724Y710278D01*
X681677Y710263D01*
X681584Y710204D01*
X681487Y710152D01*
X681450Y710119D01*
X681408Y710092D01*
X681333Y710012D01*
X681251Y709939D01*
X681224Y709897D01*
X681190Y709861D01*
X681137Y709765D01*
X681077Y709673D01*
X681060Y709626D01*
X681036Y709582D01*
X681009Y709476D01*
X680973Y709372D01*
X680969Y709322D01*
X680957Y709274D01*
X680947Y709114D01*
X680947Y706969D01*
X680139Y705019D01*
X678646Y703526D01*
X676696Y702718D01*
X674584Y702718D01*
G37*
%LPD*%
%LPC*%
G36*
X686014Y159793D02*
X686014Y159793D01*
X685230Y160118D01*
X685163Y160137D01*
X685099Y160164D01*
X685010Y160178D01*
X684923Y160202D01*
X684854Y160203D01*
X684785Y160214D01*
X684695Y160206D01*
X684605Y160207D01*
X684537Y160191D01*
X684468Y160184D01*
X684384Y160154D01*
X684296Y160133D01*
X684272Y160121D01*
X684259Y160197D01*
X684231Y160260D01*
X684211Y160327D01*
X684165Y160405D01*
X684129Y160486D01*
X684085Y160541D01*
X684050Y160601D01*
X683943Y160722D01*
X682571Y162094D01*
X681763Y164044D01*
X681763Y166156D01*
X682571Y168106D01*
X684064Y169599D01*
X686014Y170407D01*
X688126Y170407D01*
X690076Y169599D01*
X690178Y169497D01*
X690233Y169454D01*
X690282Y169404D01*
X690358Y169357D01*
X690429Y169302D01*
X690494Y169274D01*
X690553Y169238D01*
X690639Y169211D01*
X690721Y169176D01*
X690790Y169165D01*
X690857Y169144D01*
X690946Y169140D01*
X691035Y169126D01*
X691105Y169132D01*
X691174Y169129D01*
X691262Y169147D01*
X691352Y169156D01*
X691418Y169179D01*
X691486Y169193D01*
X691566Y169233D01*
X691651Y169263D01*
X691709Y169302D01*
X691772Y169333D01*
X691840Y169391D01*
X691914Y169442D01*
X691961Y169494D01*
X692014Y169539D01*
X692065Y169613D01*
X692125Y169680D01*
X692157Y169742D01*
X692197Y169799D01*
X692229Y169883D01*
X692269Y169963D01*
X692285Y170031D01*
X692309Y170097D01*
X692319Y170186D01*
X692339Y170274D01*
X692337Y170343D01*
X692345Y170413D01*
X692332Y170502D01*
X692329Y170592D01*
X692310Y170659D01*
X692300Y170728D01*
X692248Y170880D01*
X691923Y171664D01*
X691923Y173776D01*
X692731Y175726D01*
X694224Y177219D01*
X696174Y178027D01*
X698286Y178027D01*
X700236Y177219D01*
X701729Y175726D01*
X702537Y173776D01*
X702537Y171664D01*
X701729Y169714D01*
X700236Y168221D01*
X698286Y167413D01*
X696174Y167413D01*
X694224Y168221D01*
X694122Y168323D01*
X694067Y168366D01*
X694018Y168416D01*
X693942Y168463D01*
X693871Y168518D01*
X693806Y168546D01*
X693747Y168582D01*
X693661Y168609D01*
X693579Y168644D01*
X693510Y168655D01*
X693443Y168676D01*
X693354Y168680D01*
X693265Y168694D01*
X693195Y168688D01*
X693126Y168691D01*
X693038Y168673D01*
X692948Y168664D01*
X692882Y168641D01*
X692814Y168627D01*
X692734Y168587D01*
X692649Y168557D01*
X692591Y168518D01*
X692528Y168487D01*
X692460Y168429D01*
X692386Y168378D01*
X692339Y168326D01*
X692286Y168281D01*
X692235Y168207D01*
X692175Y168140D01*
X692143Y168078D01*
X692103Y168021D01*
X692071Y167937D01*
X692031Y167857D01*
X692015Y167789D01*
X691991Y167723D01*
X691981Y167634D01*
X691961Y167546D01*
X691963Y167477D01*
X691955Y167407D01*
X691968Y167318D01*
X691971Y167228D01*
X691990Y167161D01*
X692000Y167092D01*
X692052Y166940D01*
X692377Y166156D01*
X692377Y164044D01*
X691569Y162094D01*
X690076Y160601D01*
X688126Y159793D01*
X686014Y159793D01*
G37*
%LPD*%
%LPC*%
G36*
X711414Y984023D02*
X711414Y984023D01*
X709464Y984831D01*
X707971Y986324D01*
X707163Y988274D01*
X707163Y990386D01*
X707971Y992336D01*
X708571Y992936D01*
X708601Y992975D01*
X708638Y993008D01*
X708698Y993100D01*
X708766Y993187D01*
X708785Y993232D01*
X708813Y993274D01*
X708848Y993378D01*
X708892Y993479D01*
X708900Y993528D01*
X708916Y993575D01*
X708925Y993684D01*
X708942Y993793D01*
X708937Y993842D01*
X708941Y993892D01*
X708922Y994000D01*
X708912Y994109D01*
X708895Y994156D01*
X708887Y994205D01*
X708842Y994305D01*
X708804Y994409D01*
X708777Y994450D01*
X708756Y994495D01*
X708687Y994581D01*
X708626Y994672D01*
X708589Y994705D01*
X708558Y994744D01*
X708470Y994810D01*
X708387Y994882D01*
X708343Y994905D01*
X708303Y994935D01*
X708199Y994986D01*
X706701Y996484D01*
X705893Y998434D01*
X705893Y1000546D01*
X706701Y1002496D01*
X708194Y1003989D01*
X710144Y1004797D01*
X712256Y1004797D01*
X714206Y1003989D01*
X715699Y1002496D01*
X716507Y1000546D01*
X716507Y998434D01*
X715699Y996484D01*
X715099Y995884D01*
X715069Y995845D01*
X715032Y995812D01*
X714972Y995720D01*
X714904Y995633D01*
X714885Y995588D01*
X714857Y995546D01*
X714822Y995442D01*
X714778Y995341D01*
X714770Y995292D01*
X714754Y995245D01*
X714745Y995136D01*
X714728Y995027D01*
X714733Y994978D01*
X714729Y994928D01*
X714748Y994820D01*
X714758Y994711D01*
X714775Y994664D01*
X714783Y994615D01*
X714828Y994515D01*
X714866Y994411D01*
X714893Y994370D01*
X714914Y994325D01*
X714983Y994239D01*
X715044Y994148D01*
X715081Y994115D01*
X715112Y994076D01*
X715200Y994010D01*
X715283Y993938D01*
X715327Y993915D01*
X715367Y993885D01*
X715471Y993834D01*
X716969Y992336D01*
X717777Y990386D01*
X717777Y988274D01*
X716969Y986324D01*
X715476Y984831D01*
X713526Y984023D01*
X711414Y984023D01*
G37*
%LPD*%
%LPC*%
G36*
X717764Y775743D02*
X717764Y775743D01*
X715814Y776551D01*
X714321Y778044D01*
X713513Y779994D01*
X713513Y782106D01*
X714321Y784056D01*
X715814Y785549D01*
X717764Y786357D01*
X719864Y786357D01*
X719982Y786372D01*
X720101Y786379D01*
X720139Y786392D01*
X720180Y786397D01*
X720290Y786440D01*
X720403Y786477D01*
X720438Y786499D01*
X720475Y786514D01*
X720571Y786583D01*
X720672Y786647D01*
X720700Y786677D01*
X720733Y786700D01*
X720809Y786792D01*
X720890Y786879D01*
X720910Y786914D01*
X720935Y786945D01*
X720986Y787053D01*
X721044Y787157D01*
X721054Y787197D01*
X721071Y787233D01*
X721093Y787350D01*
X721123Y787465D01*
X721127Y787525D01*
X721131Y787545D01*
X721129Y787566D01*
X721133Y787626D01*
X721133Y788456D01*
X721941Y790406D01*
X723434Y791899D01*
X725384Y792707D01*
X727496Y792707D01*
X729446Y791899D01*
X730939Y790406D01*
X731747Y788456D01*
X731747Y786344D01*
X730939Y784394D01*
X729446Y782901D01*
X727496Y782093D01*
X725396Y782093D01*
X725278Y782078D01*
X725159Y782071D01*
X725121Y782058D01*
X725080Y782053D01*
X724970Y782010D01*
X724857Y781973D01*
X724822Y781951D01*
X724785Y781936D01*
X724689Y781867D01*
X724588Y781803D01*
X724560Y781773D01*
X724527Y781750D01*
X724451Y781658D01*
X724370Y781571D01*
X724350Y781536D01*
X724325Y781505D01*
X724274Y781397D01*
X724216Y781293D01*
X724206Y781253D01*
X724189Y781217D01*
X724167Y781100D01*
X724137Y780985D01*
X724133Y780925D01*
X724129Y780905D01*
X724131Y780884D01*
X724127Y780824D01*
X724127Y779994D01*
X723319Y778044D01*
X721826Y776551D01*
X719876Y775743D01*
X717764Y775743D01*
G37*
%LPD*%
%LPC*%
G36*
X562189Y637948D02*
X562189Y637948D01*
X560239Y638756D01*
X558746Y640249D01*
X557938Y642199D01*
X557938Y644311D01*
X558746Y646261D01*
X559923Y647437D01*
X559996Y647532D01*
X560074Y647621D01*
X560093Y647657D01*
X560118Y647689D01*
X560165Y647798D01*
X560219Y647904D01*
X560228Y647943D01*
X560244Y647981D01*
X560263Y648098D01*
X560289Y648214D01*
X560287Y648255D01*
X560294Y648295D01*
X560283Y648413D01*
X560279Y648532D01*
X560268Y648571D01*
X560264Y648611D01*
X560224Y648724D01*
X560191Y648838D01*
X560170Y648872D01*
X560156Y648911D01*
X560090Y649009D01*
X560029Y649112D01*
X559989Y649157D01*
X559978Y649174D01*
X559963Y649187D01*
X559923Y649232D01*
X559381Y649774D01*
X558573Y651724D01*
X558573Y653836D01*
X559381Y655786D01*
X560874Y657279D01*
X562824Y658087D01*
X564936Y658087D01*
X566886Y657279D01*
X568379Y655786D01*
X569187Y653836D01*
X569187Y651724D01*
X568379Y649774D01*
X567202Y648597D01*
X567129Y648503D01*
X567051Y648414D01*
X567032Y648378D01*
X567007Y648346D01*
X566960Y648237D01*
X566906Y648131D01*
X566897Y648092D01*
X566881Y648054D01*
X566862Y647937D01*
X566836Y647821D01*
X566838Y647780D01*
X566831Y647740D01*
X566842Y647622D01*
X566846Y647503D01*
X566857Y647464D01*
X566861Y647424D01*
X566901Y647312D01*
X566934Y647197D01*
X566955Y647162D01*
X566969Y647124D01*
X567035Y647026D01*
X567096Y646923D01*
X567136Y646878D01*
X567147Y646861D01*
X567163Y646848D01*
X567202Y646802D01*
X567744Y646261D01*
X568552Y644311D01*
X568552Y642199D01*
X567744Y640249D01*
X566251Y638756D01*
X564301Y637948D01*
X562189Y637948D01*
G37*
%LPD*%
%LPC*%
G36*
X390739Y238533D02*
X390739Y238533D01*
X388789Y239341D01*
X387296Y240834D01*
X386488Y242784D01*
X386488Y244896D01*
X387296Y246846D01*
X388789Y248339D01*
X390739Y249147D01*
X392851Y249147D01*
X394801Y248339D01*
X395025Y248115D01*
X395119Y248042D01*
X395208Y247963D01*
X395244Y247945D01*
X395276Y247920D01*
X395385Y247873D01*
X395492Y247819D01*
X395531Y247810D01*
X395568Y247794D01*
X395686Y247775D01*
X395802Y247749D01*
X395842Y247750D01*
X395882Y247744D01*
X396001Y247755D01*
X396120Y247759D01*
X396159Y247770D01*
X396199Y247774D01*
X396311Y247814D01*
X396425Y247847D01*
X396460Y247867D01*
X396498Y247881D01*
X396597Y247948D01*
X396699Y248008D01*
X396744Y248048D01*
X396761Y248060D01*
X396775Y248075D01*
X396820Y248115D01*
X397044Y248339D01*
X398994Y249147D01*
X401106Y249147D01*
X403056Y248339D01*
X404549Y246846D01*
X405357Y244896D01*
X405357Y242784D01*
X404549Y240834D01*
X403056Y239341D01*
X401106Y238533D01*
X398994Y238533D01*
X397044Y239341D01*
X396820Y239565D01*
X396726Y239638D01*
X396637Y239717D01*
X396601Y239735D01*
X396569Y239760D01*
X396459Y239807D01*
X396353Y239862D01*
X396314Y239870D01*
X396277Y239886D01*
X396159Y239905D01*
X396043Y239931D01*
X396003Y239930D01*
X395963Y239936D01*
X395844Y239925D01*
X395725Y239921D01*
X395686Y239910D01*
X395646Y239906D01*
X395534Y239866D01*
X395420Y239833D01*
X395385Y239813D01*
X395347Y239799D01*
X395248Y239732D01*
X395146Y239672D01*
X395101Y239632D01*
X395084Y239620D01*
X395070Y239605D01*
X395025Y239565D01*
X394801Y239341D01*
X392851Y238533D01*
X390739Y238533D01*
G37*
%LPD*%
%LPC*%
G36*
X391374Y222658D02*
X391374Y222658D01*
X389424Y223466D01*
X387931Y224959D01*
X387123Y226909D01*
X387123Y229021D01*
X387931Y230971D01*
X389424Y232464D01*
X391374Y233272D01*
X393486Y233272D01*
X395436Y232464D01*
X395660Y232240D01*
X395754Y232167D01*
X395843Y232088D01*
X395879Y232070D01*
X395911Y232045D01*
X396021Y231998D01*
X396127Y231943D01*
X396166Y231935D01*
X396203Y231919D01*
X396321Y231900D01*
X396437Y231874D01*
X396477Y231875D01*
X396517Y231869D01*
X396636Y231880D01*
X396755Y231884D01*
X396794Y231895D01*
X396834Y231899D01*
X396946Y231939D01*
X397060Y231972D01*
X397095Y231992D01*
X397133Y232006D01*
X397232Y232073D01*
X397334Y232133D01*
X397379Y232173D01*
X397396Y232185D01*
X397410Y232200D01*
X397455Y232240D01*
X397679Y232464D01*
X399629Y233272D01*
X401741Y233272D01*
X403691Y232464D01*
X405184Y230971D01*
X405992Y229021D01*
X405992Y226909D01*
X405184Y224959D01*
X403691Y223466D01*
X401741Y222658D01*
X399629Y222658D01*
X397679Y223466D01*
X397455Y223690D01*
X397361Y223763D01*
X397272Y223842D01*
X397236Y223860D01*
X397204Y223885D01*
X397095Y223932D01*
X396988Y223986D01*
X396949Y223995D01*
X396912Y224011D01*
X396794Y224030D01*
X396678Y224056D01*
X396638Y224055D01*
X396598Y224061D01*
X396479Y224050D01*
X396360Y224046D01*
X396321Y224035D01*
X396281Y224031D01*
X396169Y223991D01*
X396055Y223958D01*
X396020Y223938D01*
X395982Y223924D01*
X395883Y223857D01*
X395781Y223797D01*
X395736Y223757D01*
X395719Y223745D01*
X395705Y223730D01*
X395660Y223690D01*
X395436Y223466D01*
X393486Y222658D01*
X391374Y222658D01*
G37*
%LPD*%
%LPC*%
G36*
X692364Y719863D02*
X692364Y719863D01*
X690496Y720637D01*
X690429Y720656D01*
X690365Y720683D01*
X690276Y720697D01*
X690189Y720721D01*
X690120Y720722D01*
X690051Y720733D01*
X689961Y720725D01*
X689871Y720726D01*
X689838Y720718D01*
X689843Y720774D01*
X689831Y720843D01*
X689829Y720913D01*
X689804Y720999D01*
X689788Y721088D01*
X689760Y721151D01*
X689740Y721218D01*
X689694Y721296D01*
X689658Y721377D01*
X689614Y721432D01*
X689579Y721492D01*
X689472Y721613D01*
X688921Y722164D01*
X688113Y724114D01*
X688113Y726226D01*
X688921Y728176D01*
X690414Y729669D01*
X692364Y730477D01*
X694476Y730477D01*
X696426Y729669D01*
X697919Y728176D01*
X698727Y726226D01*
X698727Y724114D01*
X697919Y722164D01*
X696426Y720671D01*
X694476Y719863D01*
X692364Y719863D01*
G37*
%LPD*%
%LPC*%
G36*
X679664Y148363D02*
X679664Y148363D01*
X677714Y149171D01*
X676221Y150664D01*
X675413Y152614D01*
X675413Y154726D01*
X676221Y156676D01*
X677714Y158169D01*
X679664Y158977D01*
X681776Y158977D01*
X682560Y158652D01*
X682627Y158633D01*
X682691Y158606D01*
X682780Y158592D01*
X682867Y158568D01*
X682936Y158567D01*
X683005Y158556D01*
X683095Y158564D01*
X683185Y158563D01*
X683253Y158579D01*
X683322Y158586D01*
X683406Y158616D01*
X683494Y158637D01*
X683518Y158649D01*
X683531Y158573D01*
X683559Y158510D01*
X683579Y158443D01*
X683625Y158365D01*
X683661Y158284D01*
X683705Y158229D01*
X683740Y158169D01*
X683847Y158048D01*
X685219Y156676D01*
X686027Y154726D01*
X686027Y152614D01*
X685219Y150664D01*
X683726Y149171D01*
X681776Y148363D01*
X679664Y148363D01*
G37*
%LPD*%
%LPC*%
G36*
X1027644Y693193D02*
X1027644Y693193D01*
X1025694Y694001D01*
X1024201Y695494D01*
X1023393Y697444D01*
X1023393Y699556D01*
X1024201Y701506D01*
X1025694Y702999D01*
X1027644Y703807D01*
X1029756Y703807D01*
X1031706Y702999D01*
X1033199Y701506D01*
X1034007Y699556D01*
X1034007Y697444D01*
X1033199Y695494D01*
X1031706Y694001D01*
X1029756Y693193D01*
X1027644Y693193D01*
G37*
%LPD*%
%LPC*%
G36*
X1078444Y691923D02*
X1078444Y691923D01*
X1076494Y692731D01*
X1075001Y694224D01*
X1074193Y696174D01*
X1074193Y698286D01*
X1075001Y700236D01*
X1076494Y701729D01*
X1078444Y702537D01*
X1080556Y702537D01*
X1082506Y701729D01*
X1083999Y700236D01*
X1084807Y698286D01*
X1084807Y696174D01*
X1083999Y694224D01*
X1082506Y692731D01*
X1080556Y691923D01*
X1078444Y691923D01*
G37*
%LPD*%
%LPC*%
G36*
X738719Y661443D02*
X738719Y661443D01*
X736769Y662251D01*
X735276Y663744D01*
X734468Y665694D01*
X734468Y667806D01*
X735276Y669756D01*
X736769Y671249D01*
X738719Y672057D01*
X740831Y672057D01*
X742781Y671249D01*
X744274Y669756D01*
X745082Y667806D01*
X745082Y665694D01*
X744274Y663744D01*
X742781Y662251D01*
X740831Y661443D01*
X738719Y661443D01*
G37*
%LPD*%
%LPC*%
G36*
X802854Y660173D02*
X802854Y660173D01*
X800904Y660981D01*
X799411Y662474D01*
X798603Y664424D01*
X798603Y666536D01*
X799411Y668486D01*
X800904Y669979D01*
X802854Y670787D01*
X804966Y670787D01*
X806916Y669979D01*
X808409Y668486D01*
X809217Y666536D01*
X809217Y664424D01*
X808409Y662474D01*
X806916Y660981D01*
X804966Y660173D01*
X802854Y660173D01*
G37*
%LPD*%
%LPC*%
G36*
X444714Y646203D02*
X444714Y646203D01*
X442764Y647011D01*
X441271Y648504D01*
X440463Y650454D01*
X440463Y652566D01*
X441271Y654516D01*
X442764Y656009D01*
X444714Y656817D01*
X446826Y656817D01*
X448776Y656009D01*
X450269Y654516D01*
X451077Y652566D01*
X451077Y650454D01*
X450269Y648504D01*
X448776Y647011D01*
X446826Y646203D01*
X444714Y646203D01*
G37*
%LPD*%
%LPC*%
G36*
X365339Y637948D02*
X365339Y637948D01*
X363389Y638756D01*
X361896Y640249D01*
X361088Y642199D01*
X361088Y644311D01*
X361896Y646261D01*
X363389Y647754D01*
X365339Y648562D01*
X367451Y648562D01*
X369401Y647754D01*
X370894Y646261D01*
X371702Y644311D01*
X371702Y642199D01*
X370894Y640249D01*
X369401Y638756D01*
X367451Y637948D01*
X365339Y637948D01*
G37*
%LPD*%
%LPC*%
G36*
X1025104Y632233D02*
X1025104Y632233D01*
X1023154Y633041D01*
X1021661Y634534D01*
X1020853Y636484D01*
X1020853Y638596D01*
X1021661Y640546D01*
X1023154Y642039D01*
X1025104Y642847D01*
X1027216Y642847D01*
X1029166Y642039D01*
X1030659Y640546D01*
X1031467Y638596D01*
X1031467Y636484D01*
X1030659Y634534D01*
X1029166Y633041D01*
X1027216Y632233D01*
X1025104Y632233D01*
G37*
%LPD*%
%LPC*%
G36*
X1077174Y630963D02*
X1077174Y630963D01*
X1075224Y631771D01*
X1073731Y633264D01*
X1072923Y635214D01*
X1072923Y637326D01*
X1073731Y639276D01*
X1075224Y640769D01*
X1077174Y641577D01*
X1079286Y641577D01*
X1081236Y640769D01*
X1082729Y639276D01*
X1083537Y637326D01*
X1083537Y635214D01*
X1082729Y633264D01*
X1081236Y631771D01*
X1079286Y630963D01*
X1077174Y630963D01*
G37*
%LPD*%
%LPC*%
G36*
X641564Y628423D02*
X641564Y628423D01*
X639614Y629231D01*
X638121Y630724D01*
X637313Y632674D01*
X637313Y634786D01*
X638121Y636736D01*
X639614Y638229D01*
X641564Y639037D01*
X643676Y639037D01*
X645626Y638229D01*
X647119Y636736D01*
X647927Y634786D01*
X647927Y632674D01*
X647119Y630724D01*
X645626Y629231D01*
X643676Y628423D01*
X641564Y628423D01*
G37*
%LPD*%
%LPC*%
G36*
X627594Y628423D02*
X627594Y628423D01*
X625644Y629231D01*
X624151Y630724D01*
X623343Y632674D01*
X623343Y634786D01*
X624151Y636736D01*
X625644Y638229D01*
X627594Y639037D01*
X629706Y639037D01*
X631656Y638229D01*
X633149Y636736D01*
X633957Y634786D01*
X633957Y632674D01*
X633149Y630724D01*
X631656Y629231D01*
X629706Y628423D01*
X627594Y628423D01*
G37*
%LPD*%
%LPC*%
G36*
X484084Y594133D02*
X484084Y594133D01*
X482134Y594941D01*
X480641Y596434D01*
X479833Y598384D01*
X479833Y600496D01*
X480641Y602446D01*
X482134Y603939D01*
X484084Y604747D01*
X486196Y604747D01*
X488146Y603939D01*
X489639Y602446D01*
X490447Y600496D01*
X490447Y598384D01*
X489639Y596434D01*
X488146Y594941D01*
X486196Y594133D01*
X484084Y594133D01*
G37*
%LPD*%
%LPC*%
G36*
X494244Y583973D02*
X494244Y583973D01*
X492294Y584781D01*
X490801Y586274D01*
X489993Y588224D01*
X489993Y590336D01*
X490801Y592286D01*
X492294Y593779D01*
X494244Y594587D01*
X496356Y594587D01*
X498306Y593779D01*
X499799Y592286D01*
X500607Y590336D01*
X500607Y588224D01*
X499799Y586274D01*
X498306Y584781D01*
X496356Y583973D01*
X494244Y583973D01*
G37*
%LPD*%
%LPC*%
G36*
X322794Y582703D02*
X322794Y582703D01*
X320844Y583511D01*
X319351Y585004D01*
X318543Y586954D01*
X318543Y589066D01*
X319351Y591016D01*
X320844Y592509D01*
X322794Y593317D01*
X324906Y593317D01*
X326856Y592509D01*
X328349Y591016D01*
X329157Y589066D01*
X329157Y586954D01*
X328349Y585004D01*
X326856Y583511D01*
X324906Y582703D01*
X322794Y582703D01*
G37*
%LPD*%
%LPC*%
G36*
X1078444Y572543D02*
X1078444Y572543D01*
X1076494Y573351D01*
X1075001Y574844D01*
X1074193Y576794D01*
X1074193Y578906D01*
X1075001Y580856D01*
X1076494Y582349D01*
X1078444Y583157D01*
X1080556Y583157D01*
X1082506Y582349D01*
X1083999Y580856D01*
X1084807Y578906D01*
X1084807Y576794D01*
X1083999Y574844D01*
X1082506Y573351D01*
X1080556Y572543D01*
X1078444Y572543D01*
G37*
%LPD*%
%LPC*%
G36*
X1027644Y571273D02*
X1027644Y571273D01*
X1025694Y572081D01*
X1024201Y573574D01*
X1023393Y575524D01*
X1023393Y577636D01*
X1024201Y579586D01*
X1025694Y581079D01*
X1027644Y581887D01*
X1029756Y581887D01*
X1031706Y581079D01*
X1033199Y579586D01*
X1034007Y577636D01*
X1034007Y575524D01*
X1033199Y573574D01*
X1031706Y572081D01*
X1029756Y571273D01*
X1027644Y571273D01*
G37*
%LPD*%
%LPC*%
G36*
X638039Y545416D02*
X638039Y545416D01*
X636089Y546224D01*
X634596Y547717D01*
X633788Y549667D01*
X633788Y551778D01*
X634596Y553729D01*
X636089Y555222D01*
X638039Y556030D01*
X640150Y556030D01*
X642101Y555222D01*
X643593Y553729D01*
X644401Y551778D01*
X644401Y549667D01*
X643593Y547717D01*
X642101Y546224D01*
X640150Y545416D01*
X638039Y545416D01*
G37*
%LPD*%
%LPC*%
G36*
X322794Y507138D02*
X322794Y507138D01*
X320844Y507946D01*
X319351Y509439D01*
X318543Y511389D01*
X318543Y513501D01*
X319351Y515451D01*
X320844Y516944D01*
X322794Y517752D01*
X324906Y517752D01*
X326856Y516944D01*
X328349Y515451D01*
X329157Y513501D01*
X329157Y511389D01*
X328349Y509439D01*
X326856Y507946D01*
X324906Y507138D01*
X322794Y507138D01*
G37*
%LPD*%
%LPC*%
G36*
X647914Y507138D02*
X647914Y507138D01*
X645964Y507946D01*
X644471Y509439D01*
X643663Y511389D01*
X643663Y513501D01*
X644471Y515451D01*
X645964Y516944D01*
X647914Y517752D01*
X650026Y517752D01*
X651976Y516944D01*
X653469Y515451D01*
X654277Y513501D01*
X654277Y511389D01*
X653469Y509439D01*
X651976Y507946D01*
X650026Y507138D01*
X647914Y507138D01*
G37*
%LPD*%
%LPC*%
G36*
X496784Y505233D02*
X496784Y505233D01*
X494834Y506041D01*
X493341Y507534D01*
X492533Y509484D01*
X492533Y511596D01*
X493341Y513546D01*
X494834Y515039D01*
X496784Y515847D01*
X498896Y515847D01*
X500846Y515039D01*
X502339Y513546D01*
X503147Y511596D01*
X503147Y509484D01*
X502339Y507534D01*
X500846Y506041D01*
X498896Y505233D01*
X496784Y505233D01*
G37*
%LPD*%
%LPC*%
G36*
X753959Y1090703D02*
X753959Y1090703D01*
X752009Y1091511D01*
X750516Y1093004D01*
X749708Y1094954D01*
X749708Y1097066D01*
X750516Y1099016D01*
X752009Y1100509D01*
X753959Y1101317D01*
X756071Y1101317D01*
X758021Y1100509D01*
X759514Y1099016D01*
X760322Y1097066D01*
X760322Y1094954D01*
X759514Y1093004D01*
X758021Y1091511D01*
X756071Y1090703D01*
X753959Y1090703D01*
G37*
%LPD*%
%LPC*%
G36*
X1073364Y483643D02*
X1073364Y483643D01*
X1071414Y484451D01*
X1069921Y485944D01*
X1069113Y487894D01*
X1069113Y490006D01*
X1069921Y491956D01*
X1071414Y493449D01*
X1073364Y494257D01*
X1075476Y494257D01*
X1077426Y493449D01*
X1078919Y491956D01*
X1079727Y490006D01*
X1079727Y487894D01*
X1078919Y485944D01*
X1077426Y484451D01*
X1075476Y483643D01*
X1073364Y483643D01*
G37*
%LPD*%
%LPC*%
G36*
X1022564Y483643D02*
X1022564Y483643D01*
X1020614Y484451D01*
X1019121Y485944D01*
X1018313Y487894D01*
X1018313Y490006D01*
X1019121Y491956D01*
X1020614Y493449D01*
X1022564Y494257D01*
X1024676Y494257D01*
X1026626Y493449D01*
X1028119Y491956D01*
X1028927Y490006D01*
X1028927Y487894D01*
X1028119Y485944D01*
X1026626Y484451D01*
X1024676Y483643D01*
X1022564Y483643D01*
G37*
%LPD*%
%LPC*%
G36*
X1078444Y1050063D02*
X1078444Y1050063D01*
X1076494Y1050871D01*
X1075001Y1052364D01*
X1074193Y1054314D01*
X1074193Y1056426D01*
X1075001Y1058376D01*
X1076494Y1059869D01*
X1078444Y1060677D01*
X1080556Y1060677D01*
X1082506Y1059869D01*
X1083999Y1058376D01*
X1084807Y1056426D01*
X1084807Y1054314D01*
X1083999Y1052364D01*
X1082506Y1050871D01*
X1080556Y1050063D01*
X1078444Y1050063D01*
G37*
%LPD*%
%LPC*%
G36*
X1027644Y1050063D02*
X1027644Y1050063D01*
X1025694Y1050871D01*
X1024201Y1052364D01*
X1023393Y1054314D01*
X1023393Y1056426D01*
X1024201Y1058376D01*
X1025694Y1059869D01*
X1027644Y1060677D01*
X1029756Y1060677D01*
X1031706Y1059869D01*
X1033199Y1058376D01*
X1034007Y1056426D01*
X1034007Y1054314D01*
X1033199Y1052364D01*
X1031706Y1050871D01*
X1029756Y1050063D01*
X1027644Y1050063D01*
G37*
%LPD*%
%LPC*%
G36*
X692364Y471578D02*
X692364Y471578D01*
X690414Y472386D01*
X688921Y473879D01*
X688113Y475829D01*
X688113Y477941D01*
X688921Y479891D01*
X690414Y481384D01*
X692364Y482192D01*
X694476Y482192D01*
X696426Y481384D01*
X697919Y479891D01*
X698727Y477941D01*
X698727Y475829D01*
X697919Y473879D01*
X696426Y472386D01*
X694476Y471578D01*
X692364Y471578D01*
G37*
%LPD*%
%LPC*%
G36*
X706334Y1037998D02*
X706334Y1037998D01*
X704384Y1038806D01*
X702891Y1040299D01*
X702083Y1042249D01*
X702083Y1044361D01*
X702891Y1046311D01*
X704384Y1047804D01*
X706334Y1048612D01*
X708446Y1048612D01*
X710396Y1047804D01*
X711889Y1046311D01*
X712697Y1044361D01*
X712697Y1042249D01*
X711889Y1040299D01*
X710396Y1038806D01*
X708446Y1037998D01*
X706334Y1037998D01*
G37*
%LPD*%
%LPC*%
G36*
X673949Y1037363D02*
X673949Y1037363D01*
X671999Y1038171D01*
X670506Y1039664D01*
X669698Y1041614D01*
X669698Y1043726D01*
X670506Y1045676D01*
X671999Y1047169D01*
X673949Y1047977D01*
X676061Y1047977D01*
X678011Y1047169D01*
X679504Y1045676D01*
X680312Y1043726D01*
X680312Y1041614D01*
X679504Y1039664D01*
X678011Y1038171D01*
X676061Y1037363D01*
X673949Y1037363D01*
G37*
%LPD*%
%LPC*%
G36*
X716494Y1017043D02*
X716494Y1017043D01*
X714544Y1017851D01*
X713051Y1019344D01*
X712243Y1021294D01*
X712243Y1023406D01*
X713051Y1025356D01*
X714544Y1026849D01*
X716494Y1027657D01*
X718606Y1027657D01*
X720556Y1026849D01*
X722049Y1025356D01*
X722857Y1023406D01*
X722857Y1021294D01*
X722049Y1019344D01*
X720556Y1017851D01*
X718606Y1017043D01*
X716494Y1017043D01*
G37*
%LPD*%
%LPC*%
G36*
X514564Y450623D02*
X514564Y450623D01*
X512614Y451431D01*
X511121Y452924D01*
X510313Y454874D01*
X510313Y456986D01*
X511121Y458936D01*
X512614Y460429D01*
X514564Y461237D01*
X516676Y461237D01*
X518626Y460429D01*
X520119Y458936D01*
X520927Y456986D01*
X520927Y454874D01*
X520119Y452924D01*
X518626Y451431D01*
X516676Y450623D01*
X514564Y450623D01*
G37*
%LPD*%
%LPC*%
G36*
X672044Y1011963D02*
X672044Y1011963D01*
X670094Y1012771D01*
X668601Y1014264D01*
X667793Y1016214D01*
X667793Y1018326D01*
X668601Y1020276D01*
X670094Y1021769D01*
X672044Y1022577D01*
X674156Y1022577D01*
X676106Y1021769D01*
X677599Y1020276D01*
X678407Y1018326D01*
X678407Y1016214D01*
X677599Y1014264D01*
X676106Y1012771D01*
X674156Y1011963D01*
X672044Y1011963D01*
G37*
%LPD*%
%LPC*%
G36*
X534884Y425223D02*
X534884Y425223D01*
X532934Y426031D01*
X531441Y427524D01*
X530633Y429474D01*
X530633Y431586D01*
X531441Y433536D01*
X532934Y435029D01*
X534884Y435837D01*
X536996Y435837D01*
X538946Y435029D01*
X540439Y433536D01*
X541247Y431586D01*
X541247Y429474D01*
X540439Y427524D01*
X538946Y426031D01*
X536996Y425223D01*
X534884Y425223D01*
G37*
%LPD*%
%LPC*%
G36*
X1079714Y987833D02*
X1079714Y987833D01*
X1077764Y988641D01*
X1076271Y990134D01*
X1075463Y992084D01*
X1075463Y994196D01*
X1076271Y996146D01*
X1077764Y997639D01*
X1079714Y998447D01*
X1081826Y998447D01*
X1083776Y997639D01*
X1085269Y996146D01*
X1086077Y994196D01*
X1086077Y992084D01*
X1085269Y990134D01*
X1083776Y988641D01*
X1081826Y987833D01*
X1079714Y987833D01*
G37*
%LPD*%
%LPC*%
G36*
X498054Y420143D02*
X498054Y420143D01*
X496104Y420951D01*
X494611Y422444D01*
X493803Y424394D01*
X493803Y426506D01*
X494611Y428456D01*
X496104Y429949D01*
X498054Y430757D01*
X500166Y430757D01*
X502116Y429949D01*
X503609Y428456D01*
X504417Y426506D01*
X504417Y424394D01*
X503609Y422444D01*
X502116Y420951D01*
X500166Y420143D01*
X498054Y420143D01*
G37*
%LPD*%
%LPC*%
G36*
X321524Y419508D02*
X321524Y419508D01*
X319574Y420316D01*
X318081Y421809D01*
X317273Y423759D01*
X317273Y425871D01*
X318081Y427821D01*
X319574Y429314D01*
X321524Y430122D01*
X323636Y430122D01*
X325586Y429314D01*
X327079Y427821D01*
X327887Y425871D01*
X327887Y423759D01*
X327079Y421809D01*
X325586Y420316D01*
X323636Y419508D01*
X321524Y419508D01*
G37*
%LPD*%
%LPC*%
G36*
X1077174Y416333D02*
X1077174Y416333D01*
X1075224Y417141D01*
X1073731Y418634D01*
X1072923Y420584D01*
X1072923Y422696D01*
X1073731Y424646D01*
X1075224Y426139D01*
X1077174Y426947D01*
X1079286Y426947D01*
X1081236Y426139D01*
X1082729Y424646D01*
X1083537Y422696D01*
X1083537Y420584D01*
X1082729Y418634D01*
X1081236Y417141D01*
X1079286Y416333D01*
X1077174Y416333D01*
G37*
%LPD*%
%LPC*%
G36*
X1026374Y416333D02*
X1026374Y416333D01*
X1024424Y417141D01*
X1022931Y418634D01*
X1022123Y420584D01*
X1022123Y422696D01*
X1022931Y424646D01*
X1024424Y426139D01*
X1026374Y426947D01*
X1028486Y426947D01*
X1030436Y426139D01*
X1031929Y424646D01*
X1032737Y422696D01*
X1032737Y420584D01*
X1031929Y418634D01*
X1030436Y417141D01*
X1028486Y416333D01*
X1026374Y416333D01*
G37*
%LPD*%
%LPC*%
G36*
X1028914Y986563D02*
X1028914Y986563D01*
X1026964Y987371D01*
X1025471Y988864D01*
X1024663Y990814D01*
X1024663Y992926D01*
X1025471Y994876D01*
X1026964Y996369D01*
X1028914Y997177D01*
X1031026Y997177D01*
X1032976Y996369D01*
X1034469Y994876D01*
X1035277Y992926D01*
X1035277Y990814D01*
X1034469Y988864D01*
X1032976Y987371D01*
X1031026Y986563D01*
X1028914Y986563D01*
G37*
%LPD*%
%LPC*%
G36*
X649184Y404903D02*
X649184Y404903D01*
X647234Y405711D01*
X645741Y407204D01*
X644933Y409154D01*
X644933Y411266D01*
X645741Y413216D01*
X647234Y414709D01*
X649184Y415517D01*
X651296Y415517D01*
X653246Y414709D01*
X654739Y413216D01*
X655547Y411266D01*
X655547Y409154D01*
X654739Y407204D01*
X653246Y405711D01*
X651296Y404903D01*
X649184Y404903D01*
G37*
%LPD*%
%LPC*%
G36*
X756499Y972593D02*
X756499Y972593D01*
X754549Y973401D01*
X753056Y974894D01*
X752248Y976844D01*
X752248Y978956D01*
X753056Y980906D01*
X754549Y982399D01*
X756499Y983207D01*
X758611Y983207D01*
X760561Y982399D01*
X762054Y980906D01*
X762862Y978956D01*
X762862Y976844D01*
X762054Y974894D01*
X760561Y973401D01*
X758611Y972593D01*
X756499Y972593D01*
G37*
%LPD*%
%LPC*%
G36*
X738084Y971958D02*
X738084Y971958D01*
X736134Y972766D01*
X734641Y974259D01*
X733833Y976209D01*
X733833Y978321D01*
X734641Y980271D01*
X736134Y981764D01*
X738084Y982572D01*
X740196Y982572D01*
X742146Y981764D01*
X743639Y980271D01*
X744447Y978321D01*
X744447Y976209D01*
X743639Y974259D01*
X742146Y972766D01*
X740196Y971958D01*
X738084Y971958D01*
G37*
%LPD*%
%LPC*%
G36*
X492974Y394743D02*
X492974Y394743D01*
X491024Y395551D01*
X489531Y397044D01*
X488723Y398994D01*
X488723Y401106D01*
X489531Y403056D01*
X491024Y404549D01*
X492974Y405357D01*
X495086Y405357D01*
X497036Y404549D01*
X498529Y403056D01*
X499337Y401106D01*
X499337Y398994D01*
X498529Y397044D01*
X497036Y395551D01*
X495086Y394743D01*
X492974Y394743D01*
G37*
%LPD*%
%LPC*%
G36*
X686014Y958623D02*
X686014Y958623D01*
X684064Y959431D01*
X682571Y960924D01*
X681763Y962874D01*
X681763Y964986D01*
X682571Y966936D01*
X684064Y968429D01*
X686014Y969237D01*
X688126Y969237D01*
X690076Y968429D01*
X691569Y966936D01*
X692377Y964986D01*
X692377Y962874D01*
X691569Y960924D01*
X690076Y959431D01*
X688126Y958623D01*
X686014Y958623D01*
G37*
%LPD*%
%LPC*%
G36*
X755864Y952273D02*
X755864Y952273D01*
X753914Y953081D01*
X752421Y954574D01*
X751613Y956524D01*
X751613Y958636D01*
X752421Y960586D01*
X753914Y962079D01*
X755864Y962887D01*
X757976Y962887D01*
X759926Y962079D01*
X761419Y960586D01*
X762227Y958636D01*
X762227Y956524D01*
X761419Y954574D01*
X759926Y953081D01*
X757976Y952273D01*
X755864Y952273D01*
G37*
%LPD*%
%LPC*%
G36*
X692999Y944018D02*
X692999Y944018D01*
X691049Y944826D01*
X689556Y946319D01*
X688748Y948269D01*
X688748Y950381D01*
X689556Y952331D01*
X691049Y953824D01*
X692999Y954632D01*
X695111Y954632D01*
X697061Y953824D01*
X698554Y952331D01*
X699362Y950381D01*
X699362Y948269D01*
X698554Y946319D01*
X697061Y944826D01*
X695111Y944018D01*
X692999Y944018D01*
G37*
%LPD*%
%LPC*%
G36*
X485354Y369343D02*
X485354Y369343D01*
X483404Y370151D01*
X481911Y371644D01*
X481103Y373594D01*
X481103Y375706D01*
X481911Y377656D01*
X483404Y379149D01*
X485354Y379957D01*
X487466Y379957D01*
X489416Y379149D01*
X490909Y377656D01*
X491717Y375706D01*
X491717Y373594D01*
X490909Y371644D01*
X489416Y370151D01*
X487466Y369343D01*
X485354Y369343D01*
G37*
%LPD*%
%LPC*%
G36*
X730464Y368073D02*
X730464Y368073D01*
X728514Y368881D01*
X727021Y370374D01*
X726213Y372324D01*
X726213Y374436D01*
X727021Y376386D01*
X728514Y377879D01*
X730464Y378687D01*
X732576Y378687D01*
X734526Y377879D01*
X736019Y376386D01*
X736827Y374436D01*
X736827Y372324D01*
X736019Y370374D01*
X734526Y368881D01*
X732576Y368073D01*
X730464Y368073D01*
G37*
%LPD*%
%LPC*%
G36*
X711414Y368073D02*
X711414Y368073D01*
X709464Y368881D01*
X707971Y370374D01*
X707163Y372324D01*
X707163Y374436D01*
X707971Y376386D01*
X709464Y377879D01*
X711414Y378687D01*
X713526Y378687D01*
X715476Y377879D01*
X716969Y376386D01*
X717777Y374436D01*
X717777Y372324D01*
X716969Y370374D01*
X715476Y368881D01*
X713526Y368073D01*
X711414Y368073D01*
G37*
%LPD*%
%LPC*%
G36*
X1026374Y359183D02*
X1026374Y359183D01*
X1024424Y359991D01*
X1022931Y361484D01*
X1022123Y363434D01*
X1022123Y365546D01*
X1022931Y367496D01*
X1024424Y368989D01*
X1026374Y369797D01*
X1028486Y369797D01*
X1030436Y368989D01*
X1031929Y367496D01*
X1032737Y365546D01*
X1032737Y363434D01*
X1031929Y361484D01*
X1030436Y359991D01*
X1028486Y359183D01*
X1026374Y359183D01*
G37*
%LPD*%
%LPC*%
G36*
X1077174Y357913D02*
X1077174Y357913D01*
X1075224Y358721D01*
X1073731Y360214D01*
X1072923Y362164D01*
X1072923Y364276D01*
X1073731Y366226D01*
X1075224Y367719D01*
X1077174Y368527D01*
X1079286Y368527D01*
X1081236Y367719D01*
X1082729Y366226D01*
X1083537Y364276D01*
X1083537Y362164D01*
X1082729Y360214D01*
X1081236Y358721D01*
X1079286Y357913D01*
X1077174Y357913D01*
G37*
%LPD*%
%LPC*%
G36*
X677124Y942748D02*
X677124Y942748D01*
X675174Y943556D01*
X673681Y945049D01*
X672873Y946999D01*
X672873Y949111D01*
X673681Y951061D01*
X675174Y952554D01*
X677124Y953362D01*
X679236Y953362D01*
X681186Y952554D01*
X682679Y951061D01*
X683487Y949111D01*
X683487Y946999D01*
X682679Y945049D01*
X681186Y943556D01*
X679236Y942748D01*
X677124Y942748D01*
G37*
%LPD*%
%LPC*%
G36*
X714589Y921793D02*
X714589Y921793D01*
X712639Y922601D01*
X711146Y924094D01*
X710338Y926044D01*
X710338Y928156D01*
X711146Y930106D01*
X712639Y931599D01*
X714589Y932407D01*
X716701Y932407D01*
X718651Y931599D01*
X720144Y930106D01*
X720952Y928156D01*
X720952Y926044D01*
X720144Y924094D01*
X718651Y922601D01*
X716701Y921793D01*
X714589Y921793D01*
G37*
%LPD*%
%LPC*%
G36*
X730464Y347118D02*
X730464Y347118D01*
X728514Y347926D01*
X727021Y349419D01*
X726213Y351369D01*
X726213Y353481D01*
X727021Y355431D01*
X728514Y356924D01*
X730464Y357732D01*
X732576Y357732D01*
X734526Y356924D01*
X736019Y355431D01*
X736827Y353481D01*
X736827Y351369D01*
X736019Y349419D01*
X734526Y347926D01*
X732576Y347118D01*
X730464Y347118D01*
G37*
%LPD*%
%LPC*%
G36*
X710779Y347118D02*
X710779Y347118D01*
X708829Y347926D01*
X707336Y349419D01*
X706528Y351369D01*
X706528Y353481D01*
X707336Y355431D01*
X708829Y356924D01*
X710779Y357732D01*
X712891Y357732D01*
X714841Y356924D01*
X716334Y355431D01*
X717142Y353481D01*
X717142Y351369D01*
X716334Y349419D01*
X714841Y347926D01*
X712891Y347118D01*
X710779Y347118D01*
G37*
%LPD*%
%LPC*%
G36*
X354544Y343943D02*
X354544Y343943D01*
X352594Y344751D01*
X351101Y346244D01*
X350293Y348194D01*
X350293Y350306D01*
X351101Y352256D01*
X352594Y353749D01*
X354544Y354557D01*
X356656Y354557D01*
X358606Y353749D01*
X360099Y352256D01*
X360907Y350306D01*
X360907Y348194D01*
X360099Y346244D01*
X358606Y344751D01*
X356656Y343943D01*
X354544Y343943D01*
G37*
%LPD*%
%LPC*%
G36*
X481544Y343943D02*
X481544Y343943D01*
X479594Y344751D01*
X478101Y346244D01*
X477293Y348194D01*
X477293Y350306D01*
X478101Y352256D01*
X479594Y353749D01*
X481544Y354557D01*
X483656Y354557D01*
X485606Y353749D01*
X487099Y352256D01*
X487907Y350306D01*
X487907Y348194D01*
X487099Y346244D01*
X485606Y344751D01*
X483656Y343943D01*
X481544Y343943D01*
G37*
%LPD*%
%LPC*%
G36*
X679664Y919888D02*
X679664Y919888D01*
X677714Y920696D01*
X676221Y922189D01*
X675413Y924139D01*
X675413Y926251D01*
X676221Y928201D01*
X677714Y929694D01*
X679664Y930502D01*
X681776Y930502D01*
X683726Y929694D01*
X685219Y928201D01*
X686027Y926251D01*
X686027Y924139D01*
X685219Y922189D01*
X683726Y920696D01*
X681776Y919888D01*
X679664Y919888D01*
G37*
%LPD*%
%LPC*%
G36*
X1079714Y293143D02*
X1079714Y293143D01*
X1077764Y293951D01*
X1076271Y295444D01*
X1075463Y297394D01*
X1075463Y299506D01*
X1076271Y301456D01*
X1077764Y302949D01*
X1079714Y303757D01*
X1081826Y303757D01*
X1083776Y302949D01*
X1085269Y301456D01*
X1086077Y299506D01*
X1086077Y297394D01*
X1085269Y295444D01*
X1083776Y293951D01*
X1081826Y293143D01*
X1079714Y293143D01*
G37*
%LPD*%
%LPC*%
G36*
X1028914Y293143D02*
X1028914Y293143D01*
X1026964Y293951D01*
X1025471Y295444D01*
X1024663Y297394D01*
X1024663Y299506D01*
X1025471Y301456D01*
X1026964Y302949D01*
X1028914Y303757D01*
X1031026Y303757D01*
X1032976Y302949D01*
X1034469Y301456D01*
X1035277Y299506D01*
X1035277Y297394D01*
X1034469Y295444D01*
X1032976Y293951D01*
X1031026Y293143D01*
X1028914Y293143D01*
G37*
%LPD*%
%LPC*%
G36*
X710144Y284888D02*
X710144Y284888D01*
X708194Y285696D01*
X706701Y287189D01*
X705893Y289139D01*
X705893Y291251D01*
X706701Y293201D01*
X708194Y294694D01*
X710144Y295502D01*
X712256Y295502D01*
X714206Y294694D01*
X715699Y293201D01*
X716507Y291251D01*
X716507Y289139D01*
X715699Y287189D01*
X714206Y285696D01*
X712256Y284888D01*
X710144Y284888D01*
G37*
%LPD*%
%LPC*%
G36*
X781264Y281713D02*
X781264Y281713D01*
X779314Y282521D01*
X777821Y284014D01*
X777013Y285964D01*
X777013Y288076D01*
X777821Y290026D01*
X779314Y291519D01*
X781264Y292327D01*
X783376Y292327D01*
X785326Y291519D01*
X786819Y290026D01*
X787627Y288076D01*
X787627Y285964D01*
X786819Y284014D01*
X785326Y282521D01*
X783376Y281713D01*
X781264Y281713D01*
G37*
%LPD*%
%LPC*%
G36*
X1078444Y917983D02*
X1078444Y917983D01*
X1076494Y918791D01*
X1075001Y920284D01*
X1074193Y922234D01*
X1074193Y924346D01*
X1075001Y926296D01*
X1076494Y927789D01*
X1078444Y928597D01*
X1080556Y928597D01*
X1082506Y927789D01*
X1083999Y926296D01*
X1084807Y924346D01*
X1084807Y922234D01*
X1083999Y920284D01*
X1082506Y918791D01*
X1080556Y917983D01*
X1078444Y917983D01*
G37*
%LPD*%
%LPC*%
G36*
X395184Y256948D02*
X395184Y256948D01*
X393234Y257756D01*
X391741Y259249D01*
X390933Y261199D01*
X390933Y263311D01*
X391741Y265261D01*
X393234Y266754D01*
X395184Y267562D01*
X397296Y267562D01*
X399246Y266754D01*
X400739Y265261D01*
X401547Y263311D01*
X401547Y261199D01*
X400739Y259249D01*
X399246Y257756D01*
X397296Y256948D01*
X395184Y256948D01*
G37*
%LPD*%
%LPC*%
G36*
X440904Y255678D02*
X440904Y255678D01*
X438954Y256486D01*
X437461Y257979D01*
X436653Y259929D01*
X436653Y262041D01*
X437461Y263991D01*
X438954Y265484D01*
X440904Y266292D01*
X443016Y266292D01*
X444966Y265484D01*
X446459Y263991D01*
X447267Y262041D01*
X447267Y259929D01*
X446459Y257979D01*
X444966Y256486D01*
X443016Y255678D01*
X440904Y255678D01*
G37*
%LPD*%
%LPC*%
G36*
X1027644Y917983D02*
X1027644Y917983D01*
X1025694Y918791D01*
X1024201Y920284D01*
X1023393Y922234D01*
X1023393Y924346D01*
X1024201Y926296D01*
X1025694Y927789D01*
X1027644Y928597D01*
X1029756Y928597D01*
X1031706Y927789D01*
X1033199Y926296D01*
X1034007Y924346D01*
X1034007Y922234D01*
X1033199Y920284D01*
X1031706Y918791D01*
X1029756Y917983D01*
X1027644Y917983D01*
G37*
%LPD*%
%LPC*%
G36*
X676489Y900838D02*
X676489Y900838D01*
X674539Y901646D01*
X673046Y903139D01*
X672238Y905089D01*
X672238Y907201D01*
X673046Y909151D01*
X674539Y910644D01*
X676489Y911452D01*
X678601Y911452D01*
X680551Y910644D01*
X682044Y909151D01*
X682852Y907201D01*
X682852Y905089D01*
X682044Y903139D01*
X680551Y901646D01*
X678601Y900838D01*
X676489Y900838D01*
G37*
%LPD*%
%LPC*%
G36*
X366609Y239168D02*
X366609Y239168D01*
X364659Y239976D01*
X363166Y241469D01*
X362358Y243419D01*
X362358Y245531D01*
X363166Y247481D01*
X364659Y248974D01*
X366609Y249782D01*
X368721Y249782D01*
X370671Y248974D01*
X372164Y247481D01*
X372972Y245531D01*
X372972Y243419D01*
X372164Y241469D01*
X370671Y239976D01*
X368721Y239168D01*
X366609Y239168D01*
G37*
%LPD*%
%LPC*%
G36*
X807934Y893853D02*
X807934Y893853D01*
X805984Y894661D01*
X804491Y896154D01*
X803683Y898104D01*
X803683Y900216D01*
X804491Y902166D01*
X805984Y903659D01*
X807934Y904467D01*
X810046Y904467D01*
X811996Y903659D01*
X813489Y902166D01*
X814297Y900216D01*
X814297Y898104D01*
X813489Y896154D01*
X811996Y894661D01*
X810046Y893853D01*
X807934Y893853D01*
G37*
%LPD*%
%LPC*%
G36*
X440904Y237263D02*
X440904Y237263D01*
X438954Y238071D01*
X437461Y239564D01*
X436653Y241514D01*
X436653Y243626D01*
X437461Y245576D01*
X438954Y247069D01*
X440904Y247877D01*
X443016Y247877D01*
X444966Y247069D01*
X446459Y245576D01*
X447267Y243626D01*
X447267Y241514D01*
X446459Y239564D01*
X444966Y238071D01*
X443016Y237263D01*
X440904Y237263D01*
G37*
%LPD*%
%LPC*%
G36*
X1023834Y224563D02*
X1023834Y224563D01*
X1021884Y225371D01*
X1020391Y226864D01*
X1019583Y228814D01*
X1019583Y230926D01*
X1020391Y232876D01*
X1021884Y234369D01*
X1023834Y235177D01*
X1025946Y235177D01*
X1027896Y234369D01*
X1029389Y232876D01*
X1030197Y230926D01*
X1030197Y228814D01*
X1029389Y226864D01*
X1027896Y225371D01*
X1025946Y224563D01*
X1023834Y224563D01*
G37*
%LPD*%
%LPC*%
G36*
X1075904Y224563D02*
X1075904Y224563D01*
X1073954Y225371D01*
X1072461Y226864D01*
X1071653Y228814D01*
X1071653Y230926D01*
X1072461Y232876D01*
X1073954Y234369D01*
X1075904Y235177D01*
X1078016Y235177D01*
X1079966Y234369D01*
X1081459Y232876D01*
X1082267Y230926D01*
X1082267Y228814D01*
X1081459Y226864D01*
X1079966Y225371D01*
X1078016Y224563D01*
X1075904Y224563D01*
G37*
%LPD*%
%LPC*%
G36*
X744434Y877343D02*
X744434Y877343D01*
X742484Y878151D01*
X740991Y879644D01*
X740183Y881594D01*
X740183Y883706D01*
X740991Y885656D01*
X742484Y887149D01*
X744434Y887957D01*
X746546Y887957D01*
X748496Y887149D01*
X749989Y885656D01*
X750797Y883706D01*
X750797Y881594D01*
X749989Y879644D01*
X748496Y878151D01*
X746546Y877343D01*
X744434Y877343D01*
G37*
%LPD*%
%LPC*%
G36*
X366609Y222023D02*
X366609Y222023D01*
X364659Y222831D01*
X363166Y224324D01*
X362358Y226274D01*
X362358Y228386D01*
X363166Y230336D01*
X364659Y231829D01*
X366609Y232637D01*
X368721Y232637D01*
X370671Y231829D01*
X372164Y230336D01*
X372972Y228386D01*
X372972Y226274D01*
X372164Y224324D01*
X370671Y222831D01*
X368721Y222023D01*
X366609Y222023D01*
G37*
%LPD*%
%LPC*%
G36*
X440904Y220118D02*
X440904Y220118D01*
X438954Y220926D01*
X437461Y222419D01*
X436653Y224369D01*
X436653Y226481D01*
X437461Y228431D01*
X438954Y229924D01*
X440904Y230732D01*
X443016Y230732D01*
X444966Y229924D01*
X446459Y228431D01*
X447267Y226481D01*
X447267Y224369D01*
X446459Y222419D01*
X444966Y220926D01*
X443016Y220118D01*
X440904Y220118D01*
G37*
%LPD*%
%LPC*%
G36*
X466939Y217578D02*
X466939Y217578D01*
X464989Y218386D01*
X463496Y219879D01*
X462688Y221829D01*
X462688Y223941D01*
X463496Y225891D01*
X464989Y227384D01*
X466939Y228192D01*
X469051Y228192D01*
X471001Y227384D01*
X472494Y225891D01*
X473302Y223941D01*
X473302Y221829D01*
X472494Y219879D01*
X471001Y218386D01*
X469051Y217578D01*
X466939Y217578D01*
G37*
%LPD*%
%LPC*%
G36*
X1079714Y848133D02*
X1079714Y848133D01*
X1077764Y848941D01*
X1076271Y850434D01*
X1075463Y852384D01*
X1075463Y854496D01*
X1076271Y856446D01*
X1077764Y857939D01*
X1079714Y858747D01*
X1081826Y858747D01*
X1083776Y857939D01*
X1085269Y856446D01*
X1086077Y854496D01*
X1086077Y852384D01*
X1085269Y850434D01*
X1083776Y848941D01*
X1081826Y848133D01*
X1079714Y848133D01*
G37*
%LPD*%
%LPC*%
G36*
X1028914Y846863D02*
X1028914Y846863D01*
X1026964Y847671D01*
X1025471Y849164D01*
X1024663Y851114D01*
X1024663Y853226D01*
X1025471Y855176D01*
X1026964Y856669D01*
X1028914Y857477D01*
X1031026Y857477D01*
X1032976Y856669D01*
X1034469Y855176D01*
X1035277Y853226D01*
X1035277Y851114D01*
X1034469Y849164D01*
X1032976Y847671D01*
X1031026Y846863D01*
X1028914Y846863D01*
G37*
%LPD*%
%LPC*%
G36*
X660614Y789713D02*
X660614Y789713D01*
X658664Y790521D01*
X657171Y792014D01*
X656363Y793964D01*
X656363Y796076D01*
X657171Y798026D01*
X658664Y799519D01*
X660614Y800327D01*
X662726Y800327D01*
X664676Y799519D01*
X666169Y798026D01*
X666977Y796076D01*
X666977Y793964D01*
X666169Y792014D01*
X664676Y790521D01*
X662726Y789713D01*
X660614Y789713D01*
G37*
%LPD*%
%LPC*%
G36*
X738719Y952273D02*
X738719Y952273D01*
X736769Y953081D01*
X735276Y954574D01*
X734468Y956524D01*
X734468Y958636D01*
X735276Y960586D01*
X736769Y962079D01*
X738719Y962887D01*
X740831Y962887D01*
X742781Y962079D01*
X744274Y960586D01*
X745082Y958636D01*
X745082Y956524D01*
X744274Y954574D01*
X742781Y953081D01*
X740831Y952273D01*
X738719Y952273D01*
G37*
%LPD*%
%LPC*%
G36*
X707604Y765583D02*
X707604Y765583D01*
X705654Y766391D01*
X704161Y767884D01*
X703353Y769834D01*
X703353Y771946D01*
X704161Y773896D01*
X705654Y775389D01*
X707604Y776197D01*
X709716Y776197D01*
X711666Y775389D01*
X713159Y773896D01*
X713967Y771946D01*
X713967Y769834D01*
X713159Y767884D01*
X711666Y766391D01*
X709716Y765583D01*
X707604Y765583D01*
G37*
%LPD*%
%LPC*%
G36*
X1077174Y755423D02*
X1077174Y755423D01*
X1075224Y756231D01*
X1073731Y757724D01*
X1072923Y759674D01*
X1072923Y761786D01*
X1073731Y763736D01*
X1075224Y765229D01*
X1077174Y766037D01*
X1079286Y766037D01*
X1081236Y765229D01*
X1082729Y763736D01*
X1083537Y761786D01*
X1083537Y759674D01*
X1082729Y757724D01*
X1081236Y756231D01*
X1079286Y755423D01*
X1077174Y755423D01*
G37*
%LPD*%
%LPC*%
G36*
X631404Y176303D02*
X631404Y176303D01*
X629454Y177111D01*
X627961Y178604D01*
X627153Y180554D01*
X627153Y182666D01*
X627961Y184616D01*
X629454Y186109D01*
X631404Y186917D01*
X633516Y186917D01*
X635466Y186109D01*
X636959Y184616D01*
X637767Y182666D01*
X637767Y180554D01*
X636959Y178604D01*
X635466Y177111D01*
X633516Y176303D01*
X631404Y176303D01*
G37*
%LPD*%
%LPC*%
G36*
X1025104Y167413D02*
X1025104Y167413D01*
X1023154Y168221D01*
X1021661Y169714D01*
X1020853Y171664D01*
X1020853Y173776D01*
X1021661Y175726D01*
X1023154Y177219D01*
X1025104Y178027D01*
X1027216Y178027D01*
X1029166Y177219D01*
X1030659Y175726D01*
X1031467Y173776D01*
X1031467Y171664D01*
X1030659Y169714D01*
X1029166Y168221D01*
X1027216Y167413D01*
X1025104Y167413D01*
G37*
%LPD*%
%LPC*%
G36*
X460589Y257583D02*
X460589Y257583D01*
X458639Y258391D01*
X457146Y259884D01*
X456338Y261834D01*
X456338Y263946D01*
X457146Y265896D01*
X458639Y267389D01*
X460589Y268197D01*
X462701Y268197D01*
X464651Y267389D01*
X466144Y265896D01*
X466952Y263946D01*
X466952Y261834D01*
X466144Y259884D01*
X464651Y258391D01*
X462701Y257583D01*
X460589Y257583D01*
G37*
%LPD*%
%LPC*%
G36*
X1026374Y755423D02*
X1026374Y755423D01*
X1024424Y756231D01*
X1022931Y757724D01*
X1022123Y759674D01*
X1022123Y761786D01*
X1022931Y763736D01*
X1024424Y765229D01*
X1026374Y766037D01*
X1028486Y766037D01*
X1030436Y765229D01*
X1031929Y763736D01*
X1032737Y761786D01*
X1032737Y759674D01*
X1031929Y757724D01*
X1030436Y756231D01*
X1028486Y755423D01*
X1026374Y755423D01*
G37*
%LPD*%
%LPC*%
G36*
X1075904Y166143D02*
X1075904Y166143D01*
X1073954Y166951D01*
X1072461Y168444D01*
X1071653Y170394D01*
X1071653Y172506D01*
X1072461Y174456D01*
X1073954Y175949D01*
X1075904Y176757D01*
X1078016Y176757D01*
X1079966Y175949D01*
X1081459Y174456D01*
X1082267Y172506D01*
X1082267Y170394D01*
X1081459Y168444D01*
X1079966Y166951D01*
X1078016Y166143D01*
X1075904Y166143D01*
G37*
%LPD*%
%LPC*%
G36*
X750784Y744628D02*
X750784Y744628D01*
X748834Y745436D01*
X747341Y746929D01*
X746533Y748879D01*
X746533Y750991D01*
X747341Y752941D01*
X748834Y754434D01*
X750784Y755242D01*
X752896Y755242D01*
X754846Y754434D01*
X756339Y752941D01*
X757147Y750991D01*
X757147Y748879D01*
X756339Y746929D01*
X754846Y745436D01*
X752896Y744628D01*
X750784Y744628D01*
G37*
%LPD*%
%LPC*%
G36*
X731099Y742723D02*
X731099Y742723D01*
X729149Y743531D01*
X727656Y745024D01*
X726848Y746974D01*
X726848Y749086D01*
X727656Y751036D01*
X729149Y752529D01*
X731099Y753337D01*
X733211Y753337D01*
X735161Y752529D01*
X736654Y751036D01*
X737462Y749086D01*
X737462Y746974D01*
X736654Y745024D01*
X735161Y743531D01*
X733211Y742723D01*
X731099Y742723D01*
G37*
%LPD*%
%LPC*%
G36*
X751419Y723673D02*
X751419Y723673D01*
X749469Y724481D01*
X747976Y725974D01*
X747168Y727924D01*
X747168Y730036D01*
X747976Y731986D01*
X749469Y733479D01*
X751419Y734287D01*
X753531Y734287D01*
X755481Y733479D01*
X756974Y731986D01*
X757782Y730036D01*
X757782Y727924D01*
X756974Y725974D01*
X755481Y724481D01*
X753531Y723673D01*
X751419Y723673D01*
G37*
%LPD*%
%LPC*%
G36*
X724749Y123598D02*
X724749Y123598D01*
X722799Y124406D01*
X721306Y125899D01*
X720498Y127849D01*
X720498Y129961D01*
X721306Y131911D01*
X722799Y133404D01*
X724749Y134212D01*
X726861Y134212D01*
X728811Y133404D01*
X730304Y131911D01*
X731112Y129961D01*
X731112Y127849D01*
X730304Y125899D01*
X728811Y124406D01*
X726861Y123598D01*
X724749Y123598D01*
G37*
%LPD*%
%LPC*%
G36*
X705064Y123598D02*
X705064Y123598D01*
X703114Y124406D01*
X701621Y125899D01*
X700813Y127849D01*
X700813Y129961D01*
X701621Y131911D01*
X703114Y133404D01*
X705064Y134212D01*
X707176Y134212D01*
X709126Y133404D01*
X710619Y131911D01*
X711427Y129961D01*
X711427Y127849D01*
X710619Y125899D01*
X709126Y124406D01*
X707176Y123598D01*
X705064Y123598D01*
G37*
%LPD*%
%LPC*%
G36*
X725384Y103913D02*
X725384Y103913D01*
X723434Y104721D01*
X721941Y106214D01*
X721133Y108164D01*
X721133Y110276D01*
X721941Y112226D01*
X723434Y113719D01*
X725384Y114527D01*
X727496Y114527D01*
X729446Y113719D01*
X730939Y112226D01*
X731747Y110276D01*
X731747Y108164D01*
X730939Y106214D01*
X729446Y104721D01*
X727496Y103913D01*
X725384Y103913D01*
G37*
%LPD*%
%LPC*%
G36*
X705064Y103913D02*
X705064Y103913D01*
X703114Y104721D01*
X701621Y106214D01*
X700813Y108164D01*
X700813Y110276D01*
X701621Y112226D01*
X703114Y113719D01*
X705064Y114527D01*
X707176Y114527D01*
X709126Y113719D01*
X710619Y112226D01*
X711427Y110276D01*
X711427Y108164D01*
X710619Y106214D01*
X709126Y104721D01*
X707176Y103913D01*
X705064Y103913D01*
G37*
%LPD*%
%LPC*%
G36*
X1075904Y101373D02*
X1075904Y101373D01*
X1073954Y102181D01*
X1072461Y103674D01*
X1071653Y105624D01*
X1071653Y107736D01*
X1072461Y109686D01*
X1073954Y111179D01*
X1075904Y111987D01*
X1078016Y111987D01*
X1079966Y111179D01*
X1081459Y109686D01*
X1082267Y107736D01*
X1082267Y105624D01*
X1081459Y103674D01*
X1079966Y102181D01*
X1078016Y101373D01*
X1075904Y101373D01*
G37*
%LPD*%
%LPC*%
G36*
X1025104Y101373D02*
X1025104Y101373D01*
X1023154Y102181D01*
X1021661Y103674D01*
X1020853Y105624D01*
X1020853Y107736D01*
X1021661Y109686D01*
X1023154Y111179D01*
X1025104Y111987D01*
X1027216Y111987D01*
X1029166Y111179D01*
X1030659Y109686D01*
X1031467Y107736D01*
X1031467Y105624D01*
X1030659Y103674D01*
X1029166Y102181D01*
X1027216Y101373D01*
X1025104Y101373D01*
G37*
%LPD*%
%LPC*%
G36*
X670774Y98833D02*
X670774Y98833D01*
X668824Y99641D01*
X667331Y101134D01*
X666523Y103084D01*
X666523Y105196D01*
X667331Y107146D01*
X668824Y108639D01*
X670774Y109447D01*
X672886Y109447D01*
X674836Y108639D01*
X676329Y107146D01*
X677137Y105196D01*
X677137Y103084D01*
X676329Y101134D01*
X674836Y99641D01*
X672886Y98833D01*
X670774Y98833D01*
G37*
%LPD*%
%LPC*%
G36*
X730464Y723673D02*
X730464Y723673D01*
X728514Y724481D01*
X727021Y725974D01*
X726213Y727924D01*
X726213Y730036D01*
X727021Y731986D01*
X728514Y733479D01*
X730464Y734287D01*
X732576Y734287D01*
X734526Y733479D01*
X736019Y731986D01*
X736827Y730036D01*
X736827Y727924D01*
X736019Y725974D01*
X734526Y724481D01*
X732576Y723673D01*
X730464Y723673D01*
G37*
%LPD*%
%LPC*%
G36*
X632674Y710973D02*
X632674Y710973D01*
X630724Y711781D01*
X629231Y713274D01*
X628423Y715224D01*
X628423Y717336D01*
X629231Y719286D01*
X630724Y720779D01*
X632674Y721587D01*
X634786Y721587D01*
X636736Y720779D01*
X638229Y719286D01*
X639037Y717336D01*
X639037Y715224D01*
X638229Y713274D01*
X636736Y711781D01*
X634786Y710973D01*
X632674Y710973D01*
G37*
%LPD*%
%LPC*%
G36*
X661884Y88673D02*
X661884Y88673D01*
X659934Y89481D01*
X658441Y90974D01*
X657633Y92924D01*
X657633Y95036D01*
X658441Y96986D01*
X659934Y98479D01*
X661884Y99287D01*
X663996Y99287D01*
X665946Y98479D01*
X667439Y96986D01*
X668247Y95036D01*
X668247Y92924D01*
X667439Y90974D01*
X665946Y89481D01*
X663996Y88673D01*
X661884Y88673D01*
G37*
%LPD*%
%LPC*%
G36*
X652994Y78513D02*
X652994Y78513D01*
X651044Y79321D01*
X649551Y80814D01*
X648743Y82764D01*
X648743Y84876D01*
X649551Y86826D01*
X651044Y88319D01*
X652994Y89127D01*
X655106Y89127D01*
X657056Y88319D01*
X658549Y86826D01*
X659357Y84876D01*
X659357Y82764D01*
X658549Y80814D01*
X657056Y79321D01*
X655106Y78513D01*
X652994Y78513D01*
G37*
%LPD*%
%LPC*%
G36*
X602194Y710973D02*
X602194Y710973D01*
X600244Y711781D01*
X598751Y713274D01*
X597943Y715224D01*
X597943Y717336D01*
X598751Y719286D01*
X600244Y720779D01*
X602194Y721587D01*
X604306Y721587D01*
X606256Y720779D01*
X607749Y719286D01*
X608557Y717336D01*
X608557Y715224D01*
X607749Y713274D01*
X606256Y711781D01*
X604306Y710973D01*
X602194Y710973D01*
G37*
%LPD*%
%LPC*%
G36*
X618704Y710338D02*
X618704Y710338D01*
X616754Y711146D01*
X615261Y712639D01*
X614453Y714589D01*
X614453Y716701D01*
X615261Y718651D01*
X616754Y720144D01*
X618704Y720952D01*
X620816Y720952D01*
X622766Y720144D01*
X624259Y718651D01*
X625067Y716701D01*
X625067Y714589D01*
X624259Y712639D01*
X622766Y711146D01*
X620816Y710338D01*
X618704Y710338D01*
G37*
%LPD*%
%LPC*%
G36*
X788884Y57558D02*
X788884Y57558D01*
X786934Y58366D01*
X785441Y59859D01*
X784633Y61809D01*
X784633Y63921D01*
X785441Y65871D01*
X786934Y67364D01*
X788884Y68172D01*
X790996Y68172D01*
X792946Y67364D01*
X794439Y65871D01*
X795247Y63921D01*
X795247Y61809D01*
X794439Y59859D01*
X792946Y58366D01*
X790996Y57558D01*
X788884Y57558D01*
G37*
%LPD*%
%LPC*%
G36*
X703159Y51208D02*
X703159Y51208D01*
X701209Y52016D01*
X699716Y53509D01*
X698908Y55459D01*
X698908Y57571D01*
X699716Y59521D01*
X701209Y61014D01*
X703159Y61822D01*
X705271Y61822D01*
X707221Y61014D01*
X708714Y59521D01*
X709522Y57571D01*
X709522Y55459D01*
X708714Y53509D01*
X707221Y52016D01*
X705271Y51208D01*
X703159Y51208D01*
G37*
%LPD*%
%LPC*%
G36*
X1078444Y36603D02*
X1078444Y36603D01*
X1076494Y37411D01*
X1075001Y38904D01*
X1074193Y40854D01*
X1074193Y42966D01*
X1075001Y44916D01*
X1076494Y46409D01*
X1078444Y47217D01*
X1080556Y47217D01*
X1082506Y46409D01*
X1083999Y44916D01*
X1084807Y42966D01*
X1084807Y40854D01*
X1083999Y38904D01*
X1082506Y37411D01*
X1080556Y36603D01*
X1078444Y36603D01*
G37*
%LPD*%
%LPC*%
G36*
X1027644Y35333D02*
X1027644Y35333D01*
X1025694Y36141D01*
X1024201Y37634D01*
X1023393Y39584D01*
X1023393Y41696D01*
X1024201Y43646D01*
X1025694Y45139D01*
X1027644Y45947D01*
X1029756Y45947D01*
X1031706Y45139D01*
X1033199Y43646D01*
X1034007Y41696D01*
X1034007Y39584D01*
X1033199Y37634D01*
X1031706Y36141D01*
X1029756Y35333D01*
X1027644Y35333D01*
G37*
%LPD*%
D10*
X12700Y266700D02*
X-139700Y266700D01*
D11*
X15875Y266700D03*
D10*
X12700Y292100D02*
X-139700Y292100D01*
D11*
X15875Y292100D03*
D10*
X12700Y317500D02*
X-139700Y317500D01*
D11*
X15875Y317500D03*
D10*
X12700Y342900D02*
X-139700Y342900D01*
D11*
X15875Y342900D03*
D10*
X12700Y368300D02*
X-139700Y368300D01*
D11*
X15875Y368300D03*
D10*
X12700Y393700D02*
X-139700Y393700D01*
D11*
X15875Y393700D03*
D10*
X12700Y419100D02*
X-139700Y419100D01*
D11*
X15875Y419100D03*
D10*
X12700Y444500D02*
X-139700Y444500D01*
D11*
X15875Y444500D03*
D10*
X12700Y469900D02*
X-139700Y469900D01*
D11*
X15875Y469900D03*
D10*
X12700Y495300D02*
X-139700Y495300D01*
D11*
X15875Y495300D03*
D10*
X12700Y520700D02*
X-139700Y520700D01*
D11*
X15875Y520700D03*
D10*
X12700Y546100D02*
X-139700Y546100D01*
D11*
X15875Y546100D03*
D10*
X12700Y571500D02*
X-139700Y571500D01*
D11*
X15875Y571500D03*
D10*
X12700Y596900D02*
X-139700Y596900D01*
D11*
X15875Y596900D03*
D10*
X12700Y622300D02*
X-139700Y622300D01*
D11*
X15875Y622300D03*
D10*
X12700Y647700D02*
X-139700Y647700D01*
D11*
X15875Y647700D03*
D10*
X12700Y673100D02*
X-139700Y673100D01*
D11*
X15875Y673100D03*
D10*
X12700Y698500D02*
X-139700Y698500D01*
D11*
X15875Y698500D03*
D10*
X12700Y723900D02*
X-139700Y723900D01*
D11*
X15875Y723900D03*
D10*
X12700Y749300D02*
X-139700Y749300D01*
D11*
X15875Y749300D03*
D10*
X12700Y774700D02*
X-139700Y774700D01*
D11*
X15875Y774700D03*
D10*
X12700Y800100D02*
X-139700Y800100D01*
D11*
X15875Y800100D03*
D10*
X12700Y825500D02*
X-139700Y825500D01*
D11*
X15875Y825500D03*
D10*
X12700Y850900D02*
X-139700Y850900D01*
D11*
X15875Y850900D03*
D10*
X12700Y876300D02*
X-139700Y876300D01*
D11*
X15875Y876300D03*
D12*
X515620Y716915D03*
X541020Y716915D03*
X515620Y742315D03*
X541020Y742315D03*
X515620Y767715D03*
X541020Y767715D03*
X515620Y793115D03*
X541020Y793115D03*
X515620Y818515D03*
X541020Y818515D03*
X515620Y843915D03*
X541020Y843915D03*
X515620Y869315D03*
X541020Y869315D03*
X515620Y894715D03*
X541020Y894715D03*
X515620Y920115D03*
X541020Y920115D03*
X515620Y945515D03*
X541020Y945515D03*
X83820Y717550D03*
X109220Y717550D03*
X83820Y742950D03*
X109220Y742950D03*
X83820Y768350D03*
X109220Y768350D03*
X83820Y793750D03*
X109220Y793750D03*
X83820Y819150D03*
X109220Y819150D03*
X83820Y844550D03*
X109220Y844550D03*
X83820Y869950D03*
X109220Y869950D03*
X83820Y895350D03*
X109220Y895350D03*
X83820Y920750D03*
X109220Y920750D03*
X83820Y946150D03*
X109220Y946150D03*
D13*
X142240Y250190D03*
X167640Y250190D03*
X193040Y250190D03*
D14*
X922020Y180340D03*
X922020Y205740D03*
X980440Y68580D03*
X980440Y93980D03*
X980440Y182880D03*
X980440Y208280D03*
X918210Y95250D03*
X918210Y69850D03*
X977900Y458470D03*
X977900Y483870D03*
X980440Y350520D03*
X980440Y375920D03*
X922020Y458470D03*
X922020Y483870D03*
X922020Y375920D03*
X922020Y350520D03*
X979170Y728980D03*
X979170Y754380D03*
X982980Y612140D03*
X982980Y637540D03*
X927100Y728980D03*
X927100Y754380D03*
X928370Y638810D03*
X928370Y613410D03*
X981710Y1032510D03*
X981710Y1057910D03*
X981710Y902970D03*
X981710Y928370D03*
X928370Y1032510D03*
X928370Y1057910D03*
X930910Y930910D03*
X930910Y905510D03*
D15*
X1522095Y191535D03*
X1522095Y216935D03*
D16*
X1572895Y242335D03*
X1572895Y140735D03*
D15*
X1522095Y444500D03*
X1522095Y469900D03*
D16*
X1572895Y495300D03*
X1572895Y393700D03*
D15*
X1522095Y697865D03*
X1522095Y723265D03*
D16*
X1572895Y748665D03*
X1572895Y647065D03*
D15*
X1522095Y951865D03*
X1522095Y977265D03*
D16*
X1572895Y1002665D03*
X1572895Y901065D03*
D14*
X1452880Y241700D03*
X1427480Y241700D03*
X1451610Y472440D03*
X1426210Y472440D03*
X1454150Y749300D03*
X1428750Y749300D03*
X1457960Y1000760D03*
X1432560Y1000760D03*
D15*
X1442085Y143910D03*
X1442085Y169310D03*
X1442085Y194710D03*
X1441450Y649605D03*
X1441450Y675005D03*
X1441450Y700405D03*
X1443355Y906780D03*
X1443355Y932180D03*
X1443355Y957580D03*
X1440180Y371475D03*
X1440180Y396875D03*
X1440180Y422275D03*
D17*
X127635Y469900D03*
D18*
X147320Y655320D03*
D19*
X482600Y349250D03*
X499110Y425450D03*
X497840Y510540D03*
X495300Y589280D03*
X485140Y599440D03*
X445770Y651510D03*
X563245Y643255D03*
X563880Y652780D03*
D18*
X238760Y272415D03*
X238760Y224790D03*
D19*
X316230Y479425D03*
X315595Y450215D03*
X381635Y464185D03*
X313690Y344170D03*
X389255Y321945D03*
X401955Y639445D03*
X387350Y543560D03*
X387985Y381000D03*
D18*
X389890Y654685D03*
D19*
X394970Y624840D03*
X373380Y655320D03*
X388620Y639445D03*
X313690Y358140D03*
X313690Y327025D03*
X329565Y344170D03*
X329565Y358140D03*
X342900Y357505D03*
D18*
X46990Y419100D03*
X224790Y327660D03*
X328930Y328295D03*
D10*
X254635Y297815D02*
X224790Y327660D01*
X254635Y297815D02*
X328930Y297815D01*
X328930Y328295D01*
D19*
X354330Y412750D03*
X355600Y336550D03*
X353060Y575310D03*
X353060Y499110D03*
X321945Y411480D03*
X350520Y600710D03*
X323850Y574675D03*
X323215Y499110D03*
D10*
X445770Y742315D02*
X515620Y742315D01*
X389890Y686435D02*
X389890Y654685D01*
X389890Y686435D02*
X445770Y742315D01*
D19*
X685165Y715010D03*
X667385Y336550D03*
X662940Y93980D03*
X535940Y430530D03*
X680720Y925195D03*
X619760Y715645D03*
X675640Y708025D03*
X660400Y326390D03*
X654050Y83820D03*
X585470Y523240D03*
X677545Y906145D03*
X633730Y716280D03*
X693420Y725170D03*
X674370Y346710D03*
X671830Y104140D03*
X694055Y949325D03*
X629754Y571040D03*
X545374Y579328D03*
D20*
X629754Y579275D02*
X629754Y571040D01*
X545427Y579275D02*
X545374Y579328D01*
X545427Y579275D02*
X629754Y579275D01*
D19*
X697230Y172720D03*
X699135Y413385D03*
X726440Y787400D03*
X592455Y427990D03*
X551180Y509270D03*
X717550Y1022350D03*
X675005Y1042670D03*
D21*
X384175Y767715D03*
X400685Y818515D03*
D19*
X680720Y153670D03*
X684530Y397510D03*
X708660Y770890D03*
X486410Y374650D03*
X712470Y989330D03*
X668020Y553720D03*
X678180Y948055D03*
X603250Y716280D03*
X571500Y393700D03*
D20*
X668020Y490220D02*
X668020Y553720D01*
X668020Y490220D02*
X571500Y393700D01*
D21*
X462280Y713740D03*
X462280Y668655D03*
X570865Y755650D03*
X553720Y680085D03*
X570865Y851535D03*
X570865Y953135D03*
D19*
X687070Y165100D03*
X692150Y406400D03*
X718820Y781050D03*
X711200Y999490D03*
X707390Y1043305D03*
X632460Y181610D03*
X650240Y410210D03*
X661670Y795020D03*
X673100Y1017270D03*
X628650Y589280D03*
X618490Y567690D03*
X628650Y633730D03*
X642620Y633730D03*
X654685Y1088390D03*
X655955Y1107440D03*
X755015Y1096010D03*
X662305Y1098550D03*
X648970Y512445D03*
X624205Y459740D03*
X515620Y455930D03*
X494030Y400050D03*
X366395Y643255D03*
X323850Y512445D03*
X323850Y588010D03*
X295275Y318770D03*
X295275Y346075D03*
X295275Y357505D03*
X281305Y357505D03*
X295275Y331470D03*
X322580Y424815D03*
X355600Y349250D03*
D18*
X278765Y332740D03*
D19*
X693420Y476885D03*
X648335Y483235D03*
X745490Y882650D03*
X704215Y56515D03*
X711200Y290195D03*
X739775Y666750D03*
X715645Y927100D03*
X687070Y963930D03*
X466725Y320040D03*
X481965Y305435D03*
X525780Y345440D03*
X482600Y335915D03*
X448310Y412750D03*
X526415Y403860D03*
X497840Y413385D03*
X520065Y430530D03*
X474980Y448310D03*
X452755Y448310D03*
X462915Y468630D03*
X520065Y494030D03*
X476250Y498475D03*
X511175Y537845D03*
X480060Y631825D03*
X509270Y620395D03*
X446405Y575945D03*
X495300Y576580D03*
X497840Y497205D03*
X542925Y349250D03*
X544830Y461010D03*
X546100Y495935D03*
X545465Y551815D03*
X553085Y626110D03*
X563245Y633730D03*
X518160Y649605D03*
X489585Y649605D03*
X462915Y650875D03*
X443230Y607695D03*
X1431290Y1023620D03*
X1427480Y772160D03*
X1424940Y494030D03*
X1427480Y263290D03*
X848360Y914400D03*
X847090Y683260D03*
X822325Y69215D03*
X830580Y985520D03*
X826770Y759460D03*
X802640Y370840D03*
X806450Y137160D03*
X801370Y87630D03*
X844550Y106680D03*
X807720Y326390D03*
X847090Y347980D03*
X829310Y707390D03*
X873760Y730250D03*
X830580Y942340D03*
X861060Y948690D03*
X765810Y1017270D03*
X768350Y934720D03*
X787400Y866140D03*
X765175Y784860D03*
X763270Y706120D03*
X782320Y648970D03*
X741680Y411480D03*
X742950Y328930D03*
X762000Y283210D03*
X735330Y167640D03*
X736600Y83820D03*
X747395Y20320D03*
X715010Y938530D03*
X707390Y706755D03*
X698500Y331470D03*
X689610Y78740D03*
X730250Y693420D03*
X681990Y129540D03*
X684530Y373380D03*
X707390Y749300D03*
X632460Y149860D03*
X632460Y116840D03*
X650240Y388620D03*
X650240Y367030D03*
X661670Y772160D03*
X662940Y742950D03*
X673100Y974090D03*
X673100Y993140D03*
X702310Y734060D03*
X684530Y358775D03*
X680085Y114935D03*
X697230Y499110D03*
X690880Y504190D03*
X614680Y487045D03*
X708025Y597535D03*
X597535Y606425D03*
X605790Y567690D03*
X673100Y956310D03*
X615950Y632460D03*
X643890Y654050D03*
X712470Y977900D03*
X352425Y206375D03*
X431800Y213360D03*
X734060Y867410D03*
X730885Y640715D03*
X704215Y268605D03*
X702945Y43180D03*
X825500Y303530D03*
X825500Y316230D03*
X826135Y289560D03*
X819785Y79375D03*
X821690Y58420D03*
X810895Y106045D03*
X789940Y80010D03*
X794385Y316230D03*
X812165Y344170D03*
X847090Y671830D03*
X847090Y694690D03*
X833120Y734695D03*
X818515Y697230D03*
X848360Y902970D03*
X848360Y925830D03*
X819785Y931545D03*
X842645Y962025D03*
X690880Y594360D03*
X699135Y601345D03*
X668020Y1060450D03*
X1176655Y62230D03*
X1195705Y81915D03*
X1214755Y62865D03*
X1285240Y64770D03*
X1306830Y84455D03*
X1329055Y66040D03*
X1289050Y129540D03*
X1308100Y148590D03*
X1327785Y129540D03*
X1174750Y127000D03*
X1214120Y127000D03*
X1193165Y146050D03*
X1174750Y188595D03*
X1193165Y204470D03*
X1210310Y187960D03*
X1282700Y191770D03*
X1322705Y191770D03*
X1299845Y210185D03*
X1280795Y252095D03*
X1302385Y272415D03*
X1322705Y252730D03*
X1172845Y250825D03*
X1211580Y251460D03*
X1190625Y271145D03*
X1176655Y318770D03*
X1194435Y337185D03*
X1214755Y320040D03*
X1283335Y319405D03*
X1304925Y340360D03*
X1323340Y321310D03*
X1320800Y382270D03*
X1302385Y403225D03*
X1280795Y382270D03*
X1212215Y378460D03*
X1174750Y378460D03*
X1193165Y396240D03*
X1170940Y440690D03*
X1190625Y457200D03*
X1210945Y440690D03*
X1280160Y444500D03*
X1318895Y444500D03*
X1297305Y462280D03*
X1322070Y509270D03*
X1278890Y509270D03*
X1301115Y529590D03*
X1210945Y508635D03*
X1174115Y508635D03*
X1192530Y525780D03*
X1284605Y592455D03*
X1323975Y593090D03*
X1304925Y614045D03*
X1172845Y593090D03*
X1212215Y593090D03*
X1191260Y612140D03*
X1169670Y653415D03*
X1191895Y669925D03*
X1209040Y653415D03*
X1169035Y714375D03*
X1188085Y732155D03*
X1210945Y715010D03*
X1278255Y721360D03*
X1298575Y740410D03*
X1320165Y721360D03*
X1279525Y783590D03*
X1319530Y783590D03*
X1297940Y802005D03*
X1167765Y777240D03*
X1186815Y795655D03*
X1208405Y777240D03*
X1280795Y652780D03*
X1300480Y669290D03*
X1322070Y652780D03*
X1173480Y874395D03*
X1191260Y892810D03*
X1212215Y874395D03*
X1278890Y876300D03*
X1301115Y895350D03*
X1318895Y876300D03*
X1314450Y946150D03*
X1273175Y945515D03*
X1296035Y965200D03*
X1207770Y941070D03*
X1169035Y941070D03*
X1186180Y960120D03*
X1167130Y1004570D03*
X1186815Y1022350D03*
X1206500Y1004570D03*
X1273810Y1008380D03*
X1296670Y1025525D03*
X1316990Y1008380D03*
X1315085Y1075690D03*
X1296670Y1092835D03*
X1273175Y1075690D03*
X1209675Y1068705D03*
X1165860Y1068705D03*
X1186180Y1087120D03*
X570230Y17145D03*
X603250Y16510D03*
X633095Y16510D03*
X663575Y16510D03*
X692150Y16510D03*
X765810Y17145D03*
X802005Y17145D03*
X840105Y17145D03*
X883920Y17145D03*
X922020Y16510D03*
X961390Y16510D03*
X1006475Y16510D03*
X1052830Y17145D03*
X1089660Y17145D03*
X1125855Y17145D03*
X1163320Y17145D03*
X1198880Y17145D03*
X1236980Y17145D03*
X1275080Y17145D03*
X1321435Y17145D03*
X1375410Y17145D03*
X1436370Y16510D03*
X1489075Y16510D03*
X1536065Y16510D03*
X1575435Y17145D03*
X1630045Y17780D03*
X1631315Y65405D03*
X1631950Y107315D03*
X1631950Y137795D03*
X1631950Y167005D03*
X1633220Y212090D03*
X1633220Y256540D03*
X1633220Y306705D03*
X1633855Y349250D03*
X1633220Y404495D03*
X1633220Y459105D03*
X1633220Y513080D03*
X1633220Y568325D03*
X1633855Y626110D03*
X1633220Y687705D03*
X1633855Y760095D03*
X1633220Y808355D03*
X1633855Y846455D03*
X1633220Y911860D03*
X1633220Y973455D03*
X1632585Y1034415D03*
X1632585Y1094740D03*
X1632585Y1124585D03*
X1593850Y1124585D03*
X1538605Y1123315D03*
X1496695Y1123950D03*
X1455420Y1124585D03*
X1407160Y1124585D03*
X1339215Y1124585D03*
X1288415Y1125220D03*
X1241425Y1124585D03*
X1180465Y1124585D03*
X1136015Y1124585D03*
X1093470Y1124585D03*
X1032510Y1125220D03*
X981075Y1124585D03*
X916305Y1124585D03*
X862965Y1123950D03*
X818515Y1124585D03*
X775970Y1124585D03*
X727075Y1125220D03*
X694055Y1125220D03*
X655320Y1124585D03*
X596900Y1010920D03*
X594995Y939800D03*
X594995Y864870D03*
X602615Y648970D03*
X613410Y680085D03*
X601980Y506730D03*
X600075Y443865D03*
X598170Y347345D03*
X599440Y384175D03*
X598805Y299720D03*
X551815Y280035D03*
X568325Y186055D03*
X568325Y161925D03*
X567690Y122555D03*
X567055Y86360D03*
X567690Y53975D03*
X313690Y248920D03*
X313055Y198755D03*
X332105Y221615D03*
X344170Y221615D03*
X331470Y234315D03*
X331470Y245745D03*
X332105Y255270D03*
X344170Y254635D03*
X483235Y213995D03*
X494030Y213995D03*
X504825Y213995D03*
X494030Y205740D03*
X504825Y205740D03*
X504190Y234315D03*
X483235Y205740D03*
X495935Y280035D03*
X434975Y280035D03*
X372745Y280670D03*
X334010Y280035D03*
X393700Y203835D03*
X403225Y201930D03*
X362585Y204470D03*
X433070Y201930D03*
X443865Y202565D03*
X470535Y203200D03*
X596265Y1054735D03*
X596265Y1108075D03*
X595630Y807720D03*
X596265Y728980D03*
X532130Y207010D03*
X656590Y520700D03*
X728980Y1007110D03*
X697865Y394970D03*
X691515Y150495D03*
X1079500Y1055370D03*
X1080770Y993140D03*
X1079500Y923290D03*
X1080770Y853440D03*
X1078230Y760730D03*
X1079500Y697230D03*
X1078230Y636270D03*
X1079500Y577850D03*
X1074420Y488950D03*
X1078230Y421640D03*
X1078230Y363220D03*
X1080770Y298450D03*
X1076960Y229870D03*
X1076960Y171450D03*
X1076960Y106680D03*
X1079500Y41910D03*
X789940Y62865D03*
X782320Y287020D03*
X803910Y665480D03*
X808990Y899160D03*
X367665Y227330D03*
X367665Y244475D03*
X391795Y243840D03*
X400050Y243840D03*
X400685Y227965D03*
X392430Y227965D03*
X396240Y262255D03*
X1028700Y1055370D03*
X1029970Y991870D03*
X1028700Y923290D03*
X1029970Y852170D03*
X1027430Y760730D03*
X1028700Y698500D03*
X1026160Y637540D03*
X1028700Y576580D03*
X1023620Y488950D03*
X1027430Y421640D03*
X1027430Y364490D03*
X1029970Y298450D03*
X1024890Y229870D03*
X1026160Y172720D03*
X1026160Y106680D03*
X1028700Y40640D03*
X441960Y260985D03*
X441960Y242570D03*
X441960Y225425D03*
X467995Y222885D03*
X706120Y128905D03*
X725805Y128905D03*
X706120Y109220D03*
X726440Y109220D03*
X739140Y977265D03*
X757555Y977900D03*
X756920Y957580D03*
X739775Y957580D03*
X711835Y352425D03*
X731520Y352425D03*
X712470Y373380D03*
X731520Y373380D03*
X751840Y749935D03*
X731520Y728980D03*
X732155Y748030D03*
X752475Y728980D03*
X461645Y262890D03*
D18*
X58420Y266700D03*
X39370Y316865D03*
X39370Y237490D03*
D10*
X39370Y316865D01*
D18*
X38735Y800100D03*
X103505Y113030D03*
D10*
X38735Y467360D02*
X38735Y800100D01*
X38735Y467360D02*
X103505Y402590D01*
X103505Y113030D01*
D18*
X419735Y39370D03*
X46355Y368300D03*
D19*
X639095Y550723D03*
M02*
