G04 EAGLE Gerber RS-274X export*
G75*
%MOMM*%
%FSLAX34Y34*%
%LPD*%
%INSolderpaste Top*%
%IPPOS*%
%AMOC8*
5,1,8,0,0,1.08239X$1,22.5*%
G01*
%ADD10R,1.981200X0.558800*%
%ADD11R,1.676400X0.508000*%
%ADD12R,0.754800X0.199200*%
%ADD13R,0.199200X0.804800*%
%ADD14R,0.799997X0.755600*%
%ADD15R,1.005600X0.949997*%
%ADD16R,0.863600X0.812800*%
%ADD17R,0.965200X0.939800*%
%ADD18R,0.812800X0.863600*%
%ADD19R,0.860000X0.980000*%
%ADD20R,0.980000X0.920000*%
%ADD21R,1.160000X1.820000*%
%ADD22R,1.820000X1.160000*%
%ADD23R,0.890000X0.930000*%
%ADD24R,1.000000X1.400000*%
%ADD25R,1.090000X2.720000*%
%ADD26C,0.220000*%
%ADD27R,0.980000X0.870000*%
%ADD28R,0.870000X0.980000*%
%ADD29R,1.300000X1.500000*%
%ADD30R,0.920000X0.980000*%
%ADD31R,1.461200X0.350800*%
%ADD32R,0.755600X0.799997*%
%ADD33R,1.498600X1.244600*%
%ADD34R,1.498600X2.616200*%
%ADD35R,1.470000X1.140000*%
%ADD36R,1.140000X1.470000*%
%ADD37R,1.100000X1.000000*%
%ADD38C,0.152600*%
%ADD39C,0.131600*%
%ADD40R,2.200000X2.150000*%
%ADD41R,2.150000X2.200000*%
%ADD42C,0.171119*%
%ADD43C,0.171097*%
%ADD44C,0.129488*%
%ADD45R,0.870000X0.930000*%
%ADD46R,0.930000X0.870000*%
%ADD47R,0.965200X0.812800*%
%ADD48C,0.300000*%

G36*
X761262Y968615D02*
X761262Y968615D01*
X761264Y968614D01*
X761307Y968634D01*
X761351Y968652D01*
X761351Y968654D01*
X761353Y968655D01*
X761386Y968740D01*
X761386Y982240D01*
X761385Y982242D01*
X761386Y982244D01*
X761366Y982287D01*
X761348Y982331D01*
X761346Y982331D01*
X761345Y982333D01*
X761260Y982366D01*
X747760Y982366D01*
X747758Y982365D01*
X747756Y982366D01*
X747713Y982346D01*
X747669Y982328D01*
X747669Y982326D01*
X747667Y982325D01*
X747634Y982240D01*
X747634Y968740D01*
X747635Y968738D01*
X747634Y968736D01*
X747654Y968693D01*
X747672Y968649D01*
X747674Y968649D01*
X747675Y968647D01*
X747760Y968614D01*
X761260Y968614D01*
X761262Y968615D01*
G37*
G36*
X745762Y968615D02*
X745762Y968615D01*
X745764Y968614D01*
X745807Y968634D01*
X745851Y968652D01*
X745851Y968654D01*
X745853Y968655D01*
X745886Y968740D01*
X745886Y982240D01*
X745885Y982242D01*
X745886Y982244D01*
X745866Y982287D01*
X745848Y982331D01*
X745846Y982331D01*
X745845Y982333D01*
X745760Y982366D01*
X732260Y982366D01*
X732258Y982365D01*
X732256Y982366D01*
X732213Y982346D01*
X732169Y982328D01*
X732169Y982326D01*
X732167Y982325D01*
X732134Y982240D01*
X732134Y968740D01*
X732135Y968738D01*
X732134Y968736D01*
X732154Y968693D01*
X732172Y968649D01*
X732174Y968649D01*
X732175Y968647D01*
X732260Y968614D01*
X745760Y968614D01*
X745762Y968615D01*
G37*
G36*
X761262Y953115D02*
X761262Y953115D01*
X761264Y953114D01*
X761307Y953134D01*
X761351Y953152D01*
X761351Y953154D01*
X761353Y953155D01*
X761386Y953240D01*
X761386Y966740D01*
X761385Y966742D01*
X761386Y966744D01*
X761366Y966787D01*
X761348Y966831D01*
X761346Y966831D01*
X761345Y966833D01*
X761260Y966866D01*
X747760Y966866D01*
X747758Y966865D01*
X747756Y966866D01*
X747713Y966846D01*
X747669Y966828D01*
X747669Y966826D01*
X747667Y966825D01*
X747634Y966740D01*
X747634Y953240D01*
X747635Y953238D01*
X747634Y953236D01*
X747654Y953193D01*
X747672Y953149D01*
X747674Y953149D01*
X747675Y953147D01*
X747760Y953114D01*
X761260Y953114D01*
X761262Y953115D01*
G37*
G36*
X745762Y953115D02*
X745762Y953115D01*
X745764Y953114D01*
X745807Y953134D01*
X745851Y953152D01*
X745851Y953154D01*
X745853Y953155D01*
X745886Y953240D01*
X745886Y966740D01*
X745885Y966742D01*
X745886Y966744D01*
X745866Y966787D01*
X745848Y966831D01*
X745846Y966831D01*
X745845Y966833D01*
X745760Y966866D01*
X732260Y966866D01*
X732258Y966865D01*
X732256Y966866D01*
X732213Y966846D01*
X732169Y966828D01*
X732169Y966826D01*
X732167Y966825D01*
X732134Y966740D01*
X732134Y953240D01*
X732135Y953238D01*
X732134Y953236D01*
X732154Y953193D01*
X732172Y953149D01*
X732174Y953149D01*
X732175Y953147D01*
X732260Y953114D01*
X745760Y953114D01*
X745762Y953115D01*
G37*
G36*
X740682Y740015D02*
X740682Y740015D01*
X740684Y740014D01*
X740727Y740034D01*
X740771Y740052D01*
X740771Y740054D01*
X740773Y740055D01*
X740806Y740140D01*
X740806Y753640D01*
X740805Y753642D01*
X740806Y753644D01*
X740786Y753687D01*
X740768Y753731D01*
X740766Y753731D01*
X740765Y753733D01*
X740680Y753766D01*
X727180Y753766D01*
X727178Y753765D01*
X727176Y753766D01*
X727133Y753746D01*
X727089Y753728D01*
X727089Y753726D01*
X727087Y753725D01*
X727054Y753640D01*
X727054Y740140D01*
X727055Y740138D01*
X727054Y740136D01*
X727074Y740093D01*
X727092Y740049D01*
X727094Y740049D01*
X727095Y740047D01*
X727180Y740014D01*
X740680Y740014D01*
X740682Y740015D01*
G37*
G36*
X756182Y740015D02*
X756182Y740015D01*
X756184Y740014D01*
X756227Y740034D01*
X756271Y740052D01*
X756271Y740054D01*
X756273Y740055D01*
X756306Y740140D01*
X756306Y753640D01*
X756305Y753642D01*
X756306Y753644D01*
X756286Y753687D01*
X756268Y753731D01*
X756266Y753731D01*
X756265Y753733D01*
X756180Y753766D01*
X742680Y753766D01*
X742678Y753765D01*
X742676Y753766D01*
X742633Y753746D01*
X742589Y753728D01*
X742589Y753726D01*
X742587Y753725D01*
X742554Y753640D01*
X742554Y740140D01*
X742555Y740138D01*
X742554Y740136D01*
X742574Y740093D01*
X742592Y740049D01*
X742594Y740049D01*
X742595Y740047D01*
X742680Y740014D01*
X756180Y740014D01*
X756182Y740015D01*
G37*
G36*
X756182Y724515D02*
X756182Y724515D01*
X756184Y724514D01*
X756227Y724534D01*
X756271Y724552D01*
X756271Y724554D01*
X756273Y724555D01*
X756306Y724640D01*
X756306Y738140D01*
X756305Y738142D01*
X756306Y738144D01*
X756286Y738187D01*
X756268Y738231D01*
X756266Y738231D01*
X756265Y738233D01*
X756180Y738266D01*
X742680Y738266D01*
X742678Y738265D01*
X742676Y738266D01*
X742633Y738246D01*
X742589Y738228D01*
X742589Y738226D01*
X742587Y738225D01*
X742554Y738140D01*
X742554Y724640D01*
X742555Y724638D01*
X742554Y724636D01*
X742574Y724593D01*
X742592Y724549D01*
X742594Y724549D01*
X742595Y724547D01*
X742680Y724514D01*
X756180Y724514D01*
X756182Y724515D01*
G37*
G36*
X740682Y724515D02*
X740682Y724515D01*
X740684Y724514D01*
X740727Y724534D01*
X740771Y724552D01*
X740771Y724554D01*
X740773Y724555D01*
X740806Y724640D01*
X740806Y738140D01*
X740805Y738142D01*
X740806Y738144D01*
X740786Y738187D01*
X740768Y738231D01*
X740766Y738231D01*
X740765Y738233D01*
X740680Y738266D01*
X727180Y738266D01*
X727178Y738265D01*
X727176Y738266D01*
X727133Y738246D01*
X727089Y738228D01*
X727089Y738226D01*
X727087Y738225D01*
X727054Y738140D01*
X727054Y724640D01*
X727055Y724638D01*
X727054Y724636D01*
X727074Y724593D01*
X727092Y724549D01*
X727094Y724549D01*
X727095Y724547D01*
X727180Y724514D01*
X740680Y724514D01*
X740682Y724515D01*
G37*
G36*
X735862Y364095D02*
X735862Y364095D01*
X735864Y364094D01*
X735907Y364114D01*
X735951Y364132D01*
X735951Y364134D01*
X735953Y364135D01*
X735986Y364220D01*
X735986Y377720D01*
X735985Y377722D01*
X735986Y377724D01*
X735966Y377767D01*
X735948Y377811D01*
X735946Y377811D01*
X735945Y377813D01*
X735860Y377846D01*
X722360Y377846D01*
X722358Y377845D01*
X722356Y377846D01*
X722313Y377826D01*
X722269Y377808D01*
X722269Y377806D01*
X722267Y377805D01*
X722234Y377720D01*
X722234Y364220D01*
X722235Y364218D01*
X722234Y364216D01*
X722254Y364173D01*
X722272Y364129D01*
X722274Y364129D01*
X722275Y364127D01*
X722360Y364094D01*
X735860Y364094D01*
X735862Y364095D01*
G37*
G36*
X720362Y364095D02*
X720362Y364095D01*
X720364Y364094D01*
X720407Y364114D01*
X720451Y364132D01*
X720451Y364134D01*
X720453Y364135D01*
X720486Y364220D01*
X720486Y377720D01*
X720485Y377722D01*
X720486Y377724D01*
X720466Y377767D01*
X720448Y377811D01*
X720446Y377811D01*
X720445Y377813D01*
X720360Y377846D01*
X706860Y377846D01*
X706858Y377845D01*
X706856Y377846D01*
X706813Y377826D01*
X706769Y377808D01*
X706769Y377806D01*
X706767Y377805D01*
X706734Y377720D01*
X706734Y364220D01*
X706735Y364218D01*
X706734Y364216D01*
X706754Y364173D01*
X706772Y364129D01*
X706774Y364129D01*
X706775Y364127D01*
X706860Y364094D01*
X720360Y364094D01*
X720362Y364095D01*
G37*
G36*
X735862Y348595D02*
X735862Y348595D01*
X735864Y348594D01*
X735907Y348614D01*
X735951Y348632D01*
X735951Y348634D01*
X735953Y348635D01*
X735986Y348720D01*
X735986Y362220D01*
X735985Y362222D01*
X735986Y362224D01*
X735966Y362267D01*
X735948Y362311D01*
X735946Y362311D01*
X735945Y362313D01*
X735860Y362346D01*
X722360Y362346D01*
X722358Y362345D01*
X722356Y362346D01*
X722313Y362326D01*
X722269Y362308D01*
X722269Y362306D01*
X722267Y362305D01*
X722234Y362220D01*
X722234Y348720D01*
X722235Y348718D01*
X722234Y348716D01*
X722254Y348673D01*
X722272Y348629D01*
X722274Y348629D01*
X722275Y348627D01*
X722360Y348594D01*
X735860Y348594D01*
X735862Y348595D01*
G37*
G36*
X720362Y348595D02*
X720362Y348595D01*
X720364Y348594D01*
X720407Y348614D01*
X720451Y348632D01*
X720451Y348634D01*
X720453Y348635D01*
X720486Y348720D01*
X720486Y362220D01*
X720485Y362222D01*
X720486Y362224D01*
X720466Y362267D01*
X720448Y362311D01*
X720446Y362311D01*
X720445Y362313D01*
X720360Y362346D01*
X706860Y362346D01*
X706858Y362345D01*
X706856Y362346D01*
X706813Y362326D01*
X706769Y362308D01*
X706769Y362306D01*
X706767Y362305D01*
X706734Y362220D01*
X706734Y348720D01*
X706735Y348718D01*
X706734Y348716D01*
X706754Y348673D01*
X706772Y348629D01*
X706774Y348629D01*
X706775Y348627D01*
X706860Y348594D01*
X720360Y348594D01*
X720362Y348595D01*
G37*
G36*
X730782Y120255D02*
X730782Y120255D01*
X730784Y120254D01*
X730827Y120274D01*
X730871Y120292D01*
X730871Y120294D01*
X730873Y120295D01*
X730906Y120380D01*
X730906Y133880D01*
X730905Y133882D01*
X730906Y133884D01*
X730886Y133927D01*
X730868Y133971D01*
X730866Y133971D01*
X730865Y133973D01*
X730780Y134006D01*
X717280Y134006D01*
X717278Y134005D01*
X717276Y134006D01*
X717233Y133986D01*
X717189Y133968D01*
X717189Y133966D01*
X717187Y133965D01*
X717154Y133880D01*
X717154Y120380D01*
X717155Y120378D01*
X717154Y120376D01*
X717174Y120333D01*
X717192Y120289D01*
X717194Y120289D01*
X717195Y120287D01*
X717280Y120254D01*
X730780Y120254D01*
X730782Y120255D01*
G37*
G36*
X715282Y120255D02*
X715282Y120255D01*
X715284Y120254D01*
X715327Y120274D01*
X715371Y120292D01*
X715371Y120294D01*
X715373Y120295D01*
X715406Y120380D01*
X715406Y133880D01*
X715405Y133882D01*
X715406Y133884D01*
X715386Y133927D01*
X715368Y133971D01*
X715366Y133971D01*
X715365Y133973D01*
X715280Y134006D01*
X701780Y134006D01*
X701778Y134005D01*
X701776Y134006D01*
X701733Y133986D01*
X701689Y133968D01*
X701689Y133966D01*
X701687Y133965D01*
X701654Y133880D01*
X701654Y120380D01*
X701655Y120378D01*
X701654Y120376D01*
X701674Y120333D01*
X701692Y120289D01*
X701694Y120289D01*
X701695Y120287D01*
X701780Y120254D01*
X715280Y120254D01*
X715282Y120255D01*
G37*
G36*
X730782Y104755D02*
X730782Y104755D01*
X730784Y104754D01*
X730827Y104774D01*
X730871Y104792D01*
X730871Y104794D01*
X730873Y104795D01*
X730906Y104880D01*
X730906Y118380D01*
X730905Y118382D01*
X730906Y118384D01*
X730886Y118427D01*
X730868Y118471D01*
X730866Y118471D01*
X730865Y118473D01*
X730780Y118506D01*
X717280Y118506D01*
X717278Y118505D01*
X717276Y118506D01*
X717233Y118486D01*
X717189Y118468D01*
X717189Y118466D01*
X717187Y118465D01*
X717154Y118380D01*
X717154Y104880D01*
X717155Y104878D01*
X717154Y104876D01*
X717174Y104833D01*
X717192Y104789D01*
X717194Y104789D01*
X717195Y104787D01*
X717280Y104754D01*
X730780Y104754D01*
X730782Y104755D01*
G37*
G36*
X715282Y104755D02*
X715282Y104755D01*
X715284Y104754D01*
X715327Y104774D01*
X715371Y104792D01*
X715371Y104794D01*
X715373Y104795D01*
X715406Y104880D01*
X715406Y118380D01*
X715405Y118382D01*
X715406Y118384D01*
X715386Y118427D01*
X715368Y118471D01*
X715366Y118471D01*
X715365Y118473D01*
X715280Y118506D01*
X701780Y118506D01*
X701778Y118505D01*
X701776Y118506D01*
X701733Y118486D01*
X701689Y118468D01*
X701689Y118466D01*
X701687Y118465D01*
X701654Y118380D01*
X701654Y104880D01*
X701655Y104878D01*
X701654Y104876D01*
X701674Y104833D01*
X701692Y104789D01*
X701694Y104789D01*
X701695Y104787D01*
X701780Y104754D01*
X715280Y104754D01*
X715282Y104755D01*
G37*
D10*
X372237Y425450D03*
X372237Y412750D03*
X372237Y400050D03*
X372237Y387350D03*
X372237Y374650D03*
X372237Y361950D03*
X372237Y349250D03*
X372237Y336550D03*
X465963Y336550D03*
X465963Y349250D03*
X465963Y361950D03*
X465963Y374650D03*
X465963Y387350D03*
X465963Y400050D03*
X465963Y412750D03*
X465963Y425450D03*
D11*
X368935Y588010D03*
X368935Y575310D03*
X368935Y562610D03*
X368935Y549910D03*
X368935Y537210D03*
X368935Y524510D03*
X368935Y511810D03*
X368935Y499110D03*
X461645Y499110D03*
X461645Y511810D03*
X461645Y524510D03*
X461645Y537210D03*
X461645Y549910D03*
X461645Y562610D03*
X461645Y575310D03*
X461645Y588010D03*
D12*
X692006Y136880D03*
X692006Y131880D03*
X692006Y126880D03*
X692006Y121880D03*
X692006Y116880D03*
X692006Y111880D03*
X692006Y106880D03*
X692006Y101880D03*
D13*
X698780Y94856D03*
X703780Y94856D03*
X708780Y94856D03*
X713780Y94856D03*
X718780Y94856D03*
X723780Y94856D03*
X728780Y94856D03*
X733780Y94856D03*
D12*
X740554Y101880D03*
X740554Y106880D03*
X740554Y111880D03*
X740554Y116880D03*
X740554Y121880D03*
X740554Y126880D03*
X740554Y131880D03*
X740554Y136880D03*
D13*
X733780Y143904D03*
X728780Y143904D03*
X723780Y143904D03*
X718780Y143904D03*
X713780Y143904D03*
X708780Y143904D03*
X703780Y143904D03*
X698780Y143904D03*
D14*
X670560Y44292D03*
X670560Y59848D03*
D15*
X644232Y149860D03*
X658788Y149860D03*
D16*
X644271Y116840D03*
X658749Y116840D03*
D17*
X659003Y181610D03*
X644017Y181610D03*
D18*
X487680Y426339D03*
X487680Y411861D03*
D19*
X525750Y445770D03*
X541050Y445770D03*
X527020Y309880D03*
X542320Y309880D03*
X521940Y593090D03*
X537240Y593090D03*
X523210Y565150D03*
X538510Y565150D03*
X525750Y364490D03*
X541050Y364490D03*
D18*
X485140Y588899D03*
X485140Y574421D03*
X487680Y511429D03*
X487680Y496951D03*
X335280Y411226D03*
X335280Y425704D03*
X692150Y44831D03*
X692150Y59309D03*
D20*
X746760Y44320D03*
X746760Y59820D03*
D16*
X790829Y90170D03*
X776351Y90170D03*
D21*
X807230Y63500D03*
X777730Y63500D03*
D16*
X793369Y137160D03*
X778891Y137160D03*
D22*
X828040Y107170D03*
X828040Y136670D03*
D23*
X775890Y111760D03*
X791290Y111760D03*
D24*
X1051560Y129110D03*
X1061060Y107110D03*
X1042060Y107110D03*
D25*
X1266100Y129540D03*
X1235800Y129540D03*
D24*
X1050290Y253570D03*
X1059790Y231570D03*
X1040790Y231570D03*
D25*
X1263560Y250190D03*
X1233260Y250190D03*
D24*
X1051560Y195150D03*
X1061060Y173150D03*
X1042060Y173150D03*
X1054100Y64340D03*
X1063600Y42340D03*
X1044600Y42340D03*
X1052830Y386920D03*
X1062330Y364920D03*
X1043330Y364920D03*
D25*
X1266100Y378460D03*
X1235800Y378460D03*
D24*
X1049020Y511380D03*
X1058520Y489380D03*
X1039520Y489380D03*
D25*
X1261020Y506730D03*
X1230720Y506730D03*
D24*
X1052830Y445340D03*
X1062330Y423340D03*
X1043330Y423340D03*
X1055370Y320880D03*
X1064870Y298880D03*
X1045870Y298880D03*
D12*
X697086Y380720D03*
X697086Y375720D03*
X697086Y370720D03*
X697086Y365720D03*
X697086Y360720D03*
X697086Y355720D03*
X697086Y350720D03*
X697086Y345720D03*
D13*
X703860Y338696D03*
X708860Y338696D03*
X713860Y338696D03*
X718860Y338696D03*
X723860Y338696D03*
X728860Y338696D03*
X733860Y338696D03*
X738860Y338696D03*
D12*
X745634Y345720D03*
X745634Y350720D03*
X745634Y355720D03*
X745634Y360720D03*
X745634Y365720D03*
X745634Y370720D03*
X745634Y375720D03*
X745634Y380720D03*
D13*
X738860Y387744D03*
X733860Y387744D03*
X728860Y387744D03*
X723860Y387744D03*
X718860Y387744D03*
X713860Y387744D03*
X708860Y387744D03*
X703860Y387744D03*
D14*
X675640Y283052D03*
X675640Y298608D03*
D15*
X660742Y388620D03*
X675298Y388620D03*
D16*
X660781Y367030D03*
X675259Y367030D03*
D17*
X675513Y410210D03*
X660527Y410210D03*
D18*
X701040Y283591D03*
X701040Y298069D03*
D20*
X749300Y283080D03*
X749300Y298580D03*
D16*
X795909Y326390D03*
X781431Y326390D03*
D21*
X811040Y303530D03*
X781540Y303530D03*
D16*
X790829Y372110D03*
X776351Y372110D03*
D22*
X830580Y348470D03*
X830580Y377970D03*
D23*
X779700Y347980D03*
X795100Y347980D03*
D26*
X1256890Y202750D02*
X1265690Y202750D01*
X1265690Y178250D01*
X1256890Y178250D01*
X1256890Y202750D01*
X1256890Y180340D02*
X1265690Y180340D01*
X1265690Y182430D02*
X1256890Y182430D01*
X1256890Y184520D02*
X1265690Y184520D01*
X1265690Y186610D02*
X1256890Y186610D01*
X1256890Y188700D02*
X1265690Y188700D01*
X1265690Y190790D02*
X1256890Y190790D01*
X1256890Y192880D02*
X1265690Y192880D01*
X1265690Y194970D02*
X1256890Y194970D01*
X1256890Y197060D02*
X1265690Y197060D01*
X1265690Y199150D02*
X1256890Y199150D01*
X1256890Y201240D02*
X1265690Y201240D01*
X1237390Y202750D02*
X1228590Y202750D01*
X1237390Y202750D02*
X1237390Y178250D01*
X1228590Y178250D01*
X1228590Y202750D01*
X1228590Y180340D02*
X1237390Y180340D01*
X1237390Y182430D02*
X1228590Y182430D01*
X1228590Y184520D02*
X1237390Y184520D01*
X1237390Y186610D02*
X1228590Y186610D01*
X1228590Y188700D02*
X1237390Y188700D01*
X1237390Y190790D02*
X1228590Y190790D01*
X1228590Y192880D02*
X1237390Y192880D01*
X1237390Y194970D02*
X1228590Y194970D01*
X1228590Y197060D02*
X1237390Y197060D01*
X1237390Y199150D02*
X1228590Y199150D01*
X1228590Y201240D02*
X1237390Y201240D01*
X1260700Y80830D02*
X1269500Y80830D01*
X1269500Y56330D01*
X1260700Y56330D01*
X1260700Y80830D01*
X1260700Y58420D02*
X1269500Y58420D01*
X1269500Y60510D02*
X1260700Y60510D01*
X1260700Y62600D02*
X1269500Y62600D01*
X1269500Y64690D02*
X1260700Y64690D01*
X1260700Y66780D02*
X1269500Y66780D01*
X1269500Y68870D02*
X1260700Y68870D01*
X1260700Y70960D02*
X1269500Y70960D01*
X1269500Y73050D02*
X1260700Y73050D01*
X1260700Y75140D02*
X1269500Y75140D01*
X1269500Y77230D02*
X1260700Y77230D01*
X1260700Y79320D02*
X1269500Y79320D01*
X1241200Y80830D02*
X1232400Y80830D01*
X1241200Y80830D02*
X1241200Y56330D01*
X1232400Y56330D01*
X1232400Y80830D01*
X1232400Y58420D02*
X1241200Y58420D01*
X1241200Y60510D02*
X1232400Y60510D01*
X1232400Y62600D02*
X1241200Y62600D01*
X1241200Y64690D02*
X1232400Y64690D01*
X1232400Y66780D02*
X1241200Y66780D01*
X1241200Y68870D02*
X1232400Y68870D01*
X1232400Y70960D02*
X1241200Y70960D01*
X1241200Y73050D02*
X1232400Y73050D01*
X1232400Y75140D02*
X1241200Y75140D01*
X1241200Y77230D02*
X1232400Y77230D01*
X1232400Y79320D02*
X1241200Y79320D01*
X1256890Y454210D02*
X1265690Y454210D01*
X1265690Y429710D01*
X1256890Y429710D01*
X1256890Y454210D01*
X1256890Y431800D02*
X1265690Y431800D01*
X1265690Y433890D02*
X1256890Y433890D01*
X1256890Y435980D02*
X1265690Y435980D01*
X1265690Y438070D02*
X1256890Y438070D01*
X1256890Y440160D02*
X1265690Y440160D01*
X1265690Y442250D02*
X1256890Y442250D01*
X1256890Y444340D02*
X1265690Y444340D01*
X1265690Y446430D02*
X1256890Y446430D01*
X1256890Y448520D02*
X1265690Y448520D01*
X1265690Y450610D02*
X1256890Y450610D01*
X1256890Y452700D02*
X1265690Y452700D01*
X1237390Y454210D02*
X1228590Y454210D01*
X1237390Y454210D02*
X1237390Y429710D01*
X1228590Y429710D01*
X1228590Y454210D01*
X1228590Y431800D02*
X1237390Y431800D01*
X1237390Y433890D02*
X1228590Y433890D01*
X1228590Y435980D02*
X1237390Y435980D01*
X1237390Y438070D02*
X1228590Y438070D01*
X1228590Y440160D02*
X1237390Y440160D01*
X1237390Y442250D02*
X1228590Y442250D01*
X1228590Y444340D02*
X1237390Y444340D01*
X1237390Y446430D02*
X1228590Y446430D01*
X1228590Y448520D02*
X1237390Y448520D01*
X1237390Y450610D02*
X1228590Y450610D01*
X1228590Y452700D02*
X1237390Y452700D01*
X1260700Y332290D02*
X1269500Y332290D01*
X1269500Y307790D01*
X1260700Y307790D01*
X1260700Y332290D01*
X1260700Y309880D02*
X1269500Y309880D01*
X1269500Y311970D02*
X1260700Y311970D01*
X1260700Y314060D02*
X1269500Y314060D01*
X1269500Y316150D02*
X1260700Y316150D01*
X1260700Y318240D02*
X1269500Y318240D01*
X1269500Y320330D02*
X1260700Y320330D01*
X1260700Y322420D02*
X1269500Y322420D01*
X1269500Y324510D02*
X1260700Y324510D01*
X1260700Y326600D02*
X1269500Y326600D01*
X1269500Y328690D02*
X1260700Y328690D01*
X1260700Y330780D02*
X1269500Y330780D01*
X1241200Y332290D02*
X1232400Y332290D01*
X1241200Y332290D02*
X1241200Y307790D01*
X1232400Y307790D01*
X1232400Y332290D01*
X1232400Y309880D02*
X1241200Y309880D01*
X1241200Y311970D02*
X1232400Y311970D01*
X1232400Y314060D02*
X1241200Y314060D01*
X1241200Y316150D02*
X1232400Y316150D01*
X1232400Y318240D02*
X1241200Y318240D01*
X1241200Y320330D02*
X1232400Y320330D01*
X1232400Y322420D02*
X1241200Y322420D01*
X1241200Y324510D02*
X1232400Y324510D01*
X1232400Y326600D02*
X1241200Y326600D01*
X1241200Y328690D02*
X1232400Y328690D01*
X1232400Y330780D02*
X1241200Y330780D01*
D27*
X716280Y60070D03*
X716280Y44070D03*
X723900Y298830D03*
X723900Y282830D03*
D24*
X1054100Y720930D03*
X1063600Y698930D03*
X1044600Y698930D03*
D26*
X1251810Y732340D02*
X1260610Y732340D01*
X1260610Y707840D01*
X1251810Y707840D01*
X1251810Y732340D01*
X1251810Y709930D02*
X1260610Y709930D01*
X1260610Y712020D02*
X1251810Y712020D01*
X1251810Y714110D02*
X1260610Y714110D01*
X1260610Y716200D02*
X1251810Y716200D01*
X1251810Y718290D02*
X1260610Y718290D01*
X1260610Y720380D02*
X1251810Y720380D01*
X1251810Y722470D02*
X1260610Y722470D01*
X1260610Y724560D02*
X1251810Y724560D01*
X1251810Y726650D02*
X1260610Y726650D01*
X1260610Y728740D02*
X1251810Y728740D01*
X1251810Y730830D02*
X1260610Y730830D01*
X1232310Y732340D02*
X1223510Y732340D01*
X1232310Y732340D02*
X1232310Y707840D01*
X1223510Y707840D01*
X1223510Y732340D01*
X1223510Y709930D02*
X1232310Y709930D01*
X1232310Y712020D02*
X1223510Y712020D01*
X1223510Y714110D02*
X1232310Y714110D01*
X1232310Y716200D02*
X1223510Y716200D01*
X1223510Y718290D02*
X1232310Y718290D01*
X1232310Y720380D02*
X1223510Y720380D01*
X1223510Y722470D02*
X1232310Y722470D01*
X1232310Y724560D02*
X1223510Y724560D01*
X1223510Y726650D02*
X1232310Y726650D01*
X1232310Y728740D02*
X1223510Y728740D01*
X1223510Y730830D02*
X1232310Y730830D01*
D24*
X1054100Y600280D03*
X1063600Y578280D03*
X1044600Y578280D03*
D26*
X1258160Y602800D02*
X1266960Y602800D01*
X1266960Y578300D01*
X1258160Y578300D01*
X1258160Y602800D01*
X1258160Y580390D02*
X1266960Y580390D01*
X1266960Y582480D02*
X1258160Y582480D01*
X1258160Y584570D02*
X1266960Y584570D01*
X1266960Y586660D02*
X1258160Y586660D01*
X1258160Y588750D02*
X1266960Y588750D01*
X1266960Y590840D02*
X1258160Y590840D01*
X1258160Y592930D02*
X1266960Y592930D01*
X1266960Y595020D02*
X1258160Y595020D01*
X1258160Y597110D02*
X1266960Y597110D01*
X1266960Y599200D02*
X1258160Y599200D01*
X1258160Y601290D02*
X1266960Y601290D01*
X1238660Y602800D02*
X1229860Y602800D01*
X1238660Y602800D02*
X1238660Y578300D01*
X1229860Y578300D01*
X1229860Y602800D01*
X1229860Y580390D02*
X1238660Y580390D01*
X1238660Y582480D02*
X1229860Y582480D01*
X1229860Y584570D02*
X1238660Y584570D01*
X1238660Y586660D02*
X1229860Y586660D01*
X1229860Y588750D02*
X1238660Y588750D01*
X1238660Y590840D02*
X1229860Y590840D01*
X1229860Y592930D02*
X1238660Y592930D01*
X1238660Y595020D02*
X1229860Y595020D01*
X1229860Y597110D02*
X1238660Y597110D01*
X1238660Y599200D02*
X1229860Y599200D01*
X1229860Y601290D02*
X1238660Y601290D01*
D12*
X717406Y756640D03*
X717406Y751640D03*
X717406Y746640D03*
X717406Y741640D03*
X717406Y736640D03*
X717406Y731640D03*
X717406Y726640D03*
X717406Y721640D03*
D13*
X724180Y714616D03*
X729180Y714616D03*
X734180Y714616D03*
X739180Y714616D03*
X744180Y714616D03*
X749180Y714616D03*
X754180Y714616D03*
X759180Y714616D03*
D12*
X765954Y721640D03*
X765954Y726640D03*
X765954Y731640D03*
X765954Y736640D03*
X765954Y741640D03*
X765954Y746640D03*
X765954Y751640D03*
X765954Y756640D03*
D13*
X759180Y763664D03*
X754180Y763664D03*
X749180Y763664D03*
X744180Y763664D03*
X739180Y763664D03*
X734180Y763664D03*
X729180Y763664D03*
X724180Y763664D03*
D14*
X707390Y658972D03*
X707390Y674528D03*
D15*
X674712Y772160D03*
X689268Y772160D03*
D16*
X674751Y742950D03*
X689229Y742950D03*
D17*
X689483Y795020D03*
X674497Y795020D03*
D18*
X730250Y659511D03*
X730250Y673989D03*
D20*
X781050Y661540D03*
X781050Y677040D03*
D16*
X818769Y707390D03*
X804291Y707390D03*
D21*
X833900Y684530D03*
X804400Y684530D03*
D16*
X816229Y759460D03*
X801751Y759460D03*
D22*
X854710Y735820D03*
X854710Y765320D03*
D23*
X802560Y732790D03*
X817960Y732790D03*
D27*
X753110Y676020D03*
X753110Y660020D03*
D24*
X1051560Y659970D03*
X1061060Y637970D03*
X1042060Y637970D03*
D25*
X1262290Y651510D03*
X1231990Y651510D03*
D24*
X1052830Y783160D03*
X1062330Y761160D03*
X1043330Y761160D03*
D25*
X1261020Y782320D03*
X1230720Y782320D03*
D24*
X1055370Y1016840D03*
X1064870Y994840D03*
X1045870Y994840D03*
X1055370Y875870D03*
X1064870Y853870D03*
X1045870Y853870D03*
D26*
X1253080Y1018090D02*
X1261880Y1018090D01*
X1261880Y993590D01*
X1253080Y993590D01*
X1253080Y1018090D01*
X1253080Y995680D02*
X1261880Y995680D01*
X1261880Y997770D02*
X1253080Y997770D01*
X1253080Y999860D02*
X1261880Y999860D01*
X1261880Y1001950D02*
X1253080Y1001950D01*
X1253080Y1004040D02*
X1261880Y1004040D01*
X1261880Y1006130D02*
X1253080Y1006130D01*
X1253080Y1008220D02*
X1261880Y1008220D01*
X1261880Y1010310D02*
X1253080Y1010310D01*
X1253080Y1012400D02*
X1261880Y1012400D01*
X1261880Y1014490D02*
X1253080Y1014490D01*
X1253080Y1016580D02*
X1261880Y1016580D01*
X1233580Y1018090D02*
X1224780Y1018090D01*
X1233580Y1018090D02*
X1233580Y993590D01*
X1224780Y993590D01*
X1224780Y1018090D01*
X1224780Y995680D02*
X1233580Y995680D01*
X1233580Y997770D02*
X1224780Y997770D01*
X1224780Y999860D02*
X1233580Y999860D01*
X1233580Y1001950D02*
X1224780Y1001950D01*
X1224780Y1004040D02*
X1233580Y1004040D01*
X1233580Y1006130D02*
X1224780Y1006130D01*
X1224780Y1008220D02*
X1233580Y1008220D01*
X1233580Y1010310D02*
X1224780Y1010310D01*
X1224780Y1012400D02*
X1233580Y1012400D01*
X1233580Y1014490D02*
X1224780Y1014490D01*
X1224780Y1016580D02*
X1233580Y1016580D01*
X1254350Y888550D02*
X1263150Y888550D01*
X1263150Y864050D01*
X1254350Y864050D01*
X1254350Y888550D01*
X1254350Y866140D02*
X1263150Y866140D01*
X1263150Y868230D02*
X1254350Y868230D01*
X1254350Y870320D02*
X1263150Y870320D01*
X1263150Y872410D02*
X1254350Y872410D01*
X1254350Y874500D02*
X1263150Y874500D01*
X1263150Y876590D02*
X1254350Y876590D01*
X1254350Y878680D02*
X1263150Y878680D01*
X1263150Y880770D02*
X1254350Y880770D01*
X1254350Y882860D02*
X1263150Y882860D01*
X1263150Y884950D02*
X1254350Y884950D01*
X1254350Y887040D02*
X1263150Y887040D01*
X1234850Y888550D02*
X1226050Y888550D01*
X1234850Y888550D02*
X1234850Y864050D01*
X1226050Y864050D01*
X1226050Y888550D01*
X1226050Y866140D02*
X1234850Y866140D01*
X1234850Y868230D02*
X1226050Y868230D01*
X1226050Y870320D02*
X1234850Y870320D01*
X1234850Y872410D02*
X1226050Y872410D01*
X1226050Y874500D02*
X1234850Y874500D01*
X1234850Y876590D02*
X1226050Y876590D01*
X1226050Y878680D02*
X1234850Y878680D01*
X1234850Y880770D02*
X1226050Y880770D01*
X1226050Y882860D02*
X1234850Y882860D01*
X1234850Y884950D02*
X1226050Y884950D01*
X1226050Y887040D02*
X1234850Y887040D01*
D24*
X1054100Y945720D03*
X1063600Y923720D03*
X1044600Y923720D03*
D25*
X1258480Y941070D03*
X1228180Y941070D03*
D24*
X1054100Y1081610D03*
X1063600Y1059610D03*
X1044600Y1059610D03*
D25*
X1258480Y1071880D03*
X1228180Y1071880D03*
D12*
X722486Y985240D03*
X722486Y980240D03*
X722486Y975240D03*
X722486Y970240D03*
X722486Y965240D03*
X722486Y960240D03*
X722486Y955240D03*
X722486Y950240D03*
D13*
X729260Y943216D03*
X734260Y943216D03*
X739260Y943216D03*
X744260Y943216D03*
X749260Y943216D03*
X754260Y943216D03*
X759260Y943216D03*
X764260Y943216D03*
D12*
X771034Y950240D03*
X771034Y955240D03*
X771034Y960240D03*
X771034Y965240D03*
X771034Y970240D03*
X771034Y975240D03*
X771034Y980240D03*
X771034Y985240D03*
D13*
X764260Y992264D03*
X759260Y992264D03*
X754260Y992264D03*
X749260Y992264D03*
X744260Y992264D03*
X739260Y992264D03*
X734260Y992264D03*
X729260Y992264D03*
D14*
X713740Y878682D03*
X713740Y894238D03*
D15*
X684872Y993140D03*
X699428Y993140D03*
D16*
X685546Y974090D03*
X700024Y974090D03*
D17*
X699643Y1017270D03*
X684657Y1017270D03*
D18*
X734060Y879221D03*
X734060Y893699D03*
D20*
X786130Y878710D03*
X786130Y894210D03*
D16*
X820039Y942340D03*
X805561Y942340D03*
D21*
X835170Y916940D03*
X805670Y916940D03*
D16*
X820039Y985520D03*
X805561Y985520D03*
D22*
X862330Y961880D03*
X862330Y991380D03*
D23*
X805100Y963930D03*
X820500Y963930D03*
D27*
X759460Y894460D03*
X759460Y878460D03*
D28*
X522860Y509270D03*
X538860Y509270D03*
D18*
X337185Y588264D03*
X337185Y573786D03*
D29*
X368910Y619760D03*
X349910Y619760D03*
X446430Y632460D03*
X465430Y632460D03*
D18*
X335915Y513334D03*
X335915Y498856D03*
D30*
X541150Y391160D03*
X525650Y391160D03*
X538610Y481330D03*
X523110Y481330D03*
X538610Y537210D03*
X523110Y537210D03*
X537340Y619760D03*
X521840Y619760D03*
X542420Y332740D03*
X526920Y332740D03*
X541150Y417830D03*
X525650Y417830D03*
D31*
X681030Y510650D03*
X681030Y517150D03*
X681030Y523650D03*
X681030Y530150D03*
X681030Y536650D03*
X681030Y543150D03*
X681030Y549650D03*
X681030Y556150D03*
X624530Y556150D03*
X624530Y549650D03*
X624530Y543150D03*
X624530Y536650D03*
X624530Y530150D03*
X624530Y523650D03*
X624530Y517150D03*
X624530Y510650D03*
D16*
X642366Y501015D03*
X656844Y501015D03*
D18*
X595630Y549021D03*
X595630Y563499D03*
D17*
X603377Y580390D03*
X618363Y580390D03*
D32*
X715803Y1108075D03*
X700247Y1108075D03*
X669132Y1107440D03*
X684688Y1107440D03*
X667862Y1088390D03*
X683418Y1088390D03*
D16*
X669036Y1071880D03*
X683514Y1071880D03*
D33*
X332740Y151257D03*
D34*
X332740Y127381D03*
D33*
X504190Y120523D03*
D34*
X504190Y144399D03*
D35*
X332740Y175250D03*
X332740Y193050D03*
X419100Y184140D03*
X419100Y201940D03*
X504190Y173980D03*
X504190Y191780D03*
D36*
X585460Y664210D03*
X603260Y664210D03*
X584190Y633730D03*
X601990Y633730D03*
D21*
X349740Y236220D03*
X379240Y236220D03*
X457690Y234950D03*
X487190Y234950D03*
D37*
X738260Y1107440D03*
X755260Y1107440D03*
D18*
X681990Y491109D03*
X681990Y476631D03*
X699770Y587629D03*
X699770Y573151D03*
D16*
X616839Y596900D03*
X602361Y596900D03*
D38*
X346907Y70653D02*
X337533Y70653D01*
X337533Y86827D01*
X346907Y86827D01*
X346907Y70653D01*
X346907Y72103D02*
X337533Y72103D01*
X337533Y73553D02*
X346907Y73553D01*
X346907Y75003D02*
X337533Y75003D01*
X337533Y76453D02*
X346907Y76453D01*
X346907Y77903D02*
X337533Y77903D01*
X337533Y79353D02*
X346907Y79353D01*
X346907Y80803D02*
X337533Y80803D01*
X337533Y82253D02*
X346907Y82253D01*
X346907Y83703D02*
X337533Y83703D01*
X337533Y85153D02*
X346907Y85153D01*
X346907Y86603D02*
X337533Y86603D01*
D39*
X368228Y70548D02*
X376312Y70548D01*
X368228Y70548D02*
X368228Y86932D01*
X376312Y86932D01*
X376312Y70548D01*
X376312Y71798D02*
X368228Y71798D01*
X368228Y73048D02*
X376312Y73048D01*
X376312Y74298D02*
X368228Y74298D01*
X368228Y75548D02*
X376312Y75548D01*
X376312Y76798D02*
X368228Y76798D01*
X368228Y78048D02*
X376312Y78048D01*
X376312Y79298D02*
X368228Y79298D01*
X368228Y80548D02*
X376312Y80548D01*
X376312Y81798D02*
X368228Y81798D01*
X368228Y83048D02*
X376312Y83048D01*
X376312Y84298D02*
X368228Y84298D01*
X368228Y85548D02*
X376312Y85548D01*
X376312Y86798D02*
X368228Y86798D01*
D38*
X491293Y88097D02*
X500667Y88097D01*
X500667Y71923D01*
X491293Y71923D01*
X491293Y88097D01*
X491293Y73373D02*
X500667Y73373D01*
X500667Y74823D02*
X491293Y74823D01*
X491293Y76273D02*
X500667Y76273D01*
X500667Y77723D02*
X491293Y77723D01*
X491293Y79173D02*
X500667Y79173D01*
X500667Y80623D02*
X491293Y80623D01*
X491293Y82073D02*
X500667Y82073D01*
X500667Y83523D02*
X491293Y83523D01*
X491293Y84973D02*
X500667Y84973D01*
X500667Y86423D02*
X491293Y86423D01*
X491293Y87873D02*
X500667Y87873D01*
D39*
X469972Y88202D02*
X461888Y88202D01*
X469972Y88202D02*
X469972Y71818D01*
X461888Y71818D01*
X461888Y88202D01*
X461888Y73068D02*
X469972Y73068D01*
X469972Y74318D02*
X461888Y74318D01*
X461888Y75568D02*
X469972Y75568D01*
X469972Y76818D02*
X461888Y76818D01*
X461888Y78068D02*
X469972Y78068D01*
X469972Y79318D02*
X461888Y79318D01*
X461888Y80568D02*
X469972Y80568D01*
X469972Y81818D02*
X461888Y81818D01*
X461888Y83068D02*
X469972Y83068D01*
X469972Y84318D02*
X461888Y84318D01*
X461888Y85568D02*
X469972Y85568D01*
X469972Y86818D02*
X461888Y86818D01*
X461888Y88068D02*
X469972Y88068D01*
D40*
X1191670Y873760D03*
X1147670Y873760D03*
X1186590Y1004570D03*
X1142590Y1004570D03*
X1186590Y941070D03*
X1142590Y941070D03*
X1185320Y1069340D03*
X1141320Y1069340D03*
X1192940Y127000D03*
X1148940Y127000D03*
X1190400Y251460D03*
X1146400Y251460D03*
X1191670Y187960D03*
X1147670Y187960D03*
X1194210Y62230D03*
X1150210Y62230D03*
D41*
X386080Y156620D03*
X386080Y112620D03*
X452120Y112620D03*
X452120Y156620D03*
D40*
X1189130Y440690D03*
X1145130Y440690D03*
X1194210Y320040D03*
X1150210Y320040D03*
X1192940Y378460D03*
X1148940Y378460D03*
X1191670Y508000D03*
X1147670Y508000D03*
X1187860Y715010D03*
X1143860Y715010D03*
X1190400Y593090D03*
X1146400Y593090D03*
X1189130Y653415D03*
X1145130Y653415D03*
X1186590Y777240D03*
X1142590Y777240D03*
X1301340Y721360D03*
X1345340Y721360D03*
X1305150Y593090D03*
X1349150Y593090D03*
X1303880Y652780D03*
X1347880Y652780D03*
X1300070Y783590D03*
X1344070Y783590D03*
X1302610Y382270D03*
X1346610Y382270D03*
X1301340Y509270D03*
X1345340Y509270D03*
X1300070Y444500D03*
X1344070Y444500D03*
X1305150Y321310D03*
X1349150Y321310D03*
X1310230Y129540D03*
X1354230Y129540D03*
X1302610Y252730D03*
X1346610Y252730D03*
X1303880Y191770D03*
X1347880Y191770D03*
X1308960Y66040D03*
X1352960Y66040D03*
X1298800Y1008380D03*
X1342800Y1008380D03*
X1301340Y876300D03*
X1345340Y876300D03*
X1296260Y946150D03*
X1340260Y946150D03*
X1297530Y1075690D03*
X1341530Y1075690D03*
D42*
X385125Y196615D02*
X374335Y196615D01*
X385125Y196615D02*
X385125Y189769D01*
X374335Y189769D01*
X374335Y196615D01*
X374335Y191394D02*
X385125Y191394D01*
X385125Y193019D02*
X374335Y193019D01*
X374335Y194644D02*
X385125Y194644D01*
X385125Y196269D02*
X374335Y196269D01*
D43*
X374335Y216630D02*
X385125Y216630D01*
X385125Y209786D01*
X374335Y209786D01*
X374335Y216630D01*
X374335Y211411D02*
X385125Y211411D01*
X385125Y213036D02*
X374335Y213036D01*
X374335Y214661D02*
X385125Y214661D01*
X385125Y216286D02*
X374335Y216286D01*
D44*
X385333Y205790D02*
X385333Y200610D01*
X374127Y200610D01*
X374127Y205790D01*
X385333Y205790D01*
X385333Y201840D02*
X374127Y201840D01*
X374127Y203070D02*
X385333Y203070D01*
X385333Y204300D02*
X374127Y204300D01*
X374127Y205530D02*
X385333Y205530D01*
D42*
X451805Y196615D02*
X462595Y196615D01*
X462595Y189769D01*
X451805Y189769D01*
X451805Y196615D01*
X451805Y191394D02*
X462595Y191394D01*
X462595Y193019D02*
X451805Y193019D01*
X451805Y194644D02*
X462595Y194644D01*
X462595Y196269D02*
X451805Y196269D01*
D43*
X451805Y216630D02*
X462595Y216630D01*
X462595Y209786D01*
X451805Y209786D01*
X451805Y216630D01*
X451805Y211411D02*
X462595Y211411D01*
X462595Y213036D02*
X451805Y213036D01*
X451805Y214661D02*
X462595Y214661D01*
X462595Y216286D02*
X451805Y216286D01*
D44*
X462803Y205790D02*
X462803Y200610D01*
X451597Y200610D01*
X451597Y205790D01*
X462803Y205790D01*
X462803Y201840D02*
X451597Y201840D01*
X451597Y203070D02*
X462803Y203070D01*
X462803Y204300D02*
X451597Y204300D01*
X451597Y205530D02*
X462803Y205530D01*
D42*
X625795Y660635D02*
X636585Y660635D01*
X625795Y660635D02*
X625795Y667481D01*
X636585Y667481D01*
X636585Y660635D01*
X636585Y662260D02*
X625795Y662260D01*
X625795Y663885D02*
X636585Y663885D01*
X636585Y665510D02*
X625795Y665510D01*
X625795Y667135D02*
X636585Y667135D01*
D43*
X636585Y640620D02*
X625795Y640620D01*
X625795Y647464D01*
X636585Y647464D01*
X636585Y640620D01*
X636585Y642245D02*
X625795Y642245D01*
X625795Y643870D02*
X636585Y643870D01*
X636585Y645495D02*
X625795Y645495D01*
X625795Y647120D02*
X636585Y647120D01*
D44*
X625587Y651460D02*
X625587Y656640D01*
X636793Y656640D01*
X636793Y651460D01*
X625587Y651460D01*
X625587Y652690D02*
X636793Y652690D01*
X636793Y653920D02*
X625587Y653920D01*
X625587Y655150D02*
X636793Y655150D01*
X636793Y656380D02*
X625587Y656380D01*
D45*
X309700Y981075D03*
X325300Y981075D03*
D46*
X625475Y478610D03*
X625475Y494210D03*
X603885Y494210D03*
X603885Y478610D03*
X661670Y472895D03*
X661670Y488495D03*
D32*
X140812Y330200D03*
X156368Y330200D03*
D47*
X238760Y173482D03*
X238760Y197358D03*
D48*
X637320Y604250D02*
X646520Y604250D01*
X637320Y604250D02*
X637320Y607250D01*
X646520Y607250D01*
X646520Y604250D01*
X646520Y607100D02*
X637320Y607100D01*
X637320Y594750D02*
X646520Y594750D01*
X637320Y594750D02*
X637320Y597750D01*
X646520Y597750D01*
X646520Y594750D01*
X646520Y597600D02*
X637320Y597600D01*
X637320Y585250D02*
X646520Y585250D01*
X637320Y585250D02*
X637320Y588250D01*
X646520Y588250D01*
X646520Y585250D01*
X646520Y588100D02*
X637320Y588100D01*
X662220Y585250D02*
X671420Y585250D01*
X662220Y585250D02*
X662220Y588250D01*
X671420Y588250D01*
X671420Y585250D01*
X671420Y588100D02*
X662220Y588100D01*
X662220Y594750D02*
X671420Y594750D01*
X662220Y594750D02*
X662220Y597750D01*
X671420Y597750D01*
X671420Y594750D01*
X671420Y597600D02*
X662220Y597600D01*
X662220Y604250D02*
X671420Y604250D01*
X662220Y604250D02*
X662220Y607250D01*
X671420Y607250D01*
X671420Y604250D01*
X671420Y607100D02*
X662220Y607100D01*
M02*
