G04 EAGLE Gerber RS-274X export*
G75*
%MOMM*%
%FSLAX34Y34*%
%LPD*%
%INSoldermask Bottom*%
%IPPOS*%
%AMOC8*
5,1,8,0,0,1.08239X$1,22.5*%
G01*
%ADD10P,1.852186X8X112.500000*%
%ADD11C,1.727200*%
%ADD12C,1.917700*%
%ADD13R,1.601200X1.601200*%
%ADD14C,1.601200*%
%ADD15C,3.218200*%
%ADD16C,1.553200*%
%ADD17C,1.703200*%
%ADD18C,0.959600*%
%ADD19C,2.108200*%
%ADD20C,1.259600*%


D10*
X515620Y716915D03*
X541020Y716915D03*
X515620Y742315D03*
X541020Y742315D03*
X515620Y767715D03*
X541020Y767715D03*
X515620Y793115D03*
X541020Y793115D03*
X515620Y818515D03*
X541020Y818515D03*
X515620Y843915D03*
X541020Y843915D03*
X515620Y869315D03*
X541020Y869315D03*
X515620Y894715D03*
X541020Y894715D03*
X515620Y920115D03*
X541020Y920115D03*
X515620Y945515D03*
X541020Y945515D03*
X83820Y717550D03*
X109220Y717550D03*
X83820Y742950D03*
X109220Y742950D03*
X83820Y768350D03*
X109220Y768350D03*
X83820Y793750D03*
X109220Y793750D03*
X83820Y819150D03*
X109220Y819150D03*
X83820Y844550D03*
X109220Y844550D03*
X83820Y869950D03*
X109220Y869950D03*
X83820Y895350D03*
X109220Y895350D03*
X83820Y920750D03*
X109220Y920750D03*
X83820Y946150D03*
X109220Y946150D03*
D11*
X142240Y257810D02*
X142240Y242570D01*
X167640Y242570D02*
X167640Y257810D01*
X193040Y257810D02*
X193040Y242570D01*
D12*
X922020Y180340D03*
X922020Y205740D03*
X980440Y68580D03*
X980440Y93980D03*
X980440Y182880D03*
X980440Y208280D03*
X918210Y95250D03*
X918210Y69850D03*
X977900Y458470D03*
X977900Y483870D03*
X980440Y350520D03*
X980440Y375920D03*
X922020Y458470D03*
X922020Y483870D03*
X922020Y375920D03*
X922020Y350520D03*
X979170Y728980D03*
X979170Y754380D03*
X982980Y612140D03*
X982980Y637540D03*
X927100Y728980D03*
X927100Y754380D03*
X928370Y638810D03*
X928370Y613410D03*
X981710Y1032510D03*
X981710Y1057910D03*
X981710Y902970D03*
X981710Y928370D03*
X928370Y1032510D03*
X928370Y1057910D03*
X930910Y930910D03*
X930910Y905510D03*
D13*
X1522095Y191535D03*
D14*
X1522095Y216935D03*
D15*
X1572895Y242335D03*
X1572895Y140735D03*
D13*
X1522095Y444500D03*
D14*
X1522095Y469900D03*
D15*
X1572895Y495300D03*
X1572895Y393700D03*
D13*
X1522095Y697865D03*
D14*
X1522095Y723265D03*
D15*
X1572895Y748665D03*
X1572895Y647065D03*
D13*
X1522095Y951865D03*
D14*
X1522095Y977265D03*
D15*
X1572895Y1002665D03*
X1572895Y901065D03*
D12*
X1452880Y241700D03*
X1427480Y241700D03*
X1451610Y472440D03*
X1426210Y472440D03*
X1454150Y749300D03*
X1428750Y749300D03*
X1457960Y1000760D03*
X1432560Y1000760D03*
D13*
X1442085Y143910D03*
D14*
X1442085Y169310D03*
X1442085Y194710D03*
D13*
X1441450Y649605D03*
D14*
X1441450Y675005D03*
X1441450Y700405D03*
D13*
X1443355Y906780D03*
D14*
X1443355Y932180D03*
X1443355Y957580D03*
D13*
X1440180Y371475D03*
D14*
X1440180Y396875D03*
X1440180Y422275D03*
D16*
X127635Y469900D03*
D17*
X147320Y655320D03*
D18*
X482600Y349250D03*
X499110Y425450D03*
X497840Y510540D03*
X495300Y589280D03*
X485140Y599440D03*
X445770Y651510D03*
X563245Y643255D03*
X563880Y652780D03*
D17*
X238760Y272415D03*
X238760Y224790D03*
D18*
X316230Y479425D03*
X315595Y450215D03*
X381635Y464185D03*
X313690Y344170D03*
X389255Y321945D03*
X401955Y639445D03*
X387350Y543560D03*
X387985Y381000D03*
D17*
X389890Y654685D03*
D18*
X394970Y624840D03*
X373380Y655320D03*
X388620Y639445D03*
X313690Y358140D03*
X313690Y327025D03*
X329565Y344170D03*
X329565Y358140D03*
X342900Y357505D03*
D19*
X46990Y419100D03*
X224790Y327660D03*
X328930Y328295D03*
D18*
X354330Y412750D03*
X355600Y336550D03*
X353060Y575310D03*
X353060Y499110D03*
X321945Y411480D03*
X350520Y600710D03*
X323850Y574675D03*
X323215Y499110D03*
X685165Y715010D03*
X667385Y336550D03*
X662940Y93980D03*
X535940Y430530D03*
X680720Y925195D03*
X619760Y715645D03*
X675640Y708025D03*
X660400Y326390D03*
X654050Y83820D03*
X585470Y523240D03*
X677545Y906145D03*
X633730Y716280D03*
X693420Y725170D03*
X674370Y346710D03*
X671830Y104140D03*
X694055Y949325D03*
X629754Y571040D03*
X545374Y579328D03*
X697230Y172720D03*
X699135Y413385D03*
X726440Y787400D03*
X592455Y427990D03*
X551180Y509270D03*
X717550Y1022350D03*
X675005Y1042670D03*
D20*
X384175Y767715D03*
X400685Y818515D03*
D18*
X680720Y153670D03*
X684530Y397510D03*
X708660Y770890D03*
X486410Y374650D03*
X712470Y989330D03*
X668020Y553720D03*
X678180Y948055D03*
X603250Y716280D03*
X571500Y393700D03*
D20*
X462280Y713740D03*
X462280Y668655D03*
X570865Y755650D03*
X553720Y680085D03*
X570865Y851535D03*
X570865Y953135D03*
D18*
X687070Y165100D03*
X692150Y406400D03*
X718820Y781050D03*
X711200Y999490D03*
X707390Y1043305D03*
X632460Y181610D03*
X650240Y410210D03*
X661670Y795020D03*
X673100Y1017270D03*
X628650Y589280D03*
X618490Y567690D03*
X628650Y633730D03*
X642620Y633730D03*
X654685Y1088390D03*
X655955Y1107440D03*
X755015Y1096010D03*
X662305Y1098550D03*
X648970Y512445D03*
X624205Y459740D03*
X515620Y455930D03*
X494030Y400050D03*
X366395Y643255D03*
X323850Y512445D03*
X323850Y588010D03*
X295275Y318770D03*
X295275Y346075D03*
X295275Y357505D03*
X281305Y357505D03*
X295275Y331470D03*
X322580Y424815D03*
X355600Y349250D03*
D17*
X278765Y332740D03*
D18*
X693420Y476885D03*
X648335Y483235D03*
X745490Y882650D03*
X704215Y56515D03*
X711200Y290195D03*
X739775Y666750D03*
X715645Y927100D03*
X687070Y963930D03*
X466725Y320040D03*
X481965Y305435D03*
X525780Y345440D03*
X482600Y335915D03*
X448310Y412750D03*
X526415Y403860D03*
X497840Y413385D03*
X520065Y430530D03*
X474980Y448310D03*
X452755Y448310D03*
X462915Y468630D03*
X520065Y494030D03*
X476250Y498475D03*
X511175Y537845D03*
X480060Y631825D03*
X509270Y620395D03*
X446405Y575945D03*
X495300Y576580D03*
X497840Y497205D03*
X542925Y349250D03*
X544830Y461010D03*
X546100Y495935D03*
X545465Y551815D03*
X553085Y626110D03*
X563245Y633730D03*
X518160Y649605D03*
X489585Y649605D03*
X462915Y650875D03*
X443230Y607695D03*
X1431290Y1023620D03*
X1427480Y772160D03*
X1424940Y494030D03*
X1427480Y263290D03*
X848360Y914400D03*
X847090Y683260D03*
X822325Y69215D03*
X830580Y985520D03*
X826770Y759460D03*
X802640Y370840D03*
X806450Y137160D03*
X801370Y87630D03*
X844550Y106680D03*
X807720Y326390D03*
X847090Y347980D03*
X829310Y707390D03*
X873760Y730250D03*
X830580Y942340D03*
X861060Y948690D03*
X765810Y1017270D03*
X768350Y934720D03*
X787400Y866140D03*
X765175Y784860D03*
X763270Y706120D03*
X782320Y648970D03*
X741680Y411480D03*
X742950Y328930D03*
X762000Y283210D03*
X735330Y167640D03*
X736600Y83820D03*
X747395Y20320D03*
X715010Y938530D03*
X707390Y706755D03*
X698500Y331470D03*
X689610Y78740D03*
X730250Y693420D03*
X681990Y129540D03*
X684530Y373380D03*
X707390Y749300D03*
X632460Y149860D03*
X632460Y116840D03*
X650240Y388620D03*
X650240Y367030D03*
X661670Y772160D03*
X662940Y742950D03*
X673100Y974090D03*
X673100Y993140D03*
X702310Y734060D03*
X684530Y358775D03*
X680085Y114935D03*
X697230Y499110D03*
X690880Y504190D03*
X614680Y487045D03*
X708025Y597535D03*
X597535Y606425D03*
X605790Y567690D03*
X673100Y956310D03*
X615950Y632460D03*
X643890Y654050D03*
X712470Y977900D03*
X352425Y206375D03*
X431800Y213360D03*
X734060Y867410D03*
X730885Y640715D03*
X704215Y268605D03*
X702945Y43180D03*
X825500Y303530D03*
X825500Y316230D03*
X826135Y289560D03*
X819785Y79375D03*
X821690Y58420D03*
X810895Y106045D03*
X789940Y80010D03*
X794385Y316230D03*
X812165Y344170D03*
X847090Y671830D03*
X847090Y694690D03*
X833120Y734695D03*
X818515Y697230D03*
X848360Y902970D03*
X848360Y925830D03*
X819785Y931545D03*
X842645Y962025D03*
X690880Y594360D03*
X699135Y601345D03*
X668020Y1060450D03*
X1176655Y62230D03*
X1195705Y81915D03*
X1214755Y62865D03*
X1285240Y64770D03*
X1306830Y84455D03*
X1329055Y66040D03*
X1289050Y129540D03*
X1308100Y148590D03*
X1327785Y129540D03*
X1174750Y127000D03*
X1214120Y127000D03*
X1193165Y146050D03*
X1174750Y188595D03*
X1193165Y204470D03*
X1210310Y187960D03*
X1282700Y191770D03*
X1322705Y191770D03*
X1299845Y210185D03*
X1280795Y252095D03*
X1302385Y272415D03*
X1322705Y252730D03*
X1172845Y250825D03*
X1211580Y251460D03*
X1190625Y271145D03*
X1176655Y318770D03*
X1194435Y337185D03*
X1214755Y320040D03*
X1283335Y319405D03*
X1304925Y340360D03*
X1323340Y321310D03*
X1320800Y382270D03*
X1302385Y403225D03*
X1280795Y382270D03*
X1212215Y378460D03*
X1174750Y378460D03*
X1193165Y396240D03*
X1170940Y440690D03*
X1190625Y457200D03*
X1210945Y440690D03*
X1280160Y444500D03*
X1318895Y444500D03*
X1297305Y462280D03*
X1322070Y509270D03*
X1278890Y509270D03*
X1301115Y529590D03*
X1210945Y508635D03*
X1174115Y508635D03*
X1192530Y525780D03*
X1284605Y592455D03*
X1323975Y593090D03*
X1304925Y614045D03*
X1172845Y593090D03*
X1212215Y593090D03*
X1191260Y612140D03*
X1169670Y653415D03*
X1191895Y669925D03*
X1209040Y653415D03*
X1169035Y714375D03*
X1188085Y732155D03*
X1210945Y715010D03*
X1278255Y721360D03*
X1298575Y740410D03*
X1320165Y721360D03*
X1279525Y783590D03*
X1319530Y783590D03*
X1297940Y802005D03*
X1167765Y777240D03*
X1186815Y795655D03*
X1208405Y777240D03*
X1280795Y652780D03*
X1300480Y669290D03*
X1322070Y652780D03*
X1173480Y874395D03*
X1191260Y892810D03*
X1212215Y874395D03*
X1278890Y876300D03*
X1301115Y895350D03*
X1318895Y876300D03*
X1314450Y946150D03*
X1273175Y945515D03*
X1296035Y965200D03*
X1207770Y941070D03*
X1169035Y941070D03*
X1186180Y960120D03*
X1167130Y1004570D03*
X1186815Y1022350D03*
X1206500Y1004570D03*
X1273810Y1008380D03*
X1296670Y1025525D03*
X1316990Y1008380D03*
X1315085Y1075690D03*
X1296670Y1092835D03*
X1273175Y1075690D03*
X1209675Y1068705D03*
X1165860Y1068705D03*
X1186180Y1087120D03*
X570230Y17145D03*
X603250Y16510D03*
X633095Y16510D03*
X663575Y16510D03*
X692150Y16510D03*
X765810Y17145D03*
X802005Y17145D03*
X840105Y17145D03*
X883920Y17145D03*
X922020Y16510D03*
X961390Y16510D03*
X1006475Y16510D03*
X1052830Y17145D03*
X1089660Y17145D03*
X1125855Y17145D03*
X1163320Y17145D03*
X1198880Y17145D03*
X1236980Y17145D03*
X1275080Y17145D03*
X1321435Y17145D03*
X1375410Y17145D03*
X1436370Y16510D03*
X1489075Y16510D03*
X1536065Y16510D03*
X1575435Y17145D03*
X1630045Y17780D03*
X1631315Y65405D03*
X1631950Y107315D03*
X1631950Y137795D03*
X1631950Y167005D03*
X1633220Y212090D03*
X1633220Y256540D03*
X1633220Y306705D03*
X1633855Y349250D03*
X1633220Y404495D03*
X1633220Y459105D03*
X1633220Y513080D03*
X1633220Y568325D03*
X1633855Y626110D03*
X1633220Y687705D03*
X1633855Y760095D03*
X1633220Y808355D03*
X1633855Y846455D03*
X1633220Y911860D03*
X1633220Y973455D03*
X1632585Y1034415D03*
X1632585Y1094740D03*
X1632585Y1124585D03*
X1593850Y1124585D03*
X1538605Y1123315D03*
X1496695Y1123950D03*
X1455420Y1124585D03*
X1407160Y1124585D03*
X1339215Y1124585D03*
X1288415Y1125220D03*
X1241425Y1124585D03*
X1180465Y1124585D03*
X1136015Y1124585D03*
X1093470Y1124585D03*
X1032510Y1125220D03*
X981075Y1124585D03*
X916305Y1124585D03*
X862965Y1123950D03*
X818515Y1124585D03*
X775970Y1124585D03*
X727075Y1125220D03*
X694055Y1125220D03*
X655320Y1124585D03*
X596900Y1010920D03*
X594995Y939800D03*
X594995Y864870D03*
X602615Y648970D03*
X613410Y680085D03*
X601980Y506730D03*
X600075Y443865D03*
X598170Y347345D03*
X599440Y384175D03*
X598805Y299720D03*
X551815Y280035D03*
X568325Y186055D03*
X568325Y161925D03*
X567690Y122555D03*
X567055Y86360D03*
X567690Y53975D03*
X313690Y248920D03*
X313055Y198755D03*
X332105Y221615D03*
X344170Y221615D03*
X331470Y234315D03*
X331470Y245745D03*
X332105Y255270D03*
X344170Y254635D03*
X483235Y213995D03*
X494030Y213995D03*
X504825Y213995D03*
X494030Y205740D03*
X504825Y205740D03*
X504190Y234315D03*
X483235Y205740D03*
X495935Y280035D03*
X434975Y280035D03*
X372745Y280670D03*
X334010Y280035D03*
X393700Y203835D03*
X403225Y201930D03*
X362585Y204470D03*
X433070Y201930D03*
X443865Y202565D03*
X470535Y203200D03*
X596265Y1054735D03*
X596265Y1108075D03*
X595630Y807720D03*
X596265Y728980D03*
X532130Y207010D03*
X656590Y520700D03*
X728980Y1007110D03*
X697865Y394970D03*
X691515Y150495D03*
X1079500Y1055370D03*
X1080770Y993140D03*
X1079500Y923290D03*
X1080770Y853440D03*
X1078230Y760730D03*
X1079500Y697230D03*
X1078230Y636270D03*
X1079500Y577850D03*
X1074420Y488950D03*
X1078230Y421640D03*
X1078230Y363220D03*
X1080770Y298450D03*
X1076960Y229870D03*
X1076960Y171450D03*
X1076960Y106680D03*
X1079500Y41910D03*
X789940Y62865D03*
X782320Y287020D03*
X803910Y665480D03*
X808990Y899160D03*
X367665Y227330D03*
X367665Y244475D03*
X391795Y243840D03*
X400050Y243840D03*
X400685Y227965D03*
X392430Y227965D03*
X396240Y262255D03*
X1028700Y1055370D03*
X1029970Y991870D03*
X1028700Y923290D03*
X1029970Y852170D03*
X1027430Y760730D03*
X1028700Y698500D03*
X1026160Y637540D03*
X1028700Y576580D03*
X1023620Y488950D03*
X1027430Y421640D03*
X1027430Y364490D03*
X1029970Y298450D03*
X1024890Y229870D03*
X1026160Y172720D03*
X1026160Y106680D03*
X1028700Y40640D03*
X441960Y260985D03*
X441960Y242570D03*
X441960Y225425D03*
X467995Y222885D03*
X706120Y128905D03*
X725805Y128905D03*
X706120Y109220D03*
X726440Y109220D03*
X739140Y977265D03*
X757555Y977900D03*
X756920Y957580D03*
X739775Y957580D03*
X711835Y352425D03*
X731520Y352425D03*
X712470Y373380D03*
X731520Y373380D03*
X751840Y749935D03*
X731520Y728980D03*
X732155Y748030D03*
X752475Y728980D03*
X461645Y262890D03*
D19*
X58420Y266700D03*
X39370Y316865D03*
X39370Y237490D03*
X38735Y800100D03*
X103505Y113030D03*
X419735Y39370D03*
X46355Y368300D03*
D18*
X639095Y550723D03*
M02*
